<mxfile host="app.diagrams.net" modified="2021-12-16T03:58:56.416Z" agent="5.0 (Macintosh; Intel Mac OS X 10_15_7) AppleWebKit/537.36 (KHTML, like Gecko) Chrome/96.0.4664.55 Safari/537.36" etag="Dp6ywyoYiw4hD9ZtWbB5" version="15.9.6" type="github">
  <diagram id="prtHgNgQTEPvFCAcTncT" name="Page-1">
    <mxGraphModel dx="1426" dy="793" grid="1" gridSize="10" guides="1" tooltips="1" connect="1" arrows="1" fold="1" page="1" pageScale="1" pageWidth="827" pageHeight="1169" math="0" shadow="0">
      <root>
        <mxCell id="0" />
        <mxCell id="1" parent="0" />
        <mxCell id="dNxyNK7c78bLwvsdeMH5-11" value="" style="swimlane;html=1;startSize=20;horizontal=1;containerType=tree;glass=0;swimlaneLine=0;" parent="1" vertex="1">
          <mxGeometry x="10" y="80" width="790" height="760" as="geometry" />
        </mxCell>
        <UserObject label="LEARNING&lt;br&gt;PORTAL" name="Tessa Miller" position="CFO" location="Office 1" email="me@example.com" placeholders="1" link="https://www.draw.io" id="dNxyNK7c78bLwvsdeMH5-12">
          <mxCell style="label;image=data:image/png,iVBORw0KGgoAAAANSUhEUgAAAyAAAAMgCAYAAADbcAZoAAD6z0lEQVR42uzBAQEAAACAkP6v7ggCAAAAAAAAAAAAAAAAAAAAAAAAAAAAAAAAAAAAAAAAAAAAAAAAAAAAAAAAAAAAAAAAAAAAAAAAAAAAAIDZgwMBAAAAACD/10ZQVVVVVVVVVVVVVVVVVVVVVVVVVVVVVVVVVVVVVVVVVVVVVVVVVVVVVVVVVVVVVVVVVVVVVVVVVVVVVVXYgwMBAAAAACD/10ZQVVVVVVVVVVVVVVVVVVVVVVVVVVVVVVVVVVVVVVVVVVVVVVVVVVVVVVVVVVVVVVVVVVVVVVVVVVVVVVXYtbebNoIoDuOUQgmUsCVsB4EEwsXmbsA2YA8GG0O4BBJIeKIEl7AlpARX4LUZ+31yZsdmkEbKKuKBoHw/6Svir3MAAAAAAAAAAAAAAAAAAAAAAAAAAAAAAAAAAAAAAAAAAAAAAAAAAAAAAAAAAAAAAAAAAAAAAAAAAAAAAAAAAAAA4J3S5/szUqTPbFWberK1K67T8qOUZLX2sgbNXdsvyQxOdlzHJV9j0rYZHG35lG3TDOqTNly1dTM4zOpKyeBgLas/aX+1I6l+teirFKN+peAqF2amAAAAALwNfV2f0Vf1SF/VYn1ZU1kXhx0pGWf0lwPX+b7rbFLVPNnaFd9p2dXae86ODz9AsoIBEowQNckPkHCESAdrz/UlGR+uatFXsRV8ZWlvxaS23eVkXCfdWVJpKSuWorS0yFgBAAAA/oa+aUTjlP56ZEv0tbIZV93oK1vNdSldHIb5ASLlDhCXHyC+/AHiyxsgrnCAuPIHiB8hrp0lk5ZetujalrY+J+Ou080FlW4sxFI0BQAAAPxvht+bkf52EktKetS3x4nU17cNo298Mj58wQCRcgaIFAyQYITkDJC8NywpGCB+hOQPkPwriB8gUjhApHCAPI8Q1+aCSTdeNm9L0vX5Tm/tk5JiiXECAACA9214fxoN71uzkpKS4V2zKxkZIEaGh+/22BeMED9AfC8HyCuuIO/3DcsXDhApGCAuP0Bc6y4ZH67Vj7aulEiqV5yblRgmAAAA+LeMHs6mRz/bsaSkzuhHuyvjw7havrum608j5PVXkPwB8uoryJu+Yfnxkf+G5QsHiCscIL7inKuQ1e2tzHYk1Vv+EEvTU8Bv9s4gqY0jCsM6AkfQETgC+wAe2yAkgfDYcWwvVZVNvElUXiV2jIhNjIOBgZDYiRNncgMdQUeYtdBUtBlGy84vdSbt0IW6SAtaI/1f1XeIr9573YQQQgghV02y96yY7D31YAO2EB89KBAeyt2vZXyMiBDjFEQFiM0UxOYY3e0a1mPDGpZNgEA9QKR6gKgIQXwMRXxk9mArfrjZiB/WPMgoIYQQQgghdiT73y7ARvLmWQh7CBAhfToU8aHUI8Q8BbFfw4IzsIb1hdRwB6KtYV1dgCgRILCW2Ysf1FqwEX+2sQDnCoQQQgghhACN5HCrmBxs+cnB8yZsQ4H4GIr4UKoAUREy1inIE2hcw4IOjtEdrGE5uANRagGiR0j8aPO/EfJAiviQ3t9ox/fXm9CHnJIQQgghhMwqSbBdTIKmnxw2AxghQAQCBD5XIj60CMnzFMT+TxDna1h/SR3cgVwwBXl0Rw8QaRYgcF366dAIBvG9qh/fqzBICCGEEEKmlbOj74rQh8HZ0XaEABHSpkCAwC2hRcj4piCXPUaHDo7Rp2kN63MHa1imAFERIhAgsCLiu5UIBrFf8WOfQUIIIYQQkmvOfnzhnR2/aMI2FIiPj1QBAlWEHEivZQqyIx3nk7zu17BsAsR+Dcv9HcilAkR6F/r/eKccdTfLTeh1N9d4Q0IIIYQQMsmkP+3Mw3p6stNKT14KBIj0WKoFyCRPQdwfo9uvYX0lzftzvOY7EFOAQD1ApHqADEWAwDXRra21urVSHc4XCCGEEEKIe9Kfv/dgE0aIDzH0JPOlChB47VOQXfspiPkYPUdrWAgQaP8rek7uQNQhuh4gUA8Q6fkAgaXMqLtRCqBXIIQQQggh10P6dncO+unbVyHsITxEJuJDKQPEECHb8NwUBDqYglz1z+gO1rBm5Q7EfIhuHyAqQhAf0vXVgWG3uup3qytc1SKEEEIIGSfpL6+L6bvXddhCfAjpK6UWIdoUBE7cFMT1Mbr9p4T2a1i8A5EBItUDBI4KEFgduCK6lZV2t7xShzxkJ4QQQgj5P6S//lCEdcRHG4qh76AMEC1CcjAFmfY1rNw+x2v/H4g5QKDxEF0PEKgHSOa5AIHlf22frt2un5ZuMUYIIYQQQkaRvt8rwjpsIz5EpgqQERFiWMVyMAVxcIzuYA3riYM1LAd3IHYfElofosOS8oIA+ThCECACATKwDeunq4wRQgghhJAh6W/7c+n7Nz5sQYH4kGoBcokpCMztFMT9GhbvQOAFAeLmDsQcIFI9QJSrcOVmG/qQNyOEEEIImT3S3/c9GCJAxFDEh3TPECETMwVxcIxuXMPic7zO7kAcHaJXM/UAgecDRHrbGxhCv0AIIYQQMs2kHw7mYQB7iA8hVQFiiBBtFeuyB+nmKYjFvyAWx+g5WMNy+xzvY+mYAsTiDmTSD9FhWXlBgKgIgZ1bXq9z80YAFwqEEEIIIdNA/4+g2P9wWIcRFIgPpQoQLUJsV7HspyAzsIb1zbjWsHgH4uwQ3T5ABOIjM+p4y/XOjWXeixBCCCEkf/TDIw/xEUIxEPGRqQeIihA3UxDz7+j2x+j5X8PKyR3IFB+imwMEjggQaAgQgQARCJCBYWd5iR8eEkIIIWSy6f95VIQNxEcEZXiMChBoXMWSupmCHEqnag0LAQL1AJHm/Q5kNg/RzQECRwQI1ANEigiJOktLDcipCCGEEEImKTyOPRhCgQAR/VBpjBD7Vayxv4iVBFKLY3THa1hfWqxhjfk53kYmD9Gdv4SlBwg0BohAfEgXF8POJ4ucihDyN3tnrhxnFYRRPYIeYR6BYrfB1mjfElJnCqkigZQA6w0cEg6bFtuA8CJk1v9RJhwpUshPdPlmOsClYdT8df+ZniudU3Ue4tTt7gsAADHUL75brJ9/++lfz77py6T4MBtESPgryNdZryDhY1jln+MN+JDQX0SfRYDIgEtY+QEyUhHSv9jd3b/Y2eWcLwAAAMwkPDqyJy8VIGnofwTIxAjxR7ECXkGmt4weO4bV/h4Ii+jOHkhxl7DGA0S6ASJ3kwJkaO9ie+eNBQAAAID2w+PgI1kpPNLrToiQjFEsZyE9+1+QvJO88WNYN3sPpPxF9OIvYU0OEDkeIKYipLrY2mE8CwAAAPKoTw8X65eHe7JfvzxQcJhjEWIB0iRC2n0FOTILWEYPG8OK3wP5TJayiO4HiGz7EtZMAkROK0CSAmRo/3xze08yngUAAAANwuPno8X69GhfAXIpkwJEHpgWIE6EOKNYAa8gGSd5ZzeGpfDIH8N6KAP2QNr/kLDIRfT8S1j+KV6z3VO8clKAyAYBIhUf6Xxj+1Lun29scT0LAAAArguP447ioyfTyFOpAHEjJH8UK+AVJHIMiz0QZw8kfxHdDxDJJSwvQOTEAJGTA8QiRG6l8/Wt3mBtkxABAACAf6nPjjuypwCx8JDXRsiLjAgJeAXxl9HDr2EVvwdS/iK6fwlLBl7C8gNEzuAUrwWInBgg8mqAJAXI0N5gdZOFdQAAgNtM/epxV1b12eOkADGvRsipaQHiRIgzihX4ChIwhlXiHsjnzh5IOYvo5V/Cav8Ub3yAyFW5slkNlje6CwAAAHB7qH95ovB4UsmkADH9CJn6KFb+K0g7y+jlj2E9lLdxEd2/hCXnOUBku6d4FR/TO8XbPEDMFbm8MZQQAQAAuOnUvz7tKj4qmUa+Mi1ATAsQ0xnFknPzClLAGFbAHkjch4T5i+jlX8Iq8BSvHyByUoDISQFijgeI7Molhcj9dUIEAADgZoXH913FRyWTtPjIiRB/FKuNXZCYZfT4Maz4PRB/ET36R/T4S1ifOJewAk7xhvwF4geInBgg5pK8vz60GtwjRAAAAIrm799+6Co+KpnMp6YfIVMdxcp/BYkfw1KA5I9hfWlOdw/kC+cVpLVFdC5hTe0Ub1F/gTQPkO4oQMx7Q9cqSYgAAAAUFh4d2ZMWHtKLkGb7IIeytVeQ8sew4vdASlxED7yE5QeILPcU7wMzO0Dy/wIxmwdIGnwoP1CI3F3jfC8AAMBch8fvP3ZkTybFh5kbIf4oVsNXkK9kq8voM7yG9UgG7IFEfUiYv4gefQkr/hRv+X+BtB8gdglrcoBICxB5d2SPEAEAAJi38PjjZFHuy6T4MBtGSP4o1uxeQfwxLPZAAhbRAy5hOQEiizjFGx8gcoqfETYPEPl6gMg7q2nw/uqjwXuriwsAAAAQHR8/DcPjUibTiZDG+yDHZvwrSPwYVv453un+B+Ivos/xJSxO8Wb8BVLGZ4R+gMhrAyQpQC7l/uDdFUIEAABg5uHx57M9xUdfJvNEuhGSO4oV8AoSMIYVsAcSsIie/SN6/iUsP0BkxCne/AD5ODNA2v8LZL4DZOn/BoipAOkP3l7ZWwAAAICZhEdXVjJJi49pRsiZmfcKYgEiyx/Dit8DCf0R3b+EVf4p3vi/QOIDxP+McLYBIq8GSFKAyOVKcjELAABgKuFRPe/InrTwkGMRYjaNkKhXkLAxLP8cb8AeSMk/ovuXsAJO8cb+BaIAKeAvkNDf0JsHyJ0rAfLOKEDMt5ZPBm8us6gOAP+wd/a4TQZBGPYRuAAoQPgTf6YkcRIjSprcAMqUKejxBVBOkAoJgSgixUkINIn5LX0EV19aS3Rxs7xhOpxhWO9+Hq/zPtJziEe7M0MIycXp8W4HDv/EBxQlRCJfQrxfQfJ/w7KPEtY7B7ItOgyi13kRvYhVvP63QHiMMOM19AkDBEqABATIEHYg50MIIYSQSTntdddPj7sDGBAgYkSEJH/FOhSjX0G6YsQwuuM3LP85EHsQvYBNWN6reO1bIDxGWFqAtGIDRDx51B6cNNvrDUIIIYT8P6NedwEeIUACFI/F3BGS/gri/g3LeQ6koIvor8UCVvE63AJxO0boHyD+19D1AFmeKEDCSRM+bB9BfssihBBC/sXoy96lUW+vA4PYhUqEwJQIyf8K8hamf8PynwOxAwQ6DKLXvgnLYxVv/bdAXk7hFkj519D9A6RdS4CI99c6J/fW+C2LEEIIGY+P/TYcIELCmXVHiD2QnvgKon/DqnMbVtociD2IDhMG0V02YdkBAmtbxet/C4QBwgBZCwiQAeS3LEIIIeSM0deDBbgDAwIEikqIxERI5leQ9zDjMLr9DcthDiRxEN1/E5b7Kl77FgiPEfpfQ9cDBOoBAuMDRMwdIFAJEPjoyTkBAsWd6u4qv2URQgi50PGxCYcwiGJEhDi9gryDxjesEudA3oi1X0S3N2E5rOIt8BaIfYyQATKrAfI0IkD0Y4TxAQIRIMPqzupmgxBCCLlIjL59bMIjGKCI8FBCJHeESHyIDt+wJEBgSXMgDpuw3Fbxpt8C8Q+Q9Fsg/gEC9QCBaoBANUDyX0N/BtUAsY4RegVIQIDAlX51e6XZIIQQQi5AfHRgUKw3QuxXEHsYPf0bVp51vB9EhwBx2ITlsIq3jGOEsx0gGwyQyQME1h8goboNb610GoQQQsh8hsdhE4HRh0FMi5DxwfRdmPkVxP8blusgevomrPoDBDJAGCDzGCBwWgECb64MqlutdoMQQgiZo/jowHC+dojYETKVVxD7G9a+6DIHkj9AoMsq3vwB4n8LxPkaenqAQD1AoB4gUAkQqAUIVAMEqgEC9QCB2QMEqgECPQIE/hUgD+wAEVuhutHaqhZbXNlLCCGkXEbfD5uwD8O4RogYEaJ+xbJfQVIDBMYcJXSaA0nfhOW7ijf9FggDhAFSZoDA+AAR0wMELrYG1SJfQwghhBQZH586MOjqIWJHyJ5ov4LU/w3rQDTmQGLvgZS3CWtbLPYWCAIEFn0NHQFiHSPUAgSaARJ/DX3jOQNkVgLkflSAiNeXtxqEEEJIIeHRhH01PPQYiY+Qnqi8gqR+w0qfA/EfRPdfxWvfAmGAXLwAgXqAQDVAoBogUA0QOPsBsjZzARKqa8v96uoyN2URQggp7NXjx5hxEaJ/xUp5BSlgDsRrE5ZDgHgeI0y/hs4AKTxAoBYgUA0QOEcBclMLEHj1zCVuyiKEEDJz4bEAj/Tw+AxFO0bsCLFfQXZhxm9Y8XMgvpuw/G+B+B8j9A8QqAcIjA8QUQ0QGB8gIgOEAWIFSKgWlvrVlSVeUSeEEDIT8fECDsfD47NlWoRIgMDc37DsAIHRAQKnuYqXAcIAyRIgMHuAQAZIbICIeoBAPUBgngAJCJAhfNEghBBCnDZcXYI7EgxKfPzUHAsR5TtWzCtIF6rfsOqdAzkQ0zdh+a/ijT9GWMI19FdwsgD5xQCZaoBALUAgAyRzgMDoABEvP96BXNdLCCFk6ut1B+PxoYeHHSIJryA9MSZAYN5B9PybsBgg8xkgUA0QyACZ9wARSwgQqAWIRMgAcl0vIYT8Zu9+XuOqwjCOz58wu07VRZfFVUCTaXBhoUs3/ROydKngwpX0LygIrlx0CCiNUhmwqVEU00JLWtSOCG78NW0TcTl0Ec3E6PG5PTAkPX05k+OZm3vvfB94dllMdufDed97SEmPCgoHvsHNRwCMv7e+DHp8hNgAUa0xrJQ9kIRF9DW1Jp/izf8YIQCpBkBUEyBq+QDxrTdA1OoBZPkpgCyeKEB8n19mQZ0QQsis4LHRFgY2VQ+D4PYjDg8bIsZOSMIY1tjXBIiaFSBq6qd4Gw0QNQEgsdfQAQgAqQZAVAAyAYj63LlNlZEsQgghWfFxXh15DHiAGKNXBj7MGrcg5i5IfA8EgMwjQFQbICoASQCIagJEBSAGQNTqA+TF7AApOlIZySKEEJIFH5dU5/s/bj/uxm5B4mNY+fdA+pNm/RTvDd8ZPEYIQEoEiApAAEhWgKjVA8jZXABRT3eLMpJFCCEkLTrct3XQ31TdcQASwiNo8DfhGBYAKQsgKgBJAIgKQABIZoCozQCI2znd3VQZySKEEHIsfCyow+DQH4xfTQuQryaNAURNAYgKQHIDRAUgCQBRAQgAmXeAFB1td7oLLUIIISQWHehXJof72QBEBSA1B4gKQAAIAAEgFkB8BRD3qNN9o0UIIYQ8Gx7rbbVXHOhnCpD4CBYA4QYEgAAQANIUgPj2HnUYySKEEHIoOrifUQf+IG8AJHkJPboDwhI6OyDsgAAQAKIl9AYDxD3sdAfqmRYhhBCiA/t5dVQc3gOAqCFAfBPeACnhK1jXAQhfweIrWAAEgFQRIL6jB50lPtVLCCHzHB3UV1S3r04JkPgYlm/ud0B4iJB3QHgHpHSA8BAh74BkB4gTQIqyF0IIIfMYHdB7qnsGQLKMYakxeKTefsQBchOA8BI6L6HzEjovodsvoZ84QNyws9RrEUIImY/oMN7WwXyguhAgvtMAxL4FCTo1PjxAsi2gq8b4VVaArNkAWbcBInzUAyCrNkCEDxMggkcSQAQPGyDvAZAkgLwFQHIDRPgAIAkAETwmHfoOVJbTCSGk4fhYUIeqCwCSPoZlIyTeOD7C8assC+iquf+hGvsfBkA+qwpA3rcBchWANBogb1cQIK/XGyDCR/UAcu4pgLx8MgARPEyA7BwHIL5DlfdCCCGkidHh+6I68gfyowBJH8OyEaLG4WHjI238KsMCen6AfGgCRPgwASJ4mAARPABISQB5PAuAXDIBIngAkLkAyIU6AOSVsgDifussjX7tLF5sEUIIaRQ+VlRX9ChA4mNY6QjxEAmbjA97/Cq+/5HxC1gWQK7aALnua+x/lAYQwcMEiOCRBpAraQARPJIAInikAeQyAKkKQIQPEyDChwUQwQOApAHkVRsgZysDECeAFGU5nRBCmhAdtnuqCwCSOoZlI8SCiN07Nj58N/KMX+Xf/0gAyAelAUTwACAAZGqACB8mQAQPAFIVgCxfsAHyUmMA4n45tchyOiGE1Bce/bba94ftQwBRA4Ck34IECDFqoyMdH8b4VfL+R6YvYCUDJOENkBIBInjYALl8BCB/9vV/3fjId33Njbe+dvvf3Tnab2/7/vCNO/j94XTdKfrgScff33Pje7cm3bv1hdv9ZNXtXlvVb3nXAMg7JkCEDxMggocJEMHDBojgYQPkzSSACB4mQIQPAAJAygXICzMBSNH+z6cWWU4nhJAa4mOgughAYrcgCTchBkRseBj4MEevYrcf9vhV/v2PvJ/gzQ+QhFfQbYD89an+n8+vufFtjc8N7rr9H++7gz+2n/Tf8Z6rWv55PHIH20M3vr/l9m5uuN2PrwCQOQWI8GECRPAwASJ42AB5rTEAUasBEMFjUgFk8BMIIYSQekSH6QV16A/YhwBijGEZy+j2KJaNkAAiqo0OGx7l3H7Y41c5F9Cr+QleGyD67f+xdzcvVtVhHMD7E2bTtCgoIywCiVFb+dobSBK0VSoMxNwltAlCXIQQqUE7M8hNY2MGWWa+5GT4ykh5dRzfzVGZTExmHEede+feuU/f7g/OYm5fOPPMb869Z+b7he+uaWRW58PznPN04G+Iv/HpLitfOWejt/qsOjRoUymVG0DJH8fswfavBBAvQBJ8cIDcWf0OB8hKDhDggwIE+KAAAT7yDZCFAsgYgBgA0ovqC1mKoig5wMcAmjxkT3gKwhHCIEIwQtAxMXz4px/+9atYL6A3FCDFPd9iNarTyt0nAjLu37PpmGpx2EZ6TmJtrD3AI0uArOMAATxcAOlnAAn44ABZI4DkHiCzKUAADydAZjQYIKEDlx6bK4QoiqI0Y/Dw/CZaw0fS8U1BIiCEQIR2Twp4pFm9ckw//OtX/vc/sv8CVu1ni50/WvkM3rW4esFG+++YQla27g5Y6WinDX3+sQAigKQEyFIKEODDB5AFAkgCkKRzB9AVjyiKoijNEzwwr0geohOA0CmIbxWLI8TTePjg049GrV81CiC1ny0e3GXlnt+t0tdbm2oovqlI6UgnOUJIAAJ4UIAAHxwga3wAAT5QdgU9OkCADg4QwIMD5G0KEMCDA+RdDhDggwNkOQcI4DE9ANI2BiCzUgJk5hiAPN1UALGL/1UIURRFaR58oJYABKUACSUA8SMEjQsPPz749CP79atJfwG9+Bv+FoXjVum9JGxMykSk3x5s+1IA8QLkPQFkQgCZn2uAAB8cIL1OgFwI1a0QRVGUxuJjx9bkoRl1TEG8COEQiQ+POnyQ1avo0w//+lX89z+G8XOl4wesfLnHRm/fNCW7FI8cmDBAAA8XQAZC2Q0QH0A+EECyAgjwwQECeHCAvJoxQOZTgAAfzQWQUN0KURRFaRQ+UEPrAMIRsjPtKlZ6hASIsKYER3p8lBz4iDD9yHr9Cr9rB+5kHLLKtctWfTBkSmNTuX7VcFPEcYQwbwBZ2TwAWcEBAnhQgAAfHoAAHxwgwAcHyOs5A8jzYwAyMyVAnmwqgNj5ViFEURQl0+CheCuaPCg7piA+hPghkh4dAR4OfKRYveLTj4jrVy6A4Pd8F75IdfO62UjJlOZ8N+RB+5b4AAn4QF1X0FF6BR2ln+AVQBoJkJedAAE8kr44dQFyOR1A7FzrHCFEURRlsoMH4ZYEHwlAyBTEsYrlQ0g9RFAHOjg8OD6cq1d8+pHy+KB7/SoBCP57G+n61SrXr2jCkbMUD//iBgjwwQGyNt8AATo4QFZxgAAe8QGyLJRdQUfZFXQOkDe8AFkSHSCYflCA3GxbTAGC9SsfQJ7iAAE8KEBuTD5A7GzrnIOoDhYqiqJMDj62t6CF2sPwvqR8ChLqnYLwd0LqIEIwkro/MXg48JHB9MO/foXf+33tc7ij/9wyJe8rWX/a4KZ1nk/wxgfIhxQgAIcTIO8LIJkCZFFOAfJ4EwAktNAjhCiKosQNHnxbUOBju1GA8ClILIQ4IEJK0JECHg58xJp+uL5+hX//btzfOG/VwX5Tplaqww/t/tebc3oF3Q8QwCNTgAAfHCBvJaU3QFByAyQuQIAPASQiQC5xgAAfdQCxHiFEURQlXvCwC3x0FGoPv3tDHVOQmAjhEAkYcXRXHTyyxAdK8OGbfpQO/Vw7+ld9eN+UqZ/iof0NPkLoBwjwgdIvYPkBsloAGfMJXg6QxRQggIcTIC84AfJMjgEihCiKosTCxzcteNgFPjosNAEIWgeQGAjxQiRghJVjI2nJCw8/PmJOP4COPULHNE75GlayNqwlN0DyegU9PkCAD5RfQUfJFfRsAQJ8NB4g8xwAqbuCng4g9VfQcwsQO9M6u4AKIYqiKF58oIXwwBsAQqYgWSOEQ6S+HBwUHQk8vPhwrF75ph+lw3txBFDoUCw5XDi05TPyAnp+jxCi9P0PlF1B5wBZmW+AAB8cIEuSkiOEDCCvOQHykhMgC6IDBPhA2RV0DpCrToAAHwwg1g2EdAshiqIo40txd8AHaqEdRqYgjlUsN0I4RAJGOEgoOAg6CDyi4yP93Y8EIPg3WPncSasODpii/F+G9/0Q5wZIDq6gxwfIMpQeIUTpEUKUHyFEYx8h9APkFRdAyA0QB0DC9CP02dQAATxyBBAhRFEUZbz42NaCFoCQgI+kCUBQOgWJgxAOEQdGSCk6HPCIhg8+/Sh3d9norT5TlDQZudBjg5+ujXEDZFoeIeRX0KcTQNIfIeQAWcQB8hxKATKPAgTwoADpS8pugKBk/YoDZC4FyFkKkKSF04+2CSGKoigIDV5ibkELAIjVAYSsYmWFEA4RDhJejg4Oj+zxUTq6zyp9vWblEVOU8WZ0ACtZX2xq1A2Q6QeQ5aHsCGF8gCxF6Sd4xweQhTkEyBO5AIgBIIVTQoiiKArBx6524KO9AIAAHyhBCFnFiocQDhGGkSjl6ODwQBk8/Pio3erosuo9rVgpcTK8dyf5BG/mN0CyP0KY/RX0fANkgRMgsylAAj44QFACkBlTBiB2SghRFEWpD+5FtAAgBQDEQhOAoHQKkj1CAkRYI6DDAQ8XPuoBUjq2X9MOZdJSOnXCBj/5KMFHPm+A+I8Q3t24PnTDevw/V9Xho8EAAT44QIAP1HWEkAOEX0EPne8ESNsYgMxKBRByAyRTgAAeHCAXnQABPgJAhBBFUZR6fKCFcLguAUhotFUsjhCUIMQBEVYODQ88ouKjfOaEjfbfNkWZ7FT+/suGNm9M8DG1boBwgPzL3t09R1XfcRzPn+CM8bq9sNM7kva61nHGizrVls4406lPk1oLMqkUpoqNPPiAKA6VJyVaICwhBiQQgrYqjLg1IiYQktU0UYwJCU+RZLO7Z58f2Y/fnN9wZmH7nR5/HA9nd7+fmfcdkxuuXrO/3/mFW5bjypUixZebmkT2y9FrSvYcRPLQASS6u8yimzbAWPecVWhZs+dfQafYRwh5gNztIkBsPEKoARDCh/cAogoEBCEymUxmAsRHgbIAorJ9FMt5hPAQ0cGIBjq04WEPH/7DKIyPyudzZTfl9fRUz159gLRU3hsgibc7FDR0KxRslb/8LbIjw8j+dxgZKvnvfyHe9bZq/z5EnluNyLPUmlWYW7LIJYD8ygZAdF5B1wKIzivoqh85B5BJTYCc4QGCER4g+Py6CCD/qZPJZDLBx1soifsVxC2EaECESQMbDDwcw0f2+PsoXJqCTHazlw2cvIoPjU/wNlfUGyC5c1OuAKS0wvcsPfwF0l+oEu8cRnxvJ+KdnTA2b0K4pcVsbulSG48QagDkTg4gmq+gN7KvoOsB5MccQDQeIfQGQDB02898dTKZTFaLS7+zx5d5twNlANE4isXeB+ERovNrCIsR5+vRgAePj9zAx3LMSubBI1kXEdv4PMHDA5/gpfS/gMUDJPzMchSLRa8DhC+fN8tfV84wkA4EzBJHjyK2p8PM2PAPhJ5agdCTK+iXlPv1X0H/hYKHFkAaHAWI+6+guwMQDN7WKAiRyWS1tfThdh8BBCZAGIQwR7HcRgiDETYnwcGjQ8XBwyo/MiDwkHn+SFZy707XPsFL8HD1E7yJ/R1VBBD9UoNDSFLx3uMwdrXDaNuN0Mo1mFv6N8w+uljzFXRK4xV0FiC31xxAMFgvCJHJZLWDjyYKFAghDEA4hOzTR4jKPkJ4iPAY0U8fHqoyeBRTSchklbKM/wOtC+j8J3i9AZD8+SkBiArZXF6VzbGlvjyD5KlBxP29MLb7zEJPrUZwyXK6j/JA2QV0PYDcYQGEeQXdPYBovoJOca+gf0+AmC2rk8lksurGx+4mCqUA4RHSqXEfRAMhDkCEchIcAg9ZTS5/9htEX3zaU5/g1f8ClnX8SgDCAsR+mWzWKh0KI9E3YGa0tsHY1oa5Zc8g+Nhfcfme35cChHuEUPVT2wAheFhxr6CzADnHAwRnNQFC+HAOIKqmOplMJqvGpXt2L6RgAURlAeSHQgilgRALIhoYYWKAYQMdAg9ZTR3Jim17xekvYLn/CV51/EoA4hxAystcLXNNaSoVDCF+4pRZZOtOhLfuwOwjT2D24Sdu9BV0FiAXPQKQYR4gCDAAOT2fIEQmk1Xb0od8jYSPiAIIgxD790H0EaIPEV2M6KJD4CGr6aXe69a4/+GtT/DS8SsByM0AiJ3SGcSPn0Tsk35EdnQivHE7ZhetwMwfmi2AVOYr6PoAGahvjFCNdTKZTFYt+KAUPqgyhHBHsfQRQmkghIcIjxE+PWzw6BB4yGpqRSoz1A9j7QoPfQHL/id4I2tXguAhAPEsQFSpVJot1ttvFt7wT8ytehUz9y+hxxB/5/Ir6M4DZIgHCE7VN0QoQYhMJqvspbt33UL4mKRgVoaQdhcQQrEI0YcIjxH9eHSocgO9KMYikMmqHyCq/PQFxF5bz1xA994XsBRAHkbq2BEBSEUChC+ZTEGVROz0MKL+zxBa/waCf3kWMwsXMwDxwCvozP0PBiCgJil5LV0mk1UuPqgApfBRghDNo1g3ihANiDAYYXIYHFbZvmPyOV1ZDQJEdSWdQqJjO3MB3ZtfwCoEZwUg1QsQttjYBAyCSfDlVsw0r8H0bxc58wihmwBRBQQhMpmsIpfqbusx8aEqBYiXEKIBEQYjzicvl8sEICWlP/U7fgHd+S9gWcevBCA1CJDE9SUSZrGvxxH56ARmXtqGSw8tx4W7HmAA4uobIDxAVD11MplMVmH48FEoA4i9o1gOIET31xAWIi5ihP6e/zAKE6NAPgeZTAACq9zZMRjPP+npC+h0/Ko6AJLPC0CcAYhVPH5t4WOfIth+ENNPr8f53/wZEz+5y0sAwcn6BnmoUCaTVcZSB3c2ET6gcgAhhA43EKLqcgAjLFLs/Du5YC6TKWywFcIhxLa8pHEB3QGANP9/gNDxKwGIAIQFSHlxs1hMFfnqGwQPHcH0utdx7sFlGP/5vSX4cA8gJ1Xor2+QhwplMpnn8bGQgpn7CKFsIEQXIjxIHCnb96Hc85DJWHiU3wuJrl/trfsfj88fv1oFAocARACiCZDyoioEPzyO6S0+TD2+EhP3/cmxRwhP8wBBvwp9tzYsrJPJZDIvLnVgZyMVMfGh0gCIAwjR+TWEhwiDEcdQoo5bnRuD7IZHgAviyswl1eWL/zNZNQBElTnd5y2AqONXAhABiNMAUUVjJUXN5voHMe3rwvm1WzF236MYuf2XNt4A0QJIpO/WBfJ5XplM5q2lunbcQk0SQHAdQFxACKWDEB4iGhjRKxc4Ifc8oL/ChUlk+/z0f9WF1N5WVec2WL31uqpjvtfMknu2ItmuyhzpNst93o/86BAK315AMR6FzGsA4SN4eOoCOh2/EoDUKEAS7gPEKmJYIXT+Ei4f7cXU2i0YX9yCM/f+0cYjhDxACB9QLZik5MtYMpnMUwAJUDBzBSHO/xpiHyIWRrRRkv3kPTlupbliIoZsvx/pg7sIHG+oeHxYALHwoQCi2r2lpM1I+ObbhGRnK9LvHyAg9qEwNS4o8TBAopvXeeICOmUdv6o2gOS9CJBMtQAk7jBAVIZhmEUiBsIqzI6cwfSRjzHxwmZ8vejvGP11U9n9Dx4gC64WqJPJZDJv4GO7j0IJQH5whDh/JIuHiGo/AxIOJXz5rwLyq4cmPDL+d5Ha96ZCh1WrVRk+2F8/VKX4KAVIYtd8G1Vt872K5P4dyPR+gPzYiIDEQwCJvbnRwoc7L6DzF9Dp+JUARADyHXv3ttvUEYUBOI8QiRfIE1AegbuqfYg29/QOVeoJCKdyJhRa2hB6QIhCRBJahZIABasiQCMVwqnQQEnUptCctxPsbO/tw+qyp4yMrCE745ntsf3/0n9rRcrNfJq19rgKENn5Be+VTt9/RM+GEvRkayeNbdxO999+l26/8aYKIHRjzVp8GQtBkJrjo51Lot3OIkQNET2MqEGibnD9Il4x10ghDCi8fZ2WzzA8Tosq8KEGiMTHircfrwLkawkQ0eP7ZdNnjpXGv3ITTwipGUAcWkC3Mn7FzQMgAIhoGT4MAkR2bn6BROdlnw2P0OSFqzTWcZDGthygO2+9Q6Pc62vW4stYCILUCB89Xeu5Ah8KhCgAYgohmiNZWhCRGFGDRN3ckweErDqlZXJ/4JTAB7dGtx+VAOneR7LHit1L/qVzlB27T4UgQ0g8AMk+mzS6/6EPEDl+BYAoGloDSAYAsQcQ2dm5/zs7V+qM6PoWBEGQOMOHwTbGh8clXYQwPOJHiBoiq8aIBIm6uPWoItmxewIdEfChWDy3dftRhg8JENGuPaX6F/sp+8c9YMQyQFI9J5zZ/+DxKwAEAKkJQJK1A4jHbWtBEASJCR+t3FGuwEe8CDF1G6IBEQVIFDDJPrxNiF6CkYSEh4HRKyVABD6qvv2oAEjqq92y/mAfZcfxmWXTAMktzEl8qPc/4nsBncevLO1/ACDGAeI7BxCGhh2ALFgDiOwoF1/GQhDEfvgg+K04GEYGiCsI0YKIwEj0BokBys9PE1IFPnq6JD60R6/iv/2oBMiXoi+O7uLf6aTM8GXKz04RUj1Alro6ndn/SO4Q41euACQHgBgHCMMDAKkAiCyW0hEEsRs+/LUvn5YHw7gRwtVDiBoiZjES3rpGFOILV9bxof/Z3RhvPyQ+yvppqeme45R9dJcKGZ+Q1QMkPXBWwMOR/Q8evwJAVmgYNiFAUinnAMLQsAEQmp6ZxVI6giDW8LFOHgIdQIh1iEiMqEEie6mPchNjhFjAh3r0yujiuajEh8nbD4kP2S92lprqPkD+zwOUX0oSwtF4/dyF/Q8ev7IIkBwAYgkgDAsAJAJAGB5RAFIsXkpHEMQ0Po628gFwogwg9YAQXYhExwg3uDZIhUUsmleT7IPfFPgwMHrlzu2HxIfs5ztp6ciOUtP9Jyl8eJeaPQVSN3z6mLwiPriu7H8kd24qIgMAcQAgMS2guweQpDMA8bjYB0EQxChAElx5EIwdIeq9EP3bEH2MyGbv3iQKA0L0k595rsaH/uiV67cfjA8JENHD20tNfXeYgpFfiuNZAEhZs88nKdmxUeCDG+/+hxog/pUhAGR1b4AAII0LEO5MogVBEMRE+JDXUXb4q0TIGYMIUb8Ton8booaIPka4uclxQqp/ZJD/nyb3Pswvntu//ZAAEd0m+tk28i/9yED7t+kBkveXaXHPJnn74dL+B49fASD2HyEEQBwACMMjCkCK7WhBEASpEh/r5WFPiRAVQOJHSHSI6GMkuPIDFRYXCKk+wfBFDXzYHr2yf/vBrbz9EJX4kD20ldK9Jyj75yNq+CjwsXR4F3kfbIg6fsWNdfyqMQGSzQIgZgHC0IgHIMlaA0QUjxQiCKIXPti1cj1x4NNHiMSHPkJ0b0OMQyS8cRkjV4aS+2fC0N6H7uiVY7cfsq/iQ7azg/+2QxT+PirGs5oEIOmzJyU+LIxf6QPE/vgVNw+ANDlAFiMAxHMTIB4X+yAIgmgBJMGliABxACHaEImEkeydG4SYi3/+exU+7I9e6S+ex3z7IfFR1i38G7souJmg/KLX0ABZPt9L3ocbBEA0x6/UADE6foVX0AEQ5wDiWQLITDSAYB8EQZDVhw91HfKAFytCbNyGSIhoYyQ3+ZQQo1+9qg0+1IvnLt5+KAGydLDYzbR0YDP5Q/0CIg2Gj8ytXyU+tAEi8WF6/0OOXwEgtQBIBgB5PUCSjgCEO419EARBIuPjyDquONzVNUL0ISIxMthD+Tm8XG188bzvGwP4iPzgoMbiuTu3H9xKfEiAcPdvKtUfFBBpBICE448FPspuP7jRx6/UADE6fmV//6MxABI2AUBSlgHC8LAKEIaHFYBMTRWLfRAEQVYIH+JauRMSIHoI0V5M52ogxCxEuAIgl/upkMSyuYXbD7v4UI9emVo8d+X2oxwgDQER+bndre9XAETio1af31WPX+EV9JoBJFPnAHlhFyCeMwCZmJrCPgiCIK8JH97OvTzQxYwQC7chEiKrxkiQGMCyuaX4A6dM4sPu6JX7tx+V3fdJqf6FPson6woi4nO7ezcLeJgZv+JaHb/CJ3jr7hX0egfIomWAzNsACHf6XAuCIIgCH+1c4kqA1B1C9CEiG45cBT7sffkqKj5M7H1wVfjQXTy3f/vBXen2Y2WA7P1Y1v+pl3J/j5PrKZQ+t7ub4fFePYxfASBNBBCGhy5A7L8B4gBAGB5RAFJsewuCIEh5+MDWxvXEQU6BEAVANBCitReiD5HoGAlvDRNiL8G1odjxoT96pb14rn71XP/2g6u8/VADZM/LfkTp092U+8tdiKR7T0p8ODB+JaoevwJAdAAShM4AhGFhFyCpVM0BsuAeQDxuWwvyH3vn0xtVGYXx+QR2/AYsC7ro1p3hAxg/g661FUQUFUf817CpiVT8k1QrxY0galJbwKSpbgTBhvoHta1FrdA2yAxmmnbaDq9neOXkNtfXmx7umXvu3OdJnu0s5m7eX87znANBUARAJvjxpgkh4XK6fBoiBxHAR3vL5+nAh7z3oRG90u9+yKcfDB8377j/GbfyYQtE5pwh+XW7B1rwQdaNX5FTi1/hBghW8OYEQBg+lAFkOQlA3LXFpakSBEGQh4/XK/xwiwGIRQhJH0Q2Z39wkK42f/0pAB8avQ/RwUFZ8dz+9IPhg/3a027l+DsmQKRx8WuGjzbGrwQAwvErAAgAxA6A1JQAhOEjZQDxxmpeCCq66JHWQ/aRFTUIYSdDiD6IsBk+fptxkL4aX44LJh9K8CGPXomL5+wofOhPPxhAovDBfnW/Wxl5221kBCKbV//w8EHOIn5FlsavsIIXAAIASbwBEgIQ8rXFnhIEQUUGkIEp/1jbDoQcsQAhqYDI5hXAR7u0emJICT7kvQ/94rne5iv59IPhg1175SlXH3nLbVyZayN8LLjaoX0MIMbiV97h+BVW8OIIoeAIoT6A1JQAhMAjVQC58OheRLEgqKiix1mFH2oMIGoQIimny6chYRABfGSg5o3rxYAP+9OPEIB4v7zP1Y+1QGRWf+PVkX6Gj1D86obN+BUK6DhCaPUKOgNI1QCALP4PgEzet9udLe8aKEEQVCzRo6yH7B9pBiBENA2RgwjBxy8Oamv/wyp8qEWv5Gt35dMPdnj6wY7BhwcQ75eedPUPjmqBCMNHDuNXABAcIYy5bgpAaqoAspwCgPx+8VILPtwZb1xJh6CiiB5kZfKUf6ApQEjgTghbBiFpgAjgIyPRhjEt+BD0PgTTD/Xiuf70g5w0/YgCiPchApHhdEFk5eSIqz77GMNHcvyK4SNn8SsACI4QZngFvWbgCvoSw8cWALl8dDgKIPOnyztxJR2CiiB6hFX8o4wBhMwA0i4I0QeROIwAPjLS2hefKMAH2QB8dOL0Iwog3nsJRN6MgYgQPry3wgfiV9iAZfUIYWGuoJMVrqDHAeTb3oMMIAQfLSOKBUEFgI8efoylCCFkTQhJBUQa30w6KButfnossGbXJHyoRK/ka3ezm35EAaT24p7brr8/6NYvf7ftzkf9+Ltx+JCXzzs8fgUAUdiAZfQIoSUA+UsTQLj/8dUDD20FEG9EsSCok0WPryl+kGlCiLwXogIijfOAjyylDx/S3ofs4GA4eiUunqtvvpJPPxhAvCveN/sP0H8/6NYmxglIpt3G/Exsy9X6j9MUexyh397P8EFOKp+nH7/qTS1+hRW8WMGLK+iyK+gMIGfv3RUDkPHyTmzFgqAOho8K2bUcg5ChlCAkXE4XTkNksSwy4MOQkuHjDTvwEY5eFX76UWMAecLVXrjjPu+Dvd7P/+vnHmdXyQwfWuVz/fgVCugAEFxBv0sAmf3sdAs+4gDijQOFENRpogdXD5kfYkYgRH0asnbmpLu13nBQdmou/Rnoe0jhQ7DxymrvQ148z3L6QWb4YHv4YMfgw0r8ioBDEr9CAR0reHGEMIUr6N8fHmT4iAFI123jQCEEdRiATDCAZAAh+tMQNuDDIIDwt9eHD73eB5vhQxC9EhTPde9+hAEkPP0gy6Yf+uXzHMev2E1swEouoOMIYU6voF94ZE90+hEDkLEuRLEgqGNEj62+yOMrDCByCIlYAUIEILL68XuuWb3uoOzVXFxIho/hhFW7BuBDOXplffpBlk0/yMLph378iuEjOX6FDVgAkP90HUcItwUgk/fvTgIQ93lXd18JgqC8w8fhHeRq69GlDCGScroaiDSXrzrIDICEyuYK8GG+96G3dtfy9EO/fK4Zv0IB/e77H7gBksENEGtX0Bdm5gIF9BiAVEe7uneUIAjKNYCcIvPDKwMIEU5D5P2QjZ+nHWRHG5fOJ0SuBEcGDcBH4OCgIHqlUTy3P/2wXz7n+BUK6IUvoJsAEAs3QOQAklRA79oCII4A5FQJgqB8ih5VD/JDSxdCRL0Q+TQkDCKNcxMOMgcgFuBDv/ehH70yN/0gK0w/lMrn8vgVCuiFBxCtAnqRjhAmF9DHogDi/XAJgqDcwUeZPE92GhBCjkFIRtMQBpG1sY9QOjcJIOeS+h6G4MNo9Eq+dtfk9MN++ZzjVyigYwMWboAIAERQQGf4iADI/Og93eUSBEH5ET2mKvzA0oUQcloQIgeR1RND7lb9bwfZ0zoBCH13AXwM5As+wgcHZdErefFcfPdDf/ohXr1bkPgVNmABQEQbsOzfAOEL6MkAMhoxAQhug0DQP+ydz28VdRTF3x9AG/4C0g3lPzBx15XujAtXLAxsDGvWaro2EXQjJGoaFizQlmrV2GriI8UWSUTpCgOSFyGEGI0vlB+dPlq+3MmYC8lznLwzc9/cS89Jzl8wm/uZe8/5BoKPKR2q6kFI9YvpeC4EOMsqB5Gd271E+VS2sqDwAdTsOoAPoHIXOL2Cgufuth9iy+2HffgcOL8yzX/Eb8DaHrCCl2+AlL+AXg0g6etJBtIpKoRkkOrqYGUEIeIKCEG3IaODyODKj4lyDSBV4FENH58awAcUOndwegXU7jrYfhhU75qfXzH/wQasOBW8zt8A6V1YGyWAXnhSAaTboSjKt2R4el2GKR2scAhRV0GIGIWQ+iCSfftZotwDCAgfJ0zgQ+wMPhwFz/FXz/HtB169axQ+1/MrAggD6KzgbegNkGunzowWQNftR+GvJg8xkE5RjuFjv7gnTmOGEINtSDWIbH3+Sdr9569E+Va2vKDfHjm5Eg+BhyF8ALkPuHLXKngecfvhKHyu51cMoIMeEEAcAIivCt6Nd94bMYAufgYfuXtLk4cYSKcopwAyq4NUGAjBQeTxbxuJci85kzs9BB4u4QMPnQPbj3cNTq/cbz+AhweB6l08fK7effiAAXQG0FnBWxtA/lSvv3oYCaArgCwVZiCdorxJBqYpcV8HKUsIwcPp4FnWMIhk3y8mKoZw+HjfE3x4Pr0yDJ7jr57bbz9swuebpz/ci+dXQQAkI4DEquBV/3DgJSCAPgQgfTED6RTlDEDmdHhqBEKAcLrNNmQIRLbOfczK3TgCwMMaPgxyH3jlruGL5/G3H3j1Ln5+la2vMv9R09tswPoXPljBm/vOjZt4AF0BpPCXE9NzHYqifEgGpRmxDlAxIAQHkcfXriYqjBqCDwWPiPDh4PQq8vbDqHq3/PyK+Y8oAfQ90YAVv4L396UVMICu+Y/nAST3TIeiKBcA0hWnZiBEXQYhhtuQahDJvjufqDh6cv9eCXhAeQ+gatcMPupW7uKnV/bBc+jV8/jbDz2/Yv6DAXSrALppBW/faQXvxtv1AuhLwwDCWl6KalsyJB0R6+BkACFiAwgBQSQfaKk42rl7u7mTK7WCRwT4wHMf9qdX8bcfePUuz6+ewQcD6M2cX7GCtwRAfj56HAuglwNI+mJi+kiHoqj2JMNRLx+WrCEEP8lq7ixrcPVyosIBiIKHQd4DeGTQAXzgp1dmwfP42w84fM7zK+Y/2IBlXMG7/srhkgD6yPmP5wGk16EoqjX4mBWn3A1BCJALQbcho51lPZqfS0+2s0QFBBAcPNzCh33uw+L0yi54rlb4MNl+mFbvbp7i+RUBhA1YBhW8RQAdyH9UAEhanJhmLS9FjVsyEO0X93VQwiCksD2E1D7L2vnjZqKiAsgJA/hQ8AgIH/anV3jwfE9tP7ycXxFAzPIfbMBqu4L31pWNeg8Q/uf5lQJIX8zHCSlqzAAyq8ORPYQYbkOqQSRbnk9UTA1+vVQFHkDeA2i6AuADbLyyyX3Yn17t4e2Hnl8x/8EAusKHjwas+BW8188uWOQ/BD7UJzsURY1HMgxNiYvBCIAQcQsQgoPIrvxFp2Jq8MulGlsPt/DhLveBv/lhFjxXK3w42H6Un199kMME8x8MoEPbD7FBAD1SA5a6ugFLvNwsgKTz+w7ycUKKGodkCJorAMQYQvBwet2zLHV2cSVRkQFkHdx6GDRdRYIP/PTKPngecvvx/+dXW2vo+RXzH8x/mOY/wjdgXX7jLegBwur8h8JHbj5OSFFjgI8pHYbMIKSlbcgwiLB290UDEBw82oUPvPHK2+mVQfA89vbj72Nv5udXzH+0n/8ggAABdO8NWBdffg16gFBclf9QAFnIzS0IRdlKBp9FHYYMIERcE0KaA5FslduP6Nr+qavgEQ8+nIbO7d/8MAie+91+bH7U2vkV8x8MoMdowMIBxDr/oQAyv+/gYoeiKDP4mNEBCIIQIJxutQ2pBhFuP14AbX1zbhTwQPMehA8HwfNI2w/1MZ5fMf/BALpVA1bvwhqQ/wABpPBMh6IoEwDpilMcCMFBJFt9yt65PkdZnmF8vxa/oEVKTzQFWlsRBUTQABJQzhAQ6XQqHqcFtO0MtHWqONNCtdXKtKSeraeoeKCW6cFCS4RkQSQSEjkGgSQQ0OxuNoSEJIQApt693z7LPVkeX9/de/dhn/flvmZ+kz8gX97f3Nf17DqQBEdASDz4Vw/O2Nwm+TC/++BXrxjD82BcP5oXSv1K9h+2DNCJdAfoSC4G6N4Csu+ZV8zvP5IFJBySSCTZDX7wFCD0IcSREIQkxOguJPNallw/giMgjKsHq3IVRPlg/uAgo3qVg+G5BdcPql/55vldEZALZv+BMAbo1r2AlcX9B+K+/4DVxCC5gkgkWRaQMAJsCfHehZi6hqRTy5LrR8DStWaVJh6Grh7u8kHiQejiwZcP5otXvqle8Yfn9l8/Lvj6lew//P8CFn+Abv4FrPJJt5j6AUK9fkUMkiuIRJI9+VhagNAHkNUSknktS64fAUrnqucMXD0Yew/GL5wz5MO+3Qe/esUYnvvp+uGf+tWp3bs0upAzsZjsP1jXD76AnLB1gG7pC1hl/Ueen/0HMQgc/nqRXEEkkqwEP3bC9OFjREIYImKoluVUdiSBCUc8uHsPkY8HGT84aO3w3Pj1wxf1q66t70PT9+ZA09ybFDfPJuJzkJtmKWYXKmYVQtMtP4CWB5ZAy5Ie3H8/tD74EHS89hp0rFxJtL+6Ek6sK4Gu7TvgZA+6DtTYUr+SAbpPB+iR2oPne/+RkA8HuYJIJBkHP3IKEPXRk5mEEOYlhC8i3YdrQRKYeNStGFcP/t7DJvkwvftgVK9yNTzPxfXDP/Wr9pdeIPlAdPlQkHwQhTMhPrMHM2ZAfLrDdIhP68HUaRCfQkDj5KnQOMlhCjROVMRunAwOjYVzoHnxLxSLFMeW/BraXngZjp/l+WLoKNsEnRUfJKiCk3v3y/7D0C+gmxcQ/gC97u2SHOw/lIC85SBXEIkks+AHTtj52DEgIZxxuolaFomIU9eRBCqMq0ew5YNG5xbsPjjVK/7w3KrrB3KbL+pXzT9eqMmHu4CQfCC6fCiS5APR5UNB8qG4AZmAjJ+kKEDGIddPVIx1uBFiY5DRSH6C626A2LXIqAQjJ0BsxARonr8YWQTNP1oER5GWRx+H1qdehNYnFe0lYTixpRLZBg5dR5tl/+G/AXou9h8kIH+RK4hEwg9+yBTQh467hBC6hBAkIeYrWfxa1pk9VSAJVHIhHiIfmny4/uAgs3ply/Ccf/1of7rI+vrV6YN1rtcPxOT1QxcQkg8SECD5IAEh+UgWkFGagCDjIXZ1guGK6NACiF6V4EpkyDiIXqGIDL4eIpcj33UYC023/hSa5jn8BI7efR+0FD0HLSsUbWtLoePdCmjftBU6tlcH9AcI7R+gV8xdkJv9BwkIIlcQiYQtIGEEMpAQk7uQrNeyPj19CiTByaftx9OoWxmQD8Yzu7bLB3/3Ybx6ZcH1g+TD6/rhu/qV9/WD0K4fXgJC8uGgXz+8BWSst4CQfFxzjoAMTzDsXAEZ97kCEvkO8m3ksjH4F/kWMijBgNEQ+eZZ8iGSh/RXNE66DeI33wMOTXfcCy2/fxYcjj3yDLSVlZ9FBuhZGKBvHDwhV/sPEpBVFw2UK4hEwpCPPAQIXUIQjoQYv4awRKTrnb+DJFjpjn6U6dXDQOUq4PLB333wq1f84XkOrh8+ql/dszCN8bnn9QNhXD9c61cTufUrZLwmINFhBckCQvJBApIsH5eRgJB86AKSr/gG0j/B169TfA35KvKVaxVfHgUODQk+7jcKPkoQGT8PorMWQASJL1kOTY88DQ7H/lECraVbwKEj2sjYfwRogB4n+SByu/8gAYFVvQYODUkkkrQEpBiBzCSEMC0h3FoW0V1fA5LACQhDPBhXDxPyscIa+TC5+yBIPrjVK1uf3dWvH76oX30Si2U0Pif54I/PzdevhjPqV14CMnB0soDkpS4gDS4CciTB4X4jwaH+HA4hB/tdA3VfUhwpnA8Oh5HY754Eh8bHi6F5/WZwaN1XG/gB+sG3Szz3H2tN7j+SBaQ4JJFIUgt+yKjrhwuahDDG6YxdiDER6Sz+E0iCl+7IkWyIh4G9h3XyYWD3EcTqFV9Amu++3Vf1q85//ZNx/bBtfG5L/UoTEJIPIkk+dAFB8VBo8qELSC1Sk8QIOIDs78G+viPgw75XQ+2470PdzB/CoXmL4OPfPgEO0eK3IP7OJgffDtCrlz+V2/0HyQeRF5JIJCkJSDECBiTERCWLW8siToXXgiTgAuK98zBw9WCOzUk+SDy48oG4yQdhs3zwq1f84bnJ64dv6lct9/7MwNO7dtavlHwYqF/lZVq/QtK4fngLCMkHCcjeBNU92NN3OOxOsOvSYeBQPXQq7J9xFzjUP/QYOERWr4FoyUZoLK+yboBeedfPc7//IAGRK4hEklLwA6Y3Qh82XhKCkITwx+kGryHeIiL1q4AG/68kHmlePUQ+crD74FWv7H92l64fVL/iywef/zLqVwae3rVofM6vX9H1w7r6lS4gI3QBUfKhC4iSD01Adp7DDmQ78sGlQxV9FFXI7rFzYc/0O2Dfgvug7jdFcKjoeWhYF3bQ5MPwAD2N53dN7j8Ubyp6hyQSyecKyDIEDEmIdSLS+VIRSIKZM5XvuYgH++phdGyOkHgEUD5sql7xh+f864dv6lcnSzcwnt61fHxOAsIfn/PrVyQf5utXDinWr/YS2vUjdQHpkywglci2PlclUYFsRd7/omL7mDmwc9rtUD3/l3Bg2Qqo+eOf4ci/S6Fhc0W2fgGdsf9g16/0/Ye7gCwLSSSSzw5+vPRGWumDhiEhyPmTEH4ti0TkVJnUr4Ka05WbMxAPw1cP/aUrkQ93+TBRvWIMz1nXD9/Vr44/+nDOnt41Pz43VL8amLP6FXv/QfKRhoDscBGQqpQF5EqiHNmCvPd/hhCbLxkCVVNuhUrkw6V/gL1I/ZoNyHqI1tWn8gvoNu0/SEDe6DWgFZEriETy2QLywJ30IcOQEJO7EO9rCE9EPjkk9asLR0AezrRulV35WOFD+TC/+7C3esV/dtc39avu9jaX6wfr6d0Aj8/59SsUD8vqV0Rq9SsXAalMoMuHLiDluoCQfDi8e8kVsCnBxh6ELx4MZUh5/izYOnke7Fy8FHb/ajnUvP435+Ur+gV0xvO7BvcfJCDweq8Bd4YkEoke/HCpVx8xuoQgDAkxXcnKXEQkgRYQrniYvHoYk482A/JhfHQe/OqVBfWr7rTrVygeNjy9a2B8brp+lS/1K/f6lcv1gwSE5EMTECUfJCAOpQk2XHw5OKx3QPHwqF8hBp7f9dx/kIDUhyQSSXLwY2X22Q8YnoQQpiSEWctyF5Gu/6wGScAFRBePdOtWIh98+dAFhC8fDpp8eFevGL/5wRiee1w/qH5l6fWDaHviMcb1g/v0ru3jc/P1qwbf16+Q7NavlHy4CEiZi4Cs1wTEfP2K0OtXCv36ofjCgNkhiUSSJCBhBEhCFCQhjEqW9SJyZtc2kAQ3/2PvDF7rqsIg/nYmK7tw39f/IP+Hm+6t6EID7rLuKnQhLtTSUjelNdYGXCimVhBES03RxorgSqSlJUWFiinU1Nc+n004fi/qbA4Xr5P75c475xuYfUg295eZ+c4fVz4mwINIPVz2HjDAwwk+iHO73O6DP7krUL2i0w/Ur5TH5/DWC8cAH2Knd4XrV8TbH1XUr8zt6ldwi/oV4CMDkEN77uL8rsP+A/Ax9dVBKBT6W/aBMsSHizSEMLWsZhDZ3folhcrV40ur2d+crFsJpB4u8CE4OneuXvFvfpDDc/MiUb+i4YOvX42/3vB6eJA4vas+Pu++fvVjVfUrc0P9igCQVvUrs+P53fYAsjp/ZOqFQSgU2gOQFXP6Dwgx9wAhLdIQBkRG595IoeoAJAcPvm7VI3wcV4OPvnYf5ib4EEg/ACAzU7+SSD/48bn32x8i9SvAR9Sv2uw/+PqVmTq/m8FHBiAX54/Ew4ShkH2YHMLHigOEOKQhnYDI+JP3U6gSADnTAXg4pB7E3kMFPhxG58TJXcnqVZZ+oH4lOj6H77+y2Gn64X96V2F87lK/Anzo16/M7epXMF2/gpvrV/r7DwDI1HGSN1Q9gCyZUw4hMCCEGaf7pyEciEy+uZZChQPI2ioHHs2pR8CHuU/48K9e8W9+5MNz1K/k04/JndtE+kE8PEic3i1wfN55/erWwdWvzK3TD3P7+pV5v/UrzfO7gI8MQJYGoVDlALJpTh1ByMyAyM7Pd1OocAD58CIBHnTq4b33MAM8ROFDYPeRPzjYY/UK9Sv58fnD8+eI9EP+9K73+Lzo+hXsUb+Cs/RD+PyumTm/m6UfcJzkDdUr+yg5io+VdhBi7gFCmmtZNIiEytfvZ1/PwKP7uhWfevBjczgDD3/4EBidZwAisPvIhueoXwmPz2H7+Rel0o/89G6p4/Pu61c3BepXVZzf5fcf8LvzwzjJG6oWQNbMiYAQh10IkYaQIDJ672wKFS8CPNi6lRd8HC8RPoj3Phx2H1z1Cm5RvUL9Sj39eHLvXg/ph+jpXf/xuXlf6UfUrxrqV/LndwEggI+p1wahUG2yD5EhPlAaIIQYp3echviAyPizyylUvNiqlUDqUQB8SO0++AcH+eoV6lfy6cejyx85pB/Ew4O+6Yf++NyhfmXwIXD9Sql+xZ/f5fcfgI8cQOb2PByEQpUByLL5nw8VuE8IIWpZHIhMbqynUPE6KPBwgA9ibE68cF4AfChVr/L61VsnhcfnsP3ultj0Q/LhQX583kv9ih+fR/2qoX6lfH43B5ALc8PlQShUGYBsmhMBIVwli09DugaRGKDXIQfwIFIPZu9Bjs314UN/95FXr/j0Y/zVunD6gfqVSPrBPzzIn96VGp/r16+eKbF+BRP1K/L8LupXAJAYo4fqkX2EHDXjAyWDEGIXwqYhfC2LB5HdX+MF9ArUGjz461adph4BHy3hgz+56//mB/zysbQ7GsmnH4+vfA74UEg/mh8eZE7vVjU+r6B+BRP1K6Hzu0g/ACDpnbnDMUYPVQMga+aUQYiZ2YX4Q0i3IBIqXwaZBHhQdauD3nsEfDTDh0T1yuAD9SvR9AP+7bVXZyT9EDi96zA+d69fNacfVP0K8KFSv+JfPzez9Sv+/G5evwKAxBg9VL7s42NoxkdJBxAiAiLLrUBk9PapFCpfVrMjqlbEdSsf8OD3Hvrwob/74KtXAJDxl+vy6cfO9vYspB/Ew4Pc6V398XnUr1q9fv60xOvnLQAE8PGvY4weKh5AlsypHYTAvhDC17L+N4g8+uBCCpWvnZ/uOoDHDMLHCT/4gNXhIz+561m9Qv1KN/1A/Uow/RA4vUu8fD6b9SvARwH1K5fXz73O7zYBSLyMHioeQDbNiYAQopLllYbwIDL+9FIKVQEgYuDhsffQhw/+4pXHex/+1aupH545qZx+wNunT4mlH70+PDj74/OoX+X1K43Xz82N9SsAyMpTh2OMHipX9vGxYM4+TLK6BgEhTBriDyI5jEw2vkihKgCEAw9+5+GWevB7DxjgIQUfirsPcw4f7atX919C/Uo1/YC3nn+ugPRD5vSuUP2KHp/DfPpRV/3K3EH9CgAy9cIgFCpR9tGxYsZ/QjMI8d6FEGlIhyASAFIVgGw2QQcBHmzqUQV8EG99aIzOzV3uPgAgqF8Jpx/jjetc+vGsZvrBPzxInt7VH593Xr/6NupXDfUr4vxuln7AK4NQqFAAeWBOBISIpSE8iDy5/UMKla8/v/+uD/DwTz34sTkM8PCHD+LilcDug6xeGXxY/epN8fQD9avK0g/m9G6Mz/dTv7pefv2Kf/28GUAeDEKh0mQfHS+a8RGSQQjsDiE9gAhgZO8/46HyNdm4moEHtfHg61YHCx8nAj7+Yu98Wuuqoih+ByadSeamMV9BcKYgzhx24kA7CUq1DiSpFoRocVShA50UUdukxtrWqmCqkxarSScRhdL0AxQHDiLYpmn+m6R63LmUBeFwea/Ls3v3eWcvWB8gvMn9Za21T+rdB3y4m+oV6lc0fOinH7D8Da8R8GEg/aAfHrRxeld/fO71q4zrV+HMvqFdj1QuV28ByJFp1C66gRC+ksWnIc21rFQg4gBSEoDE0KEIHkTqwVeuiLG5RfjQv3ilf3IX8CE+iPqV5fRj69attOnHC3bSD/7hQeL0blnjc75+BfiwX7/Sf/28M4BM7hvyN0FcvSP50BjAhwcgZI8BIcqVLKKWlRZE/v17M7iKABACPBLVrRRSj8zhgzy3a2H30al6BfhA/cp6+rEycbqA9IM4vSu2d3rXfv3q13zrV3BUv9J//TyuXwFAxP1DA5XL1RsAMjaCj44GCFHchRBpSHIQAYy4igEQHfDg61at7T1i+BhTgQ9xOvjgR+fKuw94D3yIUb8ymn7At18/pHt21376wT88yJ/etT8+V69fAT56q37Fv34e168AIF7DcvUOgMyLwx4IETdAiIE0RA9EXGVo65fZCDpI8CDqVi2kHsSlK+KFcwX4IC5emdl9AEBQv7KbfqB+lTr9AHzUBnzYTz/sn961Xb/6Tb1+BfjIuH4Fd1m/AoDMVy5XD8DHsDjAMYSI1SAkVS0rCYisnf04uEoBkBkm7SDAo53Ugx+bwwCPFuCDOLdravcRpR+oXxlPP9a+v+TpB9IPY6d37Y/Pk9evrnn9ShzVr8JE//5dD1cuV86Sj4wxcegIIXwlS6uWlRxE1r8+E1xlaOPSBevgYWnvEcMH8cigAnykGp1r7T6i+pXl9OO+ePHIaIrhucH0Q/zU81rpB3F618D4PE39ih+fK9SvfiyifgUAGatcrpwlHxbz+OAgIMREGsKDiANIoZLfWgE8qLqVcuqRP3zwF6/a2n0AQKL6FQ8f+unH9p8LDwkfnn4Q6UcB43Od+tWM16/2AMjp/v1ew3JlDR/D+MCIISQQuxDFNEQfRDYvfxdcDiAK4KGcevBj8/zhgxyd6+8+4JWTHz2i6tX/Sj9QvxL48PTDQvpR1Pg8ff3qisLjg4bqVwIgYq9huXKVfFCM4SMjgpAW0pB2QAQwsjU3E1wFAkgMHSnBw0rqwYzNHT7I3Qf8KupXVtMPAMjd98ZbOLtbQPrBnd61Pz5Xr18BPkquX8UAAvgQew3LlTGAzIuj/3gSlSz9NEQfRARAfg6uUgBk0ip4tAMfx6zCh8K5XfXdB+BDjPqV6fRjZ3lZdXgepx8N8PFcBB9m0w9xh/RD+/Ru/uNz/foV4KPH6ldir2G5MoaPYXGAO0AI3O17IXwaogwizTCydX0uuMrQ+sXJGDr4cTkPHnzqob/34N/40IcP/dE5v/sAgKB+ZXV4DgBZ/+kqOzzXTz+esZt+8A8Pmji9a6p+xY/Ps65fibutX8UAcqpvcNdew3LlpSWpX4kDASEJ0hCbIHL/j9+DqwytfzVBpB0K4KGfevB7D4cP7D4I+ED9ynj1qvbSB8eb4UP/7G5z+vGsvXc/4vSDe3hQ//RuluNz/frV471SvwKAeA3LlZfkQ2K2/rjABwesBSF8LUsfRBxAypICeGjVrdrZe/BvfNiDD350zu4+ovqV0fQD9atO1Sv94bm4eXhuJf0QE+kH8fAgcXpXYXxuvH51Vb1+BfgwWr8CgMxWLldG8DGADwpAiIE0hNiH0CASw4gDSEHioQPgoVe34lMPonJF7D1KgA9+dA6vnPzQePqB+lWX1StPP4j0g314UP/0rp3xeWv1qx/yrl/Bn/UNDlQuVw6SD4iR6D+bjxJC+FqWKoi4ipEB8DCQeqjBB8Aja/jgq1fiV15G/YqDD/3huRjnd+++Ox4WR0eJ4XmKs7uefnSAD/b0bvHj8wLqVwIftUcqlysTAJkWR/WKBJUsA7UsHkRc5QjQQYEHoMMAeCjuPZovXXHwcdQCfEQAkhg+ACCoX9lMPzp7e2EhbN68WXtjbi6snjsXVr+sLb/xO/K71m4anqd+dFC8Fz5qAz48/VA4vdvC+Fy7fgX46IX6FQDk077B6crlykH4mCAghE9DiFqWGojADiBlioAOGjzYulULqQc3NhcDPLKHj8NJ4AP1q4zgg/fOTu3te/fCxo352muXr4SVqbNheeqLsHjs/XDnraPh9qE30qYfT5tJP6w9PBif3vXxefL61TcJHx/k61cAkFC5XNYlHxEHxNF/NjUgRL+WBRBhx+rw6icngqsYATIMgAdTt3L4aAc+xB3h40H96lp6+ID/MQkgOw/hjes3aq9c/DYsT06FpeMnwp033w5/vXiQeHSwhfTjSfPpB396t5j6FeAj3/oVAET82BMHKpfLsuTD4XN8UIzDttIQHkToVGT9/KngKkYN0EHsO5TBg0896MqVwpldA/ChfvEK8CF+CfWrAtIPeCeh/2PvXH6jLKMw3ggxcecSYdMF7DFxrbAxulETF1C8UBdKwKCgCwVZ4I5LobZAoUKpXFxoQEHkVsC2IMaAJCiXttB2aoVCL8x07hdajme+lJNO3n46PfnemfPxnSf5/QXdzK/Pc743Ex6F5KUrEP+lHUYbmyG8fgMK4mq8UVkyeXoV+PajdJ/e9f/xOX9+xT8+tz+/IvnI01yh0QgXkBACSKkkRLqIqIAELGODAwzpECAeNloP/rG5/+WDYMiHq4BU0fzKjnz4pf3gk0OyuQmyuSlJXe+E5O9/wGjDXohsrMe/xcd4IL/YkQ8Hkg8ptx+IrfZD8qd35c+vGO2HqPkVCcjOmXNCFRqN1OAPh/nGfzKpDWFOsvhtCGOWZU9EkgcbQROMjP3d4yYdpRYPr47MifiOTZDYuw0cmvLUFxB/zJ7J1EF8NwHpsycmOD41ZybzM5HK0zIVx4jM5d8g1901Nbc73bn1mA4Ha/LBv/tAqhzSF9qkTq/ktx8kHyQg0yZ5rQNiLa0Q2b4HZ11rYHjpR+V59Zw5v+oV8PAg49O78o/PLcyvXI7PmfMrkg/O/AoFxGF+hUYjVEBWIcCQEG4bwp9l8UWEJSOZC2dAEzQBcRePRFMdJA42IrtMDhCQOd8CRLs72auX4WFfd3GEumE88gD8lkd86Md6kXgqH4hH8oG858yvdHrlTfvBJpPNFpLJQqq3H+IXL0GkbjcMr/gM51zVgWg/+J/e1eNz7+ZXJB825lckIA0z5+ir6BqZwclEK0IzCoaEeNWGiBORzHkVEI2GJR625cPERT6IksoHQvIRq9+i0ysL7QdXPojMYzIGiT9vwOh3P0F469cwVPUhHrG/Ir398Mend5/Ytz+Q4o/PmfMrko8i51ckIPoqukZecKf9LAIRhCREThtiX0RMVEA0Gl/JB1EK+UCmJR+IM7/S6ZW49uO/BSQ9BcmePogePwfhLY0wtGgF3pG8XMr2AzHkg/HwoOVP7wbr+NzD+RXJh6fzqwZkx8zZefRVdI2s4HHoG3kBKb2E8GdZfBGZfiuSuXQBNBqNZPkgBMoHUk3zK5QGT6dX2n5Yaj/SxZJGKelGKTl2FkbW1cDgm8v93X7I/vSu/+dXz3g8v3JvP6YSEP0cr0acgNQi4GCICENCWG0Ic5ZlX0Rwe98DGo1GsnwQbPngv/XhevdB8hGr22JheqXtR4nbD5M0AalUuoD4lWsQaTgAwyvX49skrweg/WB8evdJOz4XOr8iAZkxu7ZCoxEmICEECFttCGOWZV1E3GVEBUSjkS4fJm7yYeOhQeR/5QOh+ZXk6ZX89iObE9d+mPLhTuJWCEaPnoGRtZthYOFbxbcf+vAg4/hc3vzq2xLNr3a5zq8cAdHP8WrkBL/JX4mAA0NCLLQh0kTE+fqQRqPhi4d9+SCsygcyTfmg+ZXE6ZX89iPnp/ajeJLJFCTuDUHkSAsMrdkEdxYusdJ+IBbaDwGf3pV5fG5/fvU0f36F8uGwfcZzlRUajYTgI2DVCBgSYrsNESgi8catkNi3ExL7d0L69FH6TOr4aBg0Go1k+SAEyEehgMTqalAadHoV2PbDlI9JJInEvUEIHzkNgygk/S+85pf2g/vpXSnH53Le/rAwv2ogASH5yFNdodEIEZBmBEohIfxZFk9E4rtqIPHNDofUqSOQbjvtkOu8Ru8qPEqnQKPR+F0+CE/kg/+5XbP9SJ9v0+mVth+EKR8mCSTa1QMj+w/DnXdWQ++8hRbaD+bDgzI+vevztz8IxvE5d35FAtJcodHIEJBlIUc+CK6E2J9lxbZ+SS85p07+COnWUw65jr/gYeg20g3j6VSRP3w0Gg1bPMTJByFCPoili2EsntDplbYfJB/FCYhJ+NyvMPD5RuhbUMVsPwij/WA8POjlp3f1+NxoPzyeX5F8OOgdiEaEfFQigJB82G1DTBGJbd8A8T31EG+qh/S5Ew6Zi63wsPeWw1h4xP3HBoAbKiEaTaDkgxAlH9GvaryUD20/gtF+mCQSBUQ7u2Fo3yHof3sVr/0o5cODAl4+F//2h7uA8N/+MAWE2KZ3IBoBAlKNgB0JMUUkeegA5HpIKrwBQEVEownq5MrEEI8yyYdDqr1Nxt2HfnZXYPvBF5B4nIDo3fsw/MMp6F+xDrrmLdD2w8/H5/bnV7Atj96BaMqd8KfLmhESENttSPbG1ck/FFRCNBptPbymlPKBuMvH8Lteza/GgzW9CmD7QbjKhykgJnGHocMnoW/5F9Ax9yV++yHl07vyj8/lv/1hth/ILL0D0ZQ34U8+CDkCYldCiFxPl70fHgAqIhpNYOWDECMfOL/S6ZW2H4z2gyMgcSIWI2AQZSSEMnITZYTRfkh4eJD/6V3/H5/bml8hs/QORFNW+ahEIA9DQhgiYgiItiEajWzxkC8fJhLkwyHV3ipMPvzffvDlw4KACGw/YjF37qOM9C5fC9fnvii5/eB/elfA8bnYtz8K5cOh/qlZegeiKU/Cq9+vnhAQwlIbQiIy9qDg9kPbEI1GWw+vsSMf7g8NEiQfDouM+RXj7kMPz33dfhBlaD9MohNE7gzA3ebv4faSlTbaD8bDgwI+vSvp+Nz+/Arlw0HvQDRlE5BahOSjFG3IxA8ElRCNRlsPW4iQj2jtZgl3H/Llg7AgHwG7/YjFihEQJBqbIAoPbnbBP3VNcP35V/nth82HB/mf3v2XvfPpiauMwviln6AbaVeK8QO407TRhF1NXMgCbVKopbZYtf4BNaZ1oROSxigOYOKimPh/YbopiY1RkyrVpMUYDaRUCpYIJaWBgTsz0IIBpcczN8wJkzder2/uue+d4XmS33d4f3nOeQ+Wz43l80oBeW/H7l4PQVwk39E+zBBLSIBCG2KIyOYDASKCIDUrHiIfLgWEZcOdfCwc3F8av8LoFdoPvfbDFJDo8iEsVZAb+pV+P3aShu97yKr9YBTaj7R9vau/fK4/fiUCMuwhiAP52MmQEIuEhItI8c1X3D1KiCAiCOKg9XCAa/lgZPzKjXxg8byK2w9Bu/0wKBQZxp+ZpZmPztDow80K7YeLr3exfM5Uth+b9O3YvdNDkGQF5GijyIeFhNiMZS3395YeB5AQBEHroYmWfDCh8iECIuNXdnsfWDxH+6HQfoQLSFEERKBisUjzQ7/QxNMnLNoPxcOD6f56N/3jVyIfAY0egiQsIBmGAqxFRCQkkogsn+4pPxAgIgjiUjxqUj4El/LBPFEav4J8WIxe1Wr7wWi1H/GMX4l8GAISUCgUafH6DZrs6qPh+/eRyIe7w4P6X+/W8PJ5pYDsyngIkrCADDAkqLchIiDpgAgigkA+FMXDvYAY4pGIfDCW41eO5cP94jnaD0ftB2PKxxYByRcqmf7wC7r86CHd9kP/612Hy+fux6/6hF0DHoIkmfxLRwuMCEgSbcjtM5+WHwgQEQRB66GFU/ng8Ss3ex8YvYouH2g/KiiGth+mgPj5QsCNrwdpdP9xrfYj/PCg+693q3j5XOSjRMFDkKTiv3ikgaFAQGKQkKhL6qvfnis9DiAhCALx0MSVfMj4la58uB+9Sv/iOdoPu/ZDMNsPU0CEudGr9Fv7a3J4MJn2g7FoPyy+3q3F5XMRkF6GwUFCJDEBaWIogoTEOJZVISAQEQTRFo/tJx+CKR/2F86jy4eMXynIh+PRK7QftvJR3e0HEyIfBnOXx2js5S4aunevevuh//WuoPD1ruPlc1NAmjwESSL+C09lAgER7NqQ6CKSfgERiCAiCMRDTTz0+fPij87kY6mnW2HpvPbkY30d7Uf1tx8mi34+IDd1ncYzWRaRPQrth8LhQauvd6t++Zx6y2ARHUlQQAYZkY+k2pC10eHyIwEigiAK4rFd5WNj5TatfHmW8ic7yZSPFlX5EFpl/MqBfFTt6BXaj1ABUW4/mLjaDxGQAL+EiMjFhj2W7Yf94UH9r3f1L5/rj18Jgx6CJCQgBYaEhNqQ9cnx0mNh20sIZASBeMTD3ws5uvVxP/kdxwLxcCgfAdHHrza2296HsJb69sPZ4rmDw4MhAmLTfgh+BfMsIlc6Mxbth9rhQf2vd9O/fC4C0lOHRXQkGfloYMhArw1hDAGBiEBEEIiHNevjY4F4RL3xoS8fMn4VVT4wehW7fKD9iKn9sB+/CvANFhYZ5ubIFRo58qqz9kP/6103y+f241ciIEw9FtER3fjPH24y5MOQENs2JFxE1q+JgEBEICJIqqRDSL14LGVPRf9mV18+hNULg7WwdF6bNz/QfrhoP0Q+hIXFgFkWkZ8faXXXfqT/61395XORDxEQLKIj6gKSYYgR8bBoQ6zGsjZWVsoPCYgIZASBePyvxfL8652xHBhkRDzikQ+m5XEev7oF+QhhDYvn6W4/GJ32Q+RDyG0y9dV5urT3MVNAwtsPxmg/9A4PKn696375XOSjBBbREXUBGWAogoTEPZZVfkxAQiAiiHPpEFK9WL56/htDPLTkg8XDWj6Wet6BfEQfvcLRwZpuP8IFJGdCE/2f04V7HrRvPwSl9sP+611G7+td++VzU0CydfW4iI7oxj9+eIoRAdFtQ4StAgIRgYwgEI/wH63OnQ0Wy1k6IspHS5QDgyrywcj4lbJ86O996I9eof3Qv/sRLiDO2w+T+dwC3ZycopGON7TaD73Dg5pf7+ovnzP1ZQGZ8hBEM/5zbRQIiEhIYm1I+YEBEYGIIFSZOxAPCn60+uQDlo0nRToE+2VzO/k4GFU+mAPh41csDxi9Uhu9QvsRof2wOjyo336IfGwhR9M/XKKhfQcU2g+1w4PhX++mf/mcspt4CKIoH40MGRJi34ZEFpFi14nyQwMiAhlBOHcgHgF/zUyLeJjyYYhH6uRjKft22K0PjF65Gr1C+6F9eDCSfEQXkFwFV09/Rt/d/UBY+8EY8pG+w4MKX+/GuHwuAvIuwzR6CKIR/9lDbSIgjEUbYj2Wtfx+d/nBARGBjEA6IB60PjHGuxNv0eIzhnhY7Hsoykfrv8oH08zjV99DPv774CDaj+psP/TGr8z2o4K5+RzNXvuDfmpud9d+OP96V3/5PLtFQLrr7mrzkH/YO7sWq8oojo9fIb2Q6jaCuiikuwjs5QPYi5pl5EWmYpk6o5EkeGGokaIQFeSNRUFljI6TOhpzLMjA8iICnRkVG+fViKOjzqSj8rR86CzmsDjPbNd5ls8+Z/8X/D6AF569f/P/r7UxRgKyiXABCTGpZRFTBQQiAiGBdBRYPK4f/9ld/mCjo98iTj3M5WNJSD4W3p18vMLy4fH1Kykf2PswqF5ZL57bpx8sH02TfhAx0w9mdLTCRXe2o8t1P/p0qvSDEPIR6/QuYXp6NywgLB8sILiEhTETkBLhGLs0hICAVOEcZATCUXjxuPR+q/O/Pctfj165kpeu7OVj7KNtdvKB6pWiepVk8RzpR6T0g7lYJSCewb5z7vdVG6dLP5r79K7J8jnLxx1KLRiMkYCcJ5xGQvQiAgEROAchgXDEJr+ndDvb6QreCv7N0Veu9PsejBePGPJBLKL6Vakb8oHqVU2uIf2oN/1gRv7nzP7D7sdH5lqkH4RN+qE/vUtYnt6VAoJLWBgjAVleLR92aYgUkYlD+yEeHiEiEBIIRz3k9qLVtW+/YvEQqUeCfY+48kG87OtXkI88Va+QfjRl+jEylZFRSkPOul+XrLZJP5rn9G54+VzIhweXsDDxhx76cwn/18e7kJBoIjJxEAKSQUQgJZCNxj+lu+dz/k2xSz1YPiy/8RGUD6pfQT6EfCD9SJF+kHg0VfohBYTlgxkeHnWnv9zrDj34RIYPD6rSD9MPD6Y/vSsF5MMZs+6AS1iY2ALy2jyC/wKpTkOyiwgEpD4ZgZhANBrtohX/hihSD+t9D3npSi8fRKV+xfJR+KXzyYaRD6QfadIPJnP6IQWE5YMZ6D3jjj23MEH60SSnd6WAzGvBYCILyCbCMRnTEH0ti4GAxBMRCEoBJEMjHTcH+t3kmR7H9FU4XTf/dne5iR/2+V2OCQlftAqkHmn2PeSyuV4+Fk2VD65fVeSj8OmHau8jffUK6Ufe0o+LWdOPCiOeIeK3DVuSpx/pT++ql89ZQLbNmIVLWJi4Qw/5dvESoEtDNCJCArIPUlEAGVGTE5G4Vf7HTRztJCRXPttRzafTsV0wtmOzK7ctc+XWKax90yNYs9Qxq2vxhuQdxsu/IPD/VKac/P9d/Bbwb4Rp6mG9bK6Tj/K7bZAPVK+SpR9jzZR+MFnTDykgg0PDnp72g67zgTkNl37oT+8SdZ7erZYPT3sLBhNZQEoEvwgYpCFBEbnxx0mIBGQk90ye63Pl9SuqWbe8mrYQy2rT2gziwfJhkXqkXjYnWDxqysffC190450dkI+KfKB6ZSUf+U8/mMzpB5Mt/WCC6QfJB9Pf0+e6n12gTT884fTDo0k/8nl6VwoITvFi4o54+KvSEL2IUJUD8gAZaQAB6ZXCoZcOTdpBBKQjgXjkOPXQL5vr5cNzc2QE8uH3PlC9yu3Z3eKkH4KBwWF3fOWGmOmHJ5x+EAbph/npXd79YAHBJSxM3KEHvngRCIrICm0tS+ITkF4ICGQk/0ye7WXhsJYOmXZYiodEioeibpU09dAvm8szu9nlo7xuLeRD7n0g/chR+nGZEPLRbOlHWEA8f+75xnXcPyfn6Uf607tePiAgGIuhB/1cgh/+GSVEX8uSIuIF5Pbte/9ifnOQl3OZ6yd+cROHO6rpOuCufLK9Anf2b4+PQ0iKJiD20hFFPFg0pHjkOvWwr1zpl83D8kEseMGNH+gwkA+ji1eoXiH9aOz0I7x8Xls+iCFP79GfXOfDTyVIP/J+elcKCINTvJh4AvLqPH7oCwkxrGVJASGm/XKyvMJTOuKvaE0cYtzV3R/7r6tP5dJ7q/yLm2BNFeGXQ36J9C+VSEcKLyCZpcM+7ci/eKRPPfTL5oQQDyEfRN31q1vY+2gk+UD60ZjpBwvIhYFBd/5UjzvyzPyI6Qcj0g+7Dw9and5l6WC2zpiJU7yYaAKyiXCe6URkWaiWpReRq1/sdte++9qN7dzqPLu2ecrr38r6MUP+sjqzuhZLayFFJCwjqGsVT0BUwqGXjvTiYV+3SrDvob50FZYPql8VXj6S7H2kr141R/pxqQDphxQQT/+FQXds8dtFTT9k/SosIDjFizEQkICEKGpZBhezBAERMZcR7JBAQCylw2C/w0w8gnWr9KlHrGVzhsWDqbN+dQt7H4WsXqVPPy7nLv1gMqcfTPb0QwqI58TmnSnTD5sPD+pP7xJCPiAgmHhDD/iSeAHQpyFcy9KLiEpG9KmIXkaw2F5EAWnVSod92qEXj3R1K718JN/3qGa+r19BPlLKR9N+8wPph236Uc3JXbvN0g9Cn36EPzxodHpXCsiWlpk4xYuJJyCEIwIS0jQiok9FpIzgulYxxIT/bXSkgIXDQDryLx6MQjwUqYfNvoeNfJTb1hRRPpgbqF7luXpFkoH0I5B+CE51ldz3sx+/V+mHJ5x+eIzSDyJb+gEBwcQd8eBXpCHR90P0ImKfijAQEAV5FYxM0EU0hXAYSIdyv4NZmbRulT710C+bC/HwvPQ81a/2Qz7iyAcWz3XVK6QfxBCRMf2oKSB/9Q/cwUvI3tmPNW36QSjSDw9O8WLiDD/spxWRxdb7IfYiopcRCAhgAbGRDsO0Q+54KMXDfMk88b6HTj4Irl8VTT4mJxt27wPpB9IPlg4hIJ4LJCHdrv2hJ3Ocfth/eFAKyH0QEEwM+Vj0OOFqSYi+lmUoIuGFdeuKFsvIf+zdS2udVRQG4PMLrPX2H5SCaadOgmAd2cYLin/AdmRinQqGeAEVByroSIpIHaiYnGgqWEQHOlLUNFbJPU4iGRwhNS2o4HZ3E14SFnym69sra59vvxveX5DBPk/etb69/dpU9T/IKwSIAIcnOvzhoR+38m89tMvmEh9x/Ir48MeH/+hV+YvnCPBRZPuBOLUfAEjKysIvYfbEg4fZfiCi/bB/eLAJHwDIy73bRno8PG1OvOBHY3DpC4goxrI8IKJvRfQYiW+LVP+DvDqAfD6rA0czOuzaDj085IK5/biVNz4kPJrxgVyb7deFD7l0XsPeR/c+u5ur/QA+OtV+IOsbCSGhf+LkTbQfKWW3HxqAJHyk8DFCnnYnXupj6aIHQhRtiBlEEAOIaDFCgBAgfugoHx5mrYcNPgAPHT5SHh3D+JUjPCQ+uPcxjKNXbD+KaT+AD2R54UqYiQhp2X7ElNR+pNxk+5HCxwh5WgNkMgYXf2kQ0e+J2GPk6lsESH0A6QMcbujQL5ZbwCPTkrlD66Hb9xD4+OPZCeKjgtEr1Zsf9ovnTu3HoKb2Yze/pSxfjgg5ftKh/fB8eBD4AEBe6h3lWyA8eQCCSIQox7IcIKJqRfQYufrmq9X/IK8QIA3gUKDDte3AjocDPBSth/e+h8RHShy/Ij6y44OjVwUunnf1y1eIbD8kQNbWNsLS/M9h+vgD5bQfSEP7kaJqPwCQPfggQHjan3i5T+PCRxRtSNEQscHINgFCgEhw2KGjfHjox638Ww8NPjB+5Y0PxB0f/nsf5Y9eFfvZXbYfDe1HynoCyC5CFsInQEibL18hw9R+hBd7R6d7PDxtTrzcv8J/GgVCCoWIP0YIkHoBUhw67OGh3/PQL5mXiA/AAxmcm6gGH/ZfvCr/q1f2o1dsP1q1H4hZ+4Gsrq2HxV2EGLYfMYfXfsQ0tx/7AcLHCHnaAyQGF39zG+ILEbysrodIVoxsv/FK9T/IqwPIxb4Ahj069G0HctYAHtpxK33r4b3vsS9bj4yFndk+8dFdfHDx3Lj9AD782w+kuf0APpDFnxbCB3cdK7H9iMnTfqTsxQcBwpPj4JJPF76EiMF+iAIiiISIPUYIEEYARA8OoMO+7cBiuTU8DJbMSx25Aj5iHj4dx682vfDh9bldLp0P8+gV2w99+7G+IQGymhIuz10KF+481vzuR5faj5Rb+RghT7uTLvf9CEkxGMsygIhiPEs9oiUx8uf771b/g7w+gMwAHMWiQ45Z+cNDv2Tuiw8JD+Bj8My4gEfn8OG9dF7+3kf5i+dsP9q0H8gefAiArKyuhfm5L+poPwgQnpwAQdRtiD9EZCtij5HrczPV/yCvECBe6FCPWemXy/Xw0I9bldx6AB8pO/0Z4iP/0jlHr8wWzx3aD+Cjq+0HAJLy7etvO7Qf+ocHZfuB/F/7QYDwtMXH4yO43IGQgiGib0X0GEEIEAYA0YNDoiMPPM6UCA+jJXN/fGD8ygsf/xxC/uLeRyZ8cPEc+Ohm+5GyvJISvjz3vM27H/7txz6AvNA7ciMjPR4eJUBGxWUv25ASIOLaikiMECAEiKblADoc2g4jePiPW9nhQ8IDGUyMEx/F4aOC0Svd4rn/Z3fLf/cDUbQfAEjK8mq4+MRTHW8/AJDRHg+P5sQLfTRGXPrNY1mq/ZBmiMhoIWLfigAjBEiFSX/ziAofdGC3o2R4aJfMy289kLFTN8aviA8tPuz3Pjh6tRcfbD+M2w8JkF9/mA8f3nt/Ae1HikX7QYDw5AEIIiCiGMtSQ8S8FcmOkeufTVf/g5wAATgM0KEYsVIslrvBQ996uOJj6/Sp8PfmJvGRb+mco1eVLJ4jW51tP5CFr78J791xzzC3HzGi/SBAeLIBZDImCISoxrLKh4h+RAshQP4lQAzAoUCHou3wgod+3Cpj66EduQI8gI/B+DjxQXwIfDiMXqkXz/0/u9vZ9iNlaWkl5bsLHwMfHWw/wlTvyGSPh0dz4sU+GSMu/oY2xAoiBnsi5hghQOoEiABHVnSc1aGjfHjkGrfyaD2Aj5SdmRniI88Xr7j3YTN61d32A+gouv0AQBaXlsOliecO3H68Y99+IG3bjykChKfNiRf7ZAwu+3Ih4oERAoSRiX9zBTgU6PBoO/TwQCQ8tONWqtbDGB8YvyI+yls6r2D0yufFc//24/chbD8AkJSP7ntoKNqPmIO3Hym3ECA8WoA8lgCyixBEIkSxH3JgiCC5IaIf0ZI7IwQIA4BkQccZJTrKh4fhuJVb64EMxp8mPrzxIZfOOXrlsHhu0n4AH8PTfiCy/UCufP9jOH/73eLRwaFtPwgQngwAOY9LHhABQjwhYt+K6DGCduTapwRIjQDRtxz26NDD40kHeBgsmRvgA/mPvXvnjauKogA8PQ+lQjTQUVJAE9GlNH5Q0IFEASWxTYsQr0AMCiQVDSJCCYGISFHGFpA0FEYgJJCLICWesSngF4wUhFOMleEwPjJLg490M7Pu7Nnn3ru2tH7DnU9r7zPPLYW9jXXhg8BHhncfWr3K79nd2rUfMbsx4devrtat/TjIhZZGw8zww745TEgQUg+ImGPk7jftMBj8M4x+mAsg5ugwazv84eHQeoyHD8AjZmkprl8ZwEP48Lv7qP7qFf+fH/7P7nq1H8CHefsBgOzs/h6uv/Ja5doPACRtP8Kp1sObLY2GmeHHfHMYfOwdIYLwECFXtHiMjAJEEGk6QAhwGKDDAR7UgTlxZO7WegAfvdVV4cMdH1q9KsSH2o8M2w8AJObykyeS9mMEH1VpPwQQzXQAAoQkEAFCXCDij5FikPR3OqP4EEaaBBCAg2g5HNBRfN9BwIM9MOfXrfjWozw+YvbW1+1WroSPBuGDX726Y7t6leezu/VoP5CtjRt0+wF85NF+hHcFEE1pgCAJQvj7kGKIIHYQscdIvwuACCINyd1v2wk4jNDBr1jxbQcPD/7Og1+3sm89DoP1K+HDAR/U0bn/3YfD6pX14bn/nw7y7Qfw4dp+dHdiwvdvfhjxUdH2QwDRlJ/hh31zmOSjz61l8RDh70T4VqQ8RhKACCMNyN8XPyPAQaCDbzt4eAAdBDzs7jw8Ww+kt7IifEwTH7r7AD4qfHief/sBfPi3HwBIzG648szCmO3Ho3m2HwKIpswMP+Y3R9cbUoR4QMSzFSk+YEdSgAgiDclf59ZYcHDosG87/ODBr1tNqfUoxgeyuIj1q5LwqAE+EB4fWr1yWL1yOjxX+3EUHwDI1sb1Kbcfj8y2/Yh56GZLoyEBEpDKQ2TmGDkKEGGkCQA5uwZUGLQcLDoM4QF0GByYZ9t6AB4xC4sH61fCx2Tth/CR9+qVDs/92g/kxuobybO71Wg/AJDQ0mjKAQRJEWIPEetWxAgjCUCEkaYDBNgwQAexYkXB4yUDeDDrVv6tB/DRW16xX7myx4eOzu+HD61eAR8VfHaXbz/+nHn7EdPp7sR8/vjTE7UfwId/+xHeEUA07ODjzkLkxRwhYo4RpN/d/g8OgkhzAEKAwxgdfNtRE3iYtB6HWThYvxI+hI8EHzn/4aD/4XmF2o8/xm8/gA++/UgA8vOlKwbtB/Ax/fZDANFMY+LHfPQ1mRQhFhBBeIjYYiTNWAARRpoAkI/XEnAQLQeJDr7t4O87rODBv25l33oAHzFYv6rAytW+8IGM4EOrVzNfvVL7MU77sd3pxlx7/mXiTwed2w8BRFMWIAgQ4gARq1YESSHCY6QQIAJJEwCSgqNa6EjvO/zhwa9bGbQewEfonVwWPvye263L3Uf+fzjIH54bPLvbmPYDAPntl63w6bEnSrUfZx3aj7dbDwogmnIAqQdEZo2RBCDCSCMAcpoAhzk6zNasEKBjPHj4r1vxrUfMfEzYa69XYuVqfz/Bh57b1d2H/+E5/+yuf/sBfJi1H8jt7W74bvl14/YD+CjffgggmrKDD7sDRMg7EQOMkCBJASKMNAUgPDgIdFBtRx3gYd16FOADwfrVGPAQPo7iQ3cf5JO7maxeGR+e+7cfxfiwbz+AD+T8Y08Rfzro1n4IIJryAPGDiEkrQqxocRjpdxKACCR1B8hHpwGOabUcPDrM2g5bePB3HvatBxLXr4QP4cPh7sN09aquh+cI/+yuW/txmE744ZPz+bcfAohmGnPwUZ8IITxEEB4i2WAE6acAEUjqDxAaHPboqCA8+HUrk9YDeXY+7LXbxMqV20tXwsdsj861elW9w/M82w+kE/Pl8TmH9uPYpO2HAKIpD5AYB4gYtSIERniQ9FOACCT1BwixVmWADqLtoOHxggE8rNat+NYD8IiZm4/rVwXwED6agw/+7iP71ata/eN5ldsP5KeLX4/VfpzLoP14q/WAAKLhBh90IMQHIvatiA1G+tu3wuDe4OgPe6GkzgA5874dOHh0GLQdOcPDrPUAPnqvnsxz5Ur44J7b9b/7qN/qFULgw+Hw3Kf9AD7Gaj9u3Y4JXxyfM2s/PijffgggmukBpJIQ8cfIIUDuBWTwP4wIJvUECAEOB3SYwAPoyBYefOsBfMTsXWu7wcP/mV1/fPgfnZvdfWj1yvXwfJbtx+6k7QcA8uOFy+7tx6n7tx8CiIaf+FHHh94PIvljBCkGCJJARDCpSe6ceY8AhzE6+LaDu+/g4UHdefDrVpO0HgjWr7LCx77w8S979/IaVxmGAXyWKth/wE1x5cqdxZ2ttWmLaLZe0q697MUbcRLrBfGGmOLKVKELwepCRF0Frxtpk0xSMCs3BjV0caALmzDD8fghD3Q+eph5zrzzfueb54XnD0g2Hz+e9z3TCB+6+4jw4fibH06f3bVuP4APvv0IuVr2trbLT47MGfzoYOP2QwDRTA4gSIyQFkCEX9ECRniQ1AAEELlVKyKgtCCDQZzizeWG4CDQYd92+MPDv/VArj39bAqH5si+8JEpPvi7j/RXr+wPz/3bD+Bjou1HhY+Q7z++mHL7IYBomg0e9AghVhBBRoAI1YrYYwS5JUBmvhVpGntM8CneWB4BHETLYY+OWYPH2K3HXydPh1y/9AXXetgfmwsf7kfnDncfLV698j8859uPenzYth8hve3ywpG5pNuPlwUQTVOAuEOEb0VcMBISA0QYyT0ACA8Oe3QYtB2e8LBftwI+QuZOlwe7u+7wOBA+LPGhuw/n1av8D8/59gPphRbE7kcH+fZDANE0n/Cg46FPDyJ8K0JghAAJAMJn5le0WgiQCBsUOJqjY8QVq8Tgwd958F+3Aj5q4RFy7aln/PFx4PWlqwzwwR+d+999hAAf9qtX/r/5kf9nd/n24/9slav3zTm1H3fWtx8CiKYpQJAIIQYQMWxFeIzw7cj+9k0AEUZmIMXryz7gADr4FSseHkCHATxc1q1ifIScKq9/fqkM8BA+hA+3u4/EV6/+HgEf/C+eq/0YAsh3595Otv14qXOHAKLhBg96jJD0IeKPkWGACCMzAZAlAhxtREfK8CCOzOvhgez/seuEjwgewgeBD4ejc/7uI//VKwT4cDg8b3H7gZy/617rw/Px2g8BRDMpgLQJIvyKFo8RpDlAdDOSCUB4cJDoaL5i1Vp48OtWY+DjxKlyb+FsHvce/A8MCh8EPjzuPtJfvTI9PGc/u5t++9GLAbK52Su/eq7r0H4EfNS1HwKIhp/qQV/HI28IEftWhMcIDxIzgOjTvgmneG2pBhx0y0E0HU5thz88kAnBAyk+PJ/pypU/PtL/3C5igI9M7j7adXiefvsBfNS2HwEgl3/6pXz/0N3JtR9V1jsaDQmQNTzwyULEHSMsQNSOZAmQrlHLYYaOVOFB3Hmw61b1+PjzoZMh/+zsTHflSvhww4f/0bn/3Yf/6pXn4bl9+1GPj5HbD+Ti/ILt4TnRflRZ62g0zFQP+1qVsh4hLEQQAiJEK2KOEWRUgKgdmQWALBDgMEAHsWKVODws160AD2TvybOeK1fCh9/ndv2Pzh3uPtJfvcry8JxpP0I2Nnrlj5996dx+AB/IiwKIhgfIwwEgiBlE7FsRHiM8SPa3e8MIEEgyT3GuawAOGh0ebUdr4RHjA8H6lcPKVbq/8cHjQ1+8an50rtWrjA7P+fYDAAn56J77PdoPAUQz+ake8jU88iRE4hhAxBQjfDtyIwJIiFCSN0AIcDAthz060oeH3boVcrzKg9X61W87ritX9sfmwgewYfDFK/roPPPVq90prl6F/J5l+4F8vfyW+2d3gY8qL3RuF0A0PEDwsI8DkfhGxLsVscdIDJIAkH6/jwxamYFQMh5AAAwGHPbooNoOHh7zDvAg1q1ifAR4hOw9fmbaK1fCR15fvCLvPrR6NZOH5yFXx24/1tc3y19/+Hka7YcAopkKQFbxwLcDIlYYodqRG1sASJRB2xNQIphEAHn1FWCDB4cJOvzbDh4e01y3QusRcmyuLD5YcWg9XFauhA8CH+TRef53H/6rV/zhuf9nd8doPwCQkNVj86m0H/9ltaPRMFM96l088hFCOIggPEQMMGIBkggg40FEjUlbARJhwwAcVuiwh8cjDvBAxoIHgvUr29ZD+EgCH4gZPooi07sPfvUq/d/8SL/9QL59b8Xls7vAx80A6XY0Gmaqh7yLR94AIpatiD9GIoAQGMkZJ3kgBX9HP6QCyGINNgAOtuVoGzo84MGtWx2P4BGy99gZg0Nz4cMJH/5H562++0BifPivXjkcnnu3HzE+rqxvhLxz6HD96pV9+yGAaJoDBI87BRHEBiL2GOFBEgNEGBkTKsggihkkkP5w+iOlWF5sAg5HdGQJD6r1QI5i/WpyrYfwMRP44I/OtXplvHrlf3he334Qq1fAB/Lpo0/4tB8CiMYCILUQQYwhwq9o8Rjh25FhgAgjM5BiadEKHP7oaH7fkT48gI8qD2D9KpPWQ/hw/uKV/9G5/+qV529+ZPLZ3fr24/KVjfKbd1c8D8+R5zu3CSAabqpH/WgVPPamEOFbEVuM8O3IMECEkdkAiCM4gA5ixcqg7TCCB3/nAXzUwyPg40T1v19Q6yF8EF+8cjg6J+4+iE/uZr165X943rT9AEBC/mXvXmKrKoM4gN8VrNgjoigiiCIWizzKq4WSEIgBTQhRhIUJoBhQgo+AAl0QREGx8gr4Bm4BkRQJCxMTKhKF0oLUjYmJQIWSWlruba+1JJCMX77cjny1/XKZc6dzOGcm+acsabo4+eU/c86mfoNIh+fB2w/EB5gUJ3R0ggAEESIHEc4VLTpGMDkDREES8aQsQBAbdHDIo4MfHjM54EFsPRAeJpOn26TLtzO0HlFbuVJ8hPzoHIP4iO7qlfzhuXz7gfnq6eccfAi0H/CWAkSHOubBXowP+MAQ4W5F2JoRMkhu/OoARDESg6TK1jjYYACHKDro8JgVNnhgXHhgcP3q7m09FB/y+IjK3Qdt9cqPD5bVqwgdntPbj9qzv8DRso3cr93140MBohMMIDMKTPBhLw0ReitCxwgdJN0CREESA4DIgwPRQVixYmg7wgwPiw9EB6Zp7gv5aj303iOu+IjK0Tn/6lUUvvkh9drdrvhAgJz+4WT+Ds/pAClI6OiQETIdDzpJELGhQ+RuxogBSF1XFChIog8QAjjCjg7G+w55eLiZZAPpj7blo/XQew/FR4/4SKUievcR/tUr2cNz/vYDs7OwxLN6xd5+QEJHJyhAMB6IeI7VmVsRaYxgcgGIgiTiSa1bwwcOfnTwtx10eHgOzMl3Hi48MKXQ8VuO61cC8IjQsXkE8EF945XefQisXoXw8Jyl/cjmHBxc8hqsp7Qf9MNzBYhO/qbzwc4AEZlWBDHCDpLuAKIgiXhSa99BTDCAg4gOetvBDw9EBwUe9DsPjAsPE/N3mU9dtxJsPRQf4vgI/sar2L9yN2Tf/JA/PKfjw6Zq/6HePzxXgOjkESBVJkCGCP1OJPwYwdwRQBQlsQMIYoMVHPzoEICHu2rFsW5l0WEz0WRCKaS3bAvbupXiQ/HBgA/GV+5GZvWKtf3gWr1CgNTUnoON/QaSDs/p7QemKqGjEwgg0xyAUCHC14rwY4QMko6eAaIwiS5A+MHBjw7WtkMeHhgHHjZFbpqefR6al66A5pdXQPqDbZDe9QW0Jg9Be/VZm476yxFYuRJ701X08CF/dE6/+8A4+NDVK8nDc3r7gQDZXTyrO3zwtB8KEJ18jnnAV5rYB34OEMEwQEQEI3SQeAGiMIloWj8uZwcHHR3kFasowsPFR1E3GT8NbMaZjO2SMVPBZnRnSqB50as219dsgPSOz6F1z0FoP1Vrc6Plep5XrhQfBHywfeU8TcUH/9E5/90HBvHB8cFBjtUr2cNz/vbD5puVb/fe4bmbyoSOTpAxD/UyE3zoEyDC3YoQVrQQI6ztSEedBYgmHkCxv1/mQAUBHBwtB6KDf8WKfljOAI8c7jyc1oMIj6dcfNgUZvOkm6ujiuFqgckTxdA4Yx5ce9FAZflqSG/9DFq/PAB//1xjQ249+Feu4osP+W99SByd0+8+5FevwvbND8n2w+Z48mumw3M/QN5M9C1L6OjkAyAYOYjIY8QPEgVI1MBC+P9m9lcQsYHgCBE6eNsOeXh48DH2f8kZHphRJQYeiA83j08BmxFuGh6bDE0Ll0HTgmWQKv/Epu2745D56cydtR6KD4w4PhjeeCX/vQ/e1SuEh/zqFePhOW/7gak5y3N47seHAkQn+JiH+xx82HcLEQ9GCBAJKUZIIOk4fx5u3bwZe0TEIwgQTnDwo8PfdkQKHvTWo+ROWg83I/34sBnemUlg80g2Q22gaf4rNqktuyH9aQVkTlbDPxfq89B6KD6kv/Uhf3Quf/cR/tUr+cNzf/vh4MNme+GU3jo8R4C8keg7J6GjExAgxfiw90AkhK2IHyP8IEGAZKMYiTtAEBmc4KCjQ77tCCs8+FsPm0d7wMcwxIf590Tz0+ThbIbclocmQuPMhdA0bym0rPsQUruTkPmxGtr/uKT4YMcHho4P+aNz9+6D+5W78qtXLN/8kD88R3xgKhYvt/jovfbDAqQ4oaMTZMxDvcDEPvA9EOFazwo5RvwgyRyphJv/4UMxEoNkKpJ0bLjgoLQczOjgbzvCDw9P61HA0HoMQ3i4+BjSFR8ToGGwyYOdKQKbB7K5v8j8jQxO5i6F65t2QbriCGROnOZauYr2zQff63b5j87l7z4iv3olf3juAuRMTS0c21zOcHjuaz9sChI6OkEHH/L8EAkhRuggaUsmne8H3FKMxAMgiA02cPCjw992cKxZkeFBPzD3vd2KsG4l0HrYDPbgY5DFh5v7xgNm4Hi4Onw6ND3zErSs3gypHXuhreoUtDdek/3GBx0f8t/6EDo657/70NUr+uqVSPuBADlx9Bjl8NwPED8+9COEOgwAQYiYECDC3orQMZJ3kLQl990OEMVIPADCDQ4BdJDbDil4yK9bjZwi33oM6h4emHuzGTDOzT1jwWbYNAPpJdC8ehOk9lZCq4EJYeUqLvjAcOMj/HcfkVy94vziOWf7gdnQb0DvrF7Z9FGA6ORnzEO+ygR8EGG4E2HFCL0dyR0kbfscgChGYgcQxAYJHPSWgwsdDPcdvu94yMODfmQevPUwIbUeNv7Ww4+PK11yub8N/JlNw+jZ0LhgJTS/uxNS334Pmd8vKj5Cjg/5u4/wr17Jf/ODpf2wqT5TC1sLJ/MfnmP66EcIdfIFkNIqE3zweyDC3YrIYsQPEipAXIwoSO7qZJJJDzao4BBAB6ntoN935A6P0jDAw996jAjWevgPzYOuXPUMDz8+3NSbXOo/BlM/dCo0zF4Mf616H1r2HIbW2jrFB+11u9xH5/J3H/TVKz8+5FevGA/Pye0HAiS5aJnFR2+0H68rQHTyNeZBX2aCD34PRAh3It5WJPcVLTpGuEDSFSCKkXgAhI4NPzgk0cG8ZiUOD8K6FWfrwb1yRcdHvYsPzMVucsHkikFJ46r3oNmgJF1TRzk2NyG86UocH/xvvKIfnUf77kN+9Urg8NzfftgcXru+Fw7P+3QCRL8B8i979/JbVRWFAbwjRk5EAY3MfEyk2gImaiyURI0DogwUGZhIFCKGgdAC6qwaBU18oEJQw0tKgkiwEAnEaESUthf6EGiLpbUphdYiFislMaGQLLen1xU24k7vd85i3Z67dvL9AU0H5/6y1re3nWSO+9BX8QffhwgnBkSAqQiAEZHpSBgkQ9X/AYiBpNABIgCO/EKHVL8DgQf+ngd+uxWH4RF/6iG7ctUXggeOjyhdt9wX5ZdJI+m6cxb1PLGQ+leupYFdX9NQ/2+GDxwf8qVz/d4Hx8OHwuqVwJsfHMHVK87edevFi+cRPgwgdpI87uNezh95ACLAelbeYAQHCQNEJJcNJHkOEMaGPjh8dAC9jmS6HXi/A4KH/roV46NMYeqR/MqVSwAeQXxwOrPpuCJd02bTqWeW0JmPNtNgwxHDB3DdrlLpXL73ob96hb/5oV88Z3xkDjVEEV69YoBUFo2zN0DsCAAkFkQEpiLSGMFB4gBSfTUcDCRpB8jWrWFsxAeHCjrwaYdAsVweHui6lc7UQ3/liuPDI4APzvQoJ7Jpz6b78QXU9+YaGvj2IJ3vO1Ow+ODEx4d86dzvfdjqFb56lfT0gwHy1q13ePhIsnjO+DCA2BFACHECEIF6IvoYEQAJA0Qllw0lWgAJYsMHBzrlUESHP+1A16z04YH3PPCSOT71AIrmiitXOD44P08cyfGJ06J0znyaTr28is5+uc+BpD+d+MBvvNIoneO9D/zKXf3VK/03P5DpB2f11Icki+dRKu0KXjtJH/fBH3QhACLAVARY0QIwIgASFCDyIDGUXC+AYNiQB4ccOvBpR17Dg8PwAKcedwFTD6mVKyV8dMTAR9sVac2mw4GkZ8UqOrNzH/3Z259ifOA3XsmXzm31Sm/1KvfpR33mMG2c96xU8ZzxUVE0brDIjp0kj/vA748+/A9wAhAB1rPQqYg8RmCQDG25JkAMJWkGSPVWHBsMDg104CtW+LRDFh54wZx7HgmtW/Fr5iJTD85t+dj3COOjPXd8cFomTqVj2bTPnEsnV6x0INkrio9BBXwo33il3/tI/+oVR2j1igFSvWBxTm9+uOS6ekUVdgWvHQGA1PAH/34XxojOVEQeI/FBcn7dOgAGyiAxmAgARBgc8ujAr9DFi+Wy8AgXzBO43SrwmnkKph4ePhgeo8PHiVHgo83P1fDI4sPP0QmldCSb9tnP0ekPNtLvmebCxUec0rl+70N09Yrxob96JVw8Z3xE2fX2+6KrVxUjqSmyYydhgFS5kJ9cIYJMRVzKk8UIPh3JDSR/LF8hAAUlmBhQRgmQ6gA2AHAAUw4AHeCKleSalQY8cl23KsPXrfSnHvp9Dw7DIwF8+PnJ5ejtZdS56FXq3bSdBk/3pQAf2I1XeOk8/b0PfPWK4+FD4M0PDrB6xdmz9tMAPuIVzxkgdgWvnaSP++DP4Q8/DBF0KsIrWgoYAUESBojBZGxD5X//jgtbqgFseOAQn3Lg6HCZAU474q9ZqcEDX7eSnnrIr1zJ9z1QfDA8QviI0pxN04QSarq5hFrLnqSe1RvobKYp7fjAb7xKc+8j/uoVJ4fVK63iOeOjrv4wHfjmO8ZH8tMPzpwiO3aSPO5jX+4SffxHARGBqYgWRnCQnFsWBIjhJFVhgADYwMEhjw6BaQe0ZhUol6vCI5epBwAPhamHQN8DKJtL4MNPo8uRkseoc9kbdHrHHgwf4eD4kL3xSq50rt/7KPjVKxcfHwyQKOjqVbh4fmXsCl47MgiZFX38RweR6zUVATDCYYwIgIQBYkkxVC75iS4eiD/dwMGhjw4BeEyH4CFTMMfXreB3PeSnHvj7HnjZXB8fDdkcvvneKI3uf9P+wivU6zAC4EPhocEUlM793oetXiVePGd8cF67YZLU6hUttSt47QgCpNuFAhDB17PCU5HYGMGnIzhIzlUuL3hgiAeFg1CGPtsSwIY+OHB0gDdZhdes8H4HDg+o54GvW6Vs6oH3PfCbrsTx4edQNq3zFtPJDZ/TQE+vED44AvgAXzqXLp3jvQ/91SvGx5hbveLU1h2i96Y+KLB6xQDpLrJjR+K4j/5+F+8HgQ8RYD0LmIrgGEGmIwhIDCCFFwZICBsYOPTRIT/t0IdHzNutgutW+T/1wPseeNlcBB8Mj1j4yLjU3/Rv7qEWh5Hu9dvy+KHBsVk6D/c+bPWK8QEXz318MEDw1avA9MPFruC1I3Xch77KhX8IXAURfCqCY0SkM4JPR3yQDFQsp4vDl2j4n1yyH+eFApAwNqTAoY8OfNqR7/DA163kpx76V+zKl83j46MRxwenziXj/oetC1fQyS++yp+HBpO48SoFvQ+51avj+bV6hU8/onw441F89So8/aAldgOWHUGAzHchzjROYCoCdEXEMeJSLg4SB5BlEUCyMYwUBkAgbITBAU85/Nur5NGBr1mFb7TyU6oKD/l1K/2ph3zfA79m1w/DQxwfUWqzOehS7/6vxytfp77aBpUbr+TxYb0PhdUr/M2P8PSDs/n5FyVWr2jJSOYX2bEjBJByF+LkABF0KiKPEWQ6wiAJomRgqQPIxWEPIF4MI6nLhR07QWwEwIFOOXB0uKDokFmzYniUAPCQKpjj61b6Uw/9vgdeNtfHh0uxl0zxI9Tx7ifUf6wtf9/6wEvnBd/7AFavtN78CE4/DtZmaJMDyDXw4YKvXjFA7AYsO5In+vCXlhMEEZ6KaGIEmY7gIHEA8RLEyLD9gB/r+aupWXa6weDQQ4e/YgVMOwB4hNERBx7hgnkUhgewbqU79ZC+5Qp42VzgpitlfPw4vph+GD8lygGX5rmLqHv77vx96wMvnRd876OltW0Mrl4xPgIAib16RS/ZDVh2pI/74HfzjwGGiMBUJLSihWMEmo7gIPEAEsKIrWqlGCA+NuTBga9XaU070H6HS3EseOj3PCbn79QD73sAZXMlfGSSxQfne5e64oeppaKKfj3aJosP/K0PvHQu3/uw1au4b34wPnyA7Fz1Tq6rVy5hfEQAsRuw7FwHgNS4kAt5ECmdpT8VCWMEn47gIAkBxKYj6QQIgA1RcKigA5925AiPKQA8BHoe0LrVZIZH/KmH5soV3veQumbXheGhgA8/+2+8mxqfWkRd23ZpX7fr3XiV5t6H/uoV40Ng9QqafnB2r/k4oTc//OmHS02RHTvCAKlyIS8lHIbIGMSIAEiCAPmbvfuHzbKKwgD+TS4q4GZwsANqQQVxkAlT1MTEGMNiTBy0iY4Kg7MJky4mBBDaQSVlxEKpFiz/yp8WCErBKAWCICSYOBhSYsT0c7keXz+fcGm46fd873lP3+u5ybOXdOj9cZ5zX5+O5AkQYMMAHIlqlQI6iJesFPY7DODhUw9i34NYNk++dFUbfIzdkfGnXgwXPukPv169bvPcrj0+bPY+7KtXJt/8mA2QUwBIWYvnAIi/gOVH+8gf/7XFRQAXgzhMPYuvaPEYSVe1eJDEKJkFEAdJ/gDhsAFwKEw51NGhULOyhgeiAI+6TD3473vw+x6a3/hoEx8T5eEDOdzK0UdXhcl3Pgi/fH9eFx/6L17ZL53Hex821SvgY/5Wr2KA8NWr2dMPZG3Djx9lgHRJArIcFwX7qQgwUs50hAcJkkYFjxEHSV0A0pOabtDg4KccPDoQoEN12mEAD2rPQ7NupTL1MKtcYd/D6qUre3wghx5aVuSg5NTLb4arIwcN8aHw4pXW0rn+3gcS4aPe1SvgowDIln62eoUAH3G6Gn78aB/5wz+NSwAg0ulURAUj/HSEBwkPEB4kjpL5ApAzZzvEBgEOaspRGjr4aQe/WG4AD2rPg69b2U897Pc9VPGxfG74ADw08CFZ9G8OSE4IRC727yDwYffcLgJ8GCyd2+59WFSviOnHKWTPlr4Sq1fIdMOPn4oAckQSkAgiClMRPYyog2Tm5jQPCx4kjhJLgDxvAA5zdHDTDr5mZQAPg7oVO/UAPiye2HV8tI2P/YuWIkeeXAOIEPiweG4XifBBLp3b730gET5qXr0qMj5RAKTE6hVypOHHTxVHLgEb7nVJmEs9K56KGGAEVS01kAAlt7+dJBBhjRKHiQpAVlcMDlSrDNBBTDtoeHTbwiMOAQ/2ux4m8FDY96BeuuK/8YEAHub4iDL6TxYuDWPL1oQLfTsIfBg+t4sAH7ntfdS1egWASMqrXvkCup+qj1wE1t5Rg8BFgZuKJCpaNEaI6QgNkiRK0gCxR4nDRAMgqwlsMODgpxwEOtqoWLHTDr5mxcODXzAn6lZZTD309z2Il65s8AF4lI2PIt+0cmhZT5jqG2DxUbulc37vw6tXraTwITlZVvUKWecL6H6qOnIR6JLIxaAVQISYihAVLQWM0CBJo0QLIPYoAUwcJ3cBZBLQILBBgIOZchDoICtW/LSj3f0ObXggJcLDaOrBv3JlUrlCAI8On9lVxsfhOIAHg499C7vD3lYOCkTObxuwxIf+0rn93odkqk7VKyRdvULC8fET5VSvgA+JL6D7qRYhq6ejOkQMEWYqoo8RVLWqA8nt0woAsYMJB5T8kYJ/2+3vJhPYoKYbLDgIdChUrKJph8p+hyE8FOpWGUw9zPY9MsYHsqA7jK16NVweHgU+dD80iBD4IJbOrfY+8q9eAR+SUqpXAIgvoPup+shFYCi6HEQQaXcqIllB7IukMMJPR1iQMADJHic8WICWOPqIiPNXnGY6xcSLgAYBDmrKQex0AB1ExYquWbWx35EBPDTrVgaVK5N9jxI/MCgBPOYbPkZa+XrBE+HoS2+EK2MTBD4MXrwil87t9z70q1fAh371CgApsXoV3vcvoPsxAMgGXAxiiHSIkR4FjJDTER4kyB+nz4SZZjN1gXegZBEAhMAGAQ56yqGFDsnT3LSD3+8whYdt3apeUw/+44L8S1c546PIV62ceHt9uHHpJwIfdi9e8Uvn9nsffPXqrHX1CimveiUA8QV0P1UfuQz0oHvdLUlgJLEr0iFGEAoj6ekIC5IYJb8P7y0A0opjpL5gmdPPLhOvNrChDw4eHUzFipp2lLzfQbxqpbBgblq3yqByRSybR/ggPzBYJ3wgww8+HkYeeTac/XgzgQ+DF6+Ml87t9z4sqlcngY9jxyc6r14BH0V6Gn78VH3kQhBfEiTEVITYFyEwYgSSW/1f3A0QB0nG+XPqEoUNHhz8lCNeJCfQQVSsiJrVnOEBdPDwsKhbKXzNnIKHfuWK3/fgX7rKHx/IHsn+514JF4f2ER8aVHzxSn/pPIO9D/XqFfAxunMwwgdfvUIWNfz4qfrIpeBc64KAS4PCVITACFHVagckaZSkAOIYyT8xNHhs8OAAOtgnc3l0xBWrdqYdbM1KAnRkAI98ph76+x6az+zWDx9FhloZf2tduH7xMvGhQYUXr+yXzu33PuyrVwDI7s1bS6peFTnX8OPH4silYKOkuCjg0kBMRdiKFo+R6kByq28WQBwkeWcu2CCmGxw4kJU66NCfdhD7HWbwqLpuxU897CtX+svm+vgAPOYLPpDdDzwWhhevDD8M7GSf27V/8YpfOif3PvKvXhUA2bS1hOoVsrHhx4/FkYtArwSXBWCEmIoQFS1+Z0QfJMitbQKQmeZ/cYzkHwIbmuCYj+hgX7OqATxslsztpx5q+x72+BhrEx8H7PFRZJdkUHLghdfDldOTBvggXrwy2/vIvnqF7Nr0aVnVq/Be477ehh8/RgDpkgQEGElNRarCiGRFOyABRkoACSIA+Rz4mJWmgyTDENggwEFMOYjXq3h0pF+yompW6Ret1OChULfKfOphv+8hATz+z/hAhhbL72DzZ3rf+uBfvMpi70O/egV8sNWrIkePjQMgdPUK+JD4Bwj9GCPkmiTcCyJERUsBI5iOEHUtCiRAyc0PPxJszLTSDGmMOEoyCI0NfXBgyqGADmLawdescoeH8dTDvnKFAB7Esjn/zG5p+Bi1xgeyJHx5/5Jw6LXe8PPUJfa5Xc0Xr+q291Gv6lUMEL56FQPkWsOPH8sjl4PtErksJC4SgAhR0SobI5iOaIEkRslv764HQOI0HSR5hsAGAY76oIOfdvA1K314cHsefN2qvlMPu2VzBPAwxAfgYYWPIjslux5+Jvw4OGL13C6igI+s9z746hXwAYB0Xr0qsr3hx4/lkYtBrwQXBvlfS1wmiKmIJkb46Qi/QwKApNOcA0gcJTUJYKGADQ1w2KMD0w7N/Q5FeNjVrdiph33lynrfg39mVwJ41A4ff7N3L695VVEUwO8kbVNBCj4HWmNaEEvVVOgf4EB0mIEo9dVULWiahkBBEOsk6jAJilSMj9i0TUyDjSSlYFOb+kihYulL7UCkU00wDgLNNztub8KCzy8euIu7s++97ANrnm92ftl7nTu2ki9u2RJmX3/H8rldhMAHUTqvSO+DX71CjrxxMI/Vq7AvafL+hx9zgLRIAtKKYCqydhhhpiMKIJFkAQgPEodJAROBBjPdIMBBTDnyQUd8xYqfdlQCHvy6VfWnHvzHBfmyuT0+bm3Ex6QiPiTAR5qNW8LUo0+E33++ngUfCIEP4sUronRe7t6H1upVmhnJR3v2hgMRfMSnH8BHkHj/w4/9kUvCDQkuDwggQqxoaWJEHyTI/EvdBEBYkDhMChASGzw4+CmHJjqIbofemhUPD67nob9uZTr1sF+54svmPD6mq4UPZPyuR8LV8Unj53YRCh986Vy/92G/egV8ACD86hXw4f0PP8U4ckkYktRdHuohQqxo5YkRrGppgCSeOQHIUq2G1MjwIHGcmAFkB4ENTXBgyqGADoNpBwkPoMMeHgol8zynHvYrV/G+h+ODxQcyupKRja3h/Nv92s/t8i9e6ZfOid5HqVavAJAPntpVj4/sq1ehM2ny/oefYhy5KHRIcHHAZQIhVrQIjBDTEQIk2VECgCD6IImjxIGimDywQYGDn3JoooOYdmRbs7KHB9HzMFm3sp968H0PpmzOPLPLf2BQAniUDh/HVjL9bKfpc7v2pXOi92G2epUJH8i7bTuz9T4apx+h0/sffopy5HLQgksCIFKPEWJFi8QIMR2JgYSfkkgiACEwwoCER4mDZZXg74wkAzZi0w0WHMyUI090ECtWmHYo9Tvs4UGsWxElc2LqYYqPCDyUy+aOjwZ8SJqXM7Hj8fDbtV+AD4UXr4xK52a9D+vVK+Tsue8AELL3IfiQeP/DT8EQcgkXhqwYadXGiDZI4igRXFCpWaAEMPGw+ePJZzJgg5huMODQRwe/YsWvWRUdHj71ADYM+h4EPrgPDFYHH0eb7w9HJCcEIddOnTF48cqudG7f+6BWryL4kNTjI82bd29mntwNwIf3P/wU7cjlYACXh1UgQq1oASPEa1rEdEQHJBxA9EEClDhOcs78nm5AI4YNe3BEnszNCR0I0MFMO/IqllcUHspTD/uVK/2+hz4+AI+i4wMZufOhFCGAh/aLV3zp3HsfsdWreoDQq1edCTKQ+PFTMIC0SwISw0iLIkbi05Fod4QHCcIChAeJHkwcKCxAOroBDQYbPDgUphwEOhSmHUS/QwUe+gVzomSuPvWwWrkivmxu9cyuBPAoOT6Q4eYWQcj2cPXUNPBh8OIVXTqvfu8j0+oVwq9eIe2JHz8FREhACowRfl0LIMmEksXZH1lk8CDRh4lDJU3j75rf3U1iQwUcCujQXLHKc80KiaBDDR58z0P/aV2DqYdN3wNlc+KlKz18AB6FxsfwhuUcu2N7ON/3IYkP/sUrvnRu2Puwf3IXWQ0fxwfeZ1evkNeSpk2JHz9FO3JhmEkvDxkgQmMEAUYMQBKbkiAEQIxQYg8UfdTUFBIBCIsNHhzxKYf+pENh2lFWeNitW/FTD2N8AB4GfY+88XEyIz4mCoiPw5LPN9yXRhCihw8E+FAonVv2PuxXr76Z+RYAia5exfExk/jxU8QjF4SeukuEMkb46QgBEh4lYfEHZYDYo8QeKvbB75t7cX9kjYrFhgI4kAg4yooOe3jor1tVd+rB9z30X7qSAB5lwockKz4AEGS275AmPhASH3zpXL/3Ybl6BYAc6ngl+5O7wEeansSPn4ICpE0SEEDEGiPaIImiRAByISwt1ZZTQxwlXDQBkUvmXthPYwMBNuIrVTw4FNDBrViVFB5aPQ+Dknnh8QF4KPQ9mGd29fHxZQHxMbR+OT+NniDwofjilX3pnO996K9eAR8pQHa/TPY+AJC2xI+fAiPkhiQ0QMQEI8ogwQUxjpLF7wEQpBEjjpPSBwDpygkbGuBQRYfutIMvllvCg+956JXM+amHwcoV0fegX7riv/GhjY+t1vhAhm/fFi6fPE3gQ/nFK/vSuW7vg1+9QnrbdpK9D4k/v+un6EcuDgOx/2pGVrQojPAgAUZ4kMSnJMhC/2C4eXOpDh9xkDhOSg2Q57uAiwg2ItMNEhz8lIMoklPo0J92lBse3LqVzQtXPDzU+x582RwBPPLHx1c54GNMrfMRx8dn6zenOSwIuTT19ZrhAwE+DErn5ex9IGfOngtvbX0wsnoVxUd4NWkaSvz4KThA2iUBWROMENMRYl2LmZJIABAEGMkKEkdKaQDyQHyyEceGEjj4KYc+OqoOD7t1K37qYY+PCDzUy+b8BwYrjo9P/806Qcht28L1i1eIDw3av3jFl85L1/sAPiTs6pXgQ+LP7/opw5FLw98SXC7sMUKDhJ+SACWrAkQBJA4WzSxlyNxzXdrY4Neq7NHBTDv4fke14EGUzCs39eD7HsX8xkcZ8ZHmk3X3htGHHwu/XrzMfGhQ88Ur732sMv2YHBkjVq+Aj5D48VMSgExIAqKLEUWQ5DMlWehrAIiDpML5q7e/Dhq62CDAgdUqA3QoTzvs4YHw8PCpB7Nyxfc94i9dOT5Wx0eajyVTT+9V+NaHwYtX6r0Ps9WrNGP972V7crceIBOJHz9lOHJ56IhdMniM5DUdYUHCTUnmD/Q2AIMAiaOkJFkYGCSwoQEOfsrBowOh0aEPD6BDCx58z0MfHnlPPexXrvgvm/MvXTk+guADOd1zUOFbHwovXnGlc/veB796hQx2dmd9clfggXQkfvyUBCCbJLhUWGNEHyRxlPy5a99/QeEgqXBk5Y7Ehg44+CmHJjpMpx38dzx4eBisWxm8cMXDQ6HvYVI2zw0fx4uDD8n/42Ow6Z40F46OK3zrQ+HFK6J0bt774Fev0vzD3t2D5llFcQB/sEFQHGoXo7YQKIiIkAwdxI/qoENBUIg1mw1+BaxDUCiCUlFIdNCksR9pKCW2GJtONYtg2pCKaIuKQbGDOGQpGC0lRvrG8Xp4Gs7g2164f94/57mXc+APGd9sz4/zcc8uLIYD/QPJex8af/3cK6eSj4dFiX5gGGCEABIMJX8OvAYgA0KJw6TJANkOYIMHDnt0ODwMxq0Muh7cE7v4vofjoxP40Bzfcn+49OMS+60P/OIVvnRuv/eBj14pQN7r3ZG096Hx18+9MgTIsCRoiBjhgwTpkmjiAOGDxGFiARCFBgEbMXDgo1U4OjgjVg4PBB74knl2XQ983wNfNtdLV4TXzaP4uL3Z+JjayOzDTxPe+iBcvAKWzs33PnB81Hnjji1Jex8af/3cK0OA9EQ+NiIQYWEEBAneJdGs7HrhZkhwmJSX+uhAHBqKDaC7YdbloKGD3+0oHB6ldj3w9z3wZXPamd3y8XF0I+feGSWf2zVdOs9p70PxMTczC4xeaXoqL6/cSj4oliRBEsgYsQdJvFMCQMEMJQ6UDgAkBo04NoDuBgCOLNDh8CCMW5G6HsYndvF9D/zSFf7Gh0bhkYIPgUdD8SHpujdMSn744kuDc7uZLZ3z9z40s2MTKD6WKi+vHEs+IoYl+qERwQg2poV2R3CQoCjhI4KPE0eKJpJ/BSAfTUWgAWCDAA46OvgjVviYVSo8CCd1Dcatcu162O974JeuIHwIPJLwIfBoEj7qnHzwcYNzu5ktnfP3PjSH9ryUsvehGfLxK6+MAdIjCRJNBCIARpDuCA4SHCVRgDhOAMAwAYFHAcLEhj04cHTYdjuABwSBjgcXHiV0PfgndjNYNi8XH0c2Mv/2iMG53SyWzoG9D2j0SjPyyBOpex+CD4mPX3lljpAl/dAwwAgBJBBKrq38FVqt9To3+Zh3pBSS1aMzCg0AG2xw5IcOMjx+KxQe+GndPLoe/H0Pe3ycSsSHwKMR+DjcdU+YuvO+8NPCeYtzu7ZL5/Z7H23Z170tafSqxoePX3nlXssyhiUJEv3wYGEEBwkfJWuLFxQgLY2CxNNMuEC/+5/zF8nYUHBgXQ4+OnLqdtjDg/CYoHHXw37kirzvoZeuyA8M4vhQeJjg4/Cm6zn91G7Fh+m5XXzpPL+9D40uoKfgQwHyqo9feRUAkB5J0OiHSBQjeYFEURIDyHeCjVadDXg4SIqLAkShAWAj0t1ggqOR6LCAh4ADgAdzwRwftzLtetiPXEEvm7MvXeH4uI2Ej1s5+Di06e46356YBfDBObeLL51nt/ehOfn+SA2QNHxIfPzKqxCELEqCxhYjOEhwlChA2rPuICkPICbYUHDQuxyKDrsRK4cHNm5VXtfDfNlcL10BZ3YLxofms4d2AfigntvlL53b731oxvoHEvc+BB8+fuVVEEAGJUHDwggfJDBK/p6b/z8+HCTlAyQODcWGPTj46MBHrPhjVvRRK8KeB2HcyqDrwT+xy9/3wM/slo+Pgxs5NzqOPjTIP7eLL53z9z7w0SvNu/IC+t4kfNQZrLy8Sij5wNgsCcspScAI0B0BQYKj5OqHk4qMtKw7SnIDyOJFAjZgcPDRwR6xKh0e+J4Hf9yqqK4Hvu+BL5uDDwyWgA9Ndzi2rQ/Ah8G5XerSOW3vI5bk0atXqq4g2Vx5eZVS8oFxRj8+cIzg3REcJDhK4gBBQeIoaTxALjCxYQ8OBjrwbgdhsbxR8MD3PPhdj+JHrnTZnH5mF8fHiYbj45Nbrufs6DiAD4Nzu/Slc/reh+bU2EQCPhQgZyovr8IAMijRDw8yRjCQEFFy9YMjNwKFo6RUgPCxgYMjY3Tg3Q5DePD3PPjjVnjXg4yPCDxY+x44PrDXzQvAx4Tk+AOPKkAI+LC8eGW5dB7NwT0vJoxeaffDx6+8yiv5wFiV6IcIASMASKhdEkXJldf3Y7jAUeIwsQZIBKSX2d0NHBx8dOAjVg6PBHiQlsztux5G+x66bA5fuuLjQ+Fhjw+J4qPOAck3n37Oe+Xc/uKVwdJ5PPt7d6TiY7Xy8ioUINOSoIlgpLEgAVGy8uxQuNZq1WmZRFHiOCGntXIFg4Ziwwgc1uiw73bw4cFeMC+364Gf2OXte+CXrmivm2sUHg3Bh+SuMPNkv+KD/tCg/cUr/tJ5PG2jV3F81JmuvLwKBUifJGgAjFiCBEeJAqQtChJ7mDhQOhcCNgBwMLocODrwESuHB2HPA1gyz6/rwd/30EtXjg9JDB91xiXff7XAeGiQf/HKfuk8CSDy/kfC3ocCpK/y8iq15MNjWRIkwQAjAEg6g5I/nmkDCAASM5g4UhIi/28EGjA2+OCwRwfQ7eg8PH7pEDwu7dwdLk+fDivzXwdJ/fevO58D4NGB61bAkjnQ9Shk5Ip/6Qo/s4vj45g9PurM7d1n8NYH4eKV+dJ5PB/3P98+ehXHx3Ll5VVyyYfGsEQ/SECMEEDC6pJoIugggMQeKLkCphO/F4AGgA0mOAjjVQA6DLsdODx+3v5YjY21tbUb5veht5A9D/64Fb/rkcHIFfCyOeHSVYH40Exu7bV868N26Zy/96F5s3tryuhVeLnqGq68vP5j7+5CsyzDOIC/y9MI7Yugk6UnnpQRO7BMog4SitqgKCgDK4xhEX3AygNhTJyZGQ7UtCQrCtMFIob2oa1IW+QsrKyG1czNj6nbO9zO7y7esQvbsy7e58/+7/08PtcFf3a47ez5cX3clzlA6iVBY2CE0B2J2iUZGxuzoIGjxJGStWDYoIOD3+VQdFBGrOLAQ4Fhw0O7HkO/9So2psqI5JeFD+Pw4I5b5b3rwd/3wJfNmW985AIfb9aN50DHlthvfeRi6VwC4WP3Rx+nxEcl9SUvrwIgZJckJAJhhA8SHCUaBYgGxwiOEocLEuTvB6ABYQMHR2x0MLsdtP0Oe8fjePPyUO4/ZcKjPDKe88d6w2H2ngdhyTxC14N5Ype/7wFeusLxofBIhw+BBh8fE7k+bG98opYXr3B8xF86hwDy1rLnrb2PJED87Q+v4gCkoUkSJPpxAmMEH9fCUQLC5GLvn5MQkgCJo+TyCASN+ODILDoyN2al8LgEHzY8kvmrbT0AD2DPgz1ulf+uB77vgS+bQ2d2+fhQeLDwUUnHVbNz8dYHvnR+iLx0bmfFvIYU+KikqeTlVZSSD5A+/TgxMBIBJDSUlA8cSqLDBomjJJ+BoaHY4IAD6HIAOx0wOgjdDio8FB8GPOwcXfgQDA983KoQXQ/8fQ9o2Zx36QrHh8KDgQ+BB4aPdZI3JPs7NmfxrY+8Lp1r9u7ekwofT/vyuVcBAdIqCROJgBESSDQ4QGyUOExykIG7HwOgQQAHs8vBRwe/2wHBQ8/pCj5eTcJDgWFnRDLY3TM9ex6563rEH7nC9z3wZXMbH+gDg7nDRyU7FzfD+OC/9ZG7pXPN1pblVe59KEBaS15eRSr5+KiXBIl+qFgY4YOEj5Lh/YfC6GgVyMBB4kDJSE41PkOAhmKDAI4coCMqPBQdmr6VHSg8JCMaGcXKKjzy2vWg7Hvwl835+NicEXysrbsubLjx5kj40FDwwV86t9O24K4U+JD48rlXQRGySxI0BkaA7ogJErxLgqNksH1jBSCTIpCgocSBEg8gEbBBAAcPHcwRKxse+OOB+oDgwLs7xtGRCh4jiZTLI+HCPwPhyLxFKeAB7XkQxq2idT34J3bxfQ/+md3840Pz/b4vyPjgv/XBXzrHx6/s0SuJL597FRggTZJgBOiOUECCo8QGiA0SPkwcK9OUsUkZEIAQsJE1cODowEesuN0OGx6V9As+EvsdADyGL8nAZ1/b8MD3PPjjVrnteuD7HvxLV3x8bIqMj9frrg1729by8ME/t8tfOsfHr2x8aGb48rlXcUs+TPomPlBgjPBBgqMEAAiMEhwmnmmLAoSADTo4+OhgdDv48NCcFHxMDzyS+ePllSg87HEr73qkwIcBD+xlc/vSFfONj2zjo5IPGx/PND4kcfCBj1+lwYcvn3sVu+Sj5AWJfrAYGEG6IzhICCg5tfhFAxkoSBwnWQbI3yg2+OCwuxz5RwcOD0WHgQ8IHnbOyyhWzy33GnsevHErfMmc0PWIPXJFXzbPEj4UHjXHxxrJprnzCfhgn9ulX7xCx69S7H3MCBJ/+dyr8ACZKR8iZfkZNABIegGQ1Bol/Y1LBQ+jGgXFtKPEgRI7/QIQGxo4NuKDA1gkN9ABjliRuh0YPkYkCXRMgoeVoeFyJf37uhjwsMetWEvmOet6xN/3QM7s4q+b2/i4gYwPDQ0f/HO7ES5e2Y8PpsFHeKo0Y2bJy6voJR8l2yRhIgBGAJCgXRIcJScfVIBoEJDgMHGk1Cqnn11hQYOPDXysCu9y4OgAux18ePQoPlJ0OyTD1cMjkV+XtqSAB/W6lT1uFbfrwT+xi+978C9d5R8fmq+2fkDCR7xzu/jFKzyvzJlb5ehVBR/bSl5eXhWA1EuCxsYIGyQ0lPTd9kC4eHFUYiAkcygpLmDkd8M5274xG9iAwVFodEgUH8CYFQQPzfkT/aH7pjsAeJDGrTLd9ZDA8CDse8DL5vw3PiQKjzT4WM/Bh+bTtjX5wwd+bpfS/eh8e2sKfFRya8nLy2u85KOky/iYAbojBJDAKFGYKEA0OEgcJ9xQAHIcxwYODrzLERMdUeHx4+w7w+nPv5mEDhY8kjmxcw8BHoRxq/x2PfD3PUjL5nrpqkD4eK3umtDZ/FIu8ME/t4tn9aL70+Cjq+Tl5fUfgDRJggbACB8kihIMJgZApgEljpNsAcSABoQNBBz8Lke20ZEaHoclRwQfZ7uPAGNWADyMHH10GbBgnmLcirBkPs1dDz4+LHjg+x7IsnnkNz5wfKzD8VHJloZ7LHykAAgXH/yLV3ieu3JWlXsfEj+96+U1JUL6JEFjYIQzrsVHSfn34yY6bJDAKHGk1DhnVm3EoGFjgw+OvKDDgAeADo3ig9DtSJtzJ06G7+pvRxbMcXh41yPCvodx6eoyx8fqkgKE0P2IgQ9NzfDxTsvyqvHxZOkKP73r5TVVycfKEonxcZMNkNgosWFy4cuDBjLIKLFh4mipKtX8P9UCpAHHRnxw8NHB73ZofpAXyHtmLwiD3T1JdNQYHheGhjV9O3ZHGLcClsxjdz3inNjlX7riv/EhUXjUCh8Cj4lcXUnNRq9wfJAvXuFpmTO3WnwEyZKSl5fXlACZKR8o5UkfMwBGDJCwUWLDRADyLQANJkoUJp6UsQGyAYIGjg0DHJwuR0x04N2OJDwS+DDGrOjwSGYo/PRIMwAP0rhV1roe/IcF8X0PfNk8Pj4UHXx8tEuy/cp55ItX9vJ5FXsfCpCyxE/venn9X8nHSqskTMTACBUkNkpwmAy+12nggQ0Tx0mtcu79TwjQ0EDY4Hc5cHTgI1ZYt0OSwAfQ7WDCQ3Pm52PhYP18HB78cat8dD1yve9hn9nFHxiMj49VpVmha3tn7h8axPc+8LQvuq9afARJa8nLy8sEyExJ0BgYYYPE7pJg+Ze9+3mxsgrjAH7dTzkURNDCgaJdRrQwA3FWleG4aVlkWUoGZRQoMln+IrBstDZOmkyLJBdB9gNLEe6MOpMW6YzkmJI2kz9ynImZq3/A6eEdebjc4z2+8+X93nNPPg98915mcz5+z3Pey/I/4xXBQBYAEVyYGFKKyr+HjvrQgLERDRzNiQ687aiHj6hthw8PP2c//gzY8wCuWxW2ZF5Q65HYE7t8fCg8GoyP+1j4yHJw5xex8aFJBR/79uzNjY+XShJrP2xsbj9ycOmR6KGGDRIcJX7yA0RDAAkLJ4aVcG5oJg4dAaABYAMAB95yxEcH3nb4GVrwnJv4+1ITtR3h/LroBYUHYc+Ded0q/dYD/74Hf9kcf2ZXovCIho/NGUB67FsfM8z2pcty7n1k+LAPD9rY5ARIm8RpghjBr2spSGgo8WEyurLTVSrXsyg8CCBJFSh82NygRwGCtxopgiM+Onx4hPExeglAR+PhMT4xnStDp93hOfMYex6UJXO89Uj/yhV/38N/6YqPD4VHgfhQgDQ9PiRNg4/9337vXm9pzYmPLG0lGxubfDMoLYjESfSgwwcJHyUXOl5VgNRGwIGhxKDSTMl+rzw2EASpBIWGjw0QHPHRge91hNuOcAYVH80ODz9ntnY3aM8jwdaD8GFB8pUrHB/8Z3b5+NC0uq/f6bwdPu74b3147UcefFj7YWMDAaRN4rwgGFGQxEfJ+Y5XBBsVDx8gSHCUGGS8FPnvHM8AoshICBs4OPCmg4+O41kUHxHQgcFDMz6hOf7M8zg8+Netkm898Cd2Ofse+EtXfHxsKQAfm0qz3VcrViH4SPxbH3jeuv+BvHsfklnWftjYAAgpS1woQwSQMFFy5qGFGUD8XDeUpBwfIDA0FBsRwPE/RIfmpOIjSXhoLg/+7nrnzEP3PPDXrfAl8yJbjyj4UHgQ9j2AZXP2Nz4kCo8wPnx4zBQfCpBE8YE/t4t/eHAm+CiXbGxsIIC0e4ccNkj4KPHwgYNEUWIwab6wsdG04AijA9nrwOFxLIviA0AH4ZoVCI9rVRne2q3wIO554Net0m89+Pse+LK5ROGROD4UIKnhI2b7kRcfTtJesrGxwUYONWWJk+ihhwASGko0YYCwUGI4iRcAGgA2WOBIHx2a4RVrFB8sdPDh4af/ySVhePD3PDitBwUf6e97SBQepG98SNCXrnx8fJAHHwqQNw0f+doPxUd472OWtR82NgUApP3ELQ49gzBI4qNk4thvMEJwlChMDCeNCRMb8cFBuF6Fo8OHx8/3Tuf08jWKhrTh4Wf08DEAHsh1qyRbD/4rV/i+B/OlK/wDg3R8tN4SHxunAWL4yJFV2n4E8WHth41NUSMHnHL1YeckABKkJcFREobJ1YOH3eRUxU1NScLAwFGCw8SQUkwAaBCwgYADajno6NCE0QHgIwY6cHhoxq6Nu1PrPkLhwb9ulXzrgeND4QHgA9r3wJ/ZjYaPjZq73YHu3YaPHC9f5cCHtR82NkWOHHDaqw47eggigySMEhwmApC+DCBVAUBCgAkAlDsVLZUcAaABYIMEjkTQ4cNjrpMIPlYn0Hbg8KjOkflLCHsetOtWhNYjlStX/GVzfekqHXxk+al7t+HjNt/9WNnSWh8f1n7Y2PBGDjRliR5+PIwQQMJCyeimTxUdoUzhKMFhggPFUhOFBh8b8cERHx0APgB0EK5ZQfDQXHMjfQOEPY8o160SaD24+x78ZXMGPu6R4PjYoABpFD4GGPigZtvSZfWXzq39sLGhA6Rd4rygIKGgRFMEQAItSQAlfJwYWGpS7zee61gGQ0OxEREceMsRRge+1+HBw8u5DdsQdBDaDj48qjO07kMPHsCeB/+6Fd56JIGPXbx9j/CyOeEbHyg+Ns8QH+slfd/9YPiok3179mr7EcCHZqm1HzY2vBZE42EEAAmMEhwm519bi+ADb0r4SLEEAAJDgw8OfsvBR4fmz65dEdqOWPDw0ze/IwAPwnUrwpI5pfWgXbli7nvgy+b4M7v4181xfGQxfASy+eln8+PD2g8bG87IYadd4iTeoQgFCd6S4DA5u/hlAcNUdVB84G2JYYWUikb+zgFoELFBAEezomMgi3/tio8O/n6HD49w/uodQOHBv26V3K5H8fjoJux7AM/sAt/44OKj6+HHDB91sqdr+y3xIfHxYe2HjQ135LDTU3MY8kDS7C3JHwqQQBQldJikHxwL1MjfmYANoN3ggCM2OjS/zH3KjY9cBNCRYtvh5+qY5Op0Tr67hb/nASyZ81uP2PhQeBD2PYBlc+CZXQQfAg8MH5q73I6FiwwfdbL20cd16TwHPr4p2djYUAHSVnsYKgAkAEpwmJx6cIF+jXlyUpKBI0cUESSY1OLEQgAIAA283cDBwWg5CkRHf1Uu/liOho748KjNmCs/sdhDB7jnYa1HAB68fQ982Zz/0hWOjw0+PrJ8ufwNNj6KAEjD8bFz9dqc+NC0lWxsbLgjh5seiZPo4QgACdKSFAYTwYcfBUl8lISBYkgpBCAANBQbUcERHx1Hb+a4tB8EdKQID82Fcn9OeEjiwQNvPdLChw8P+rJ5BHwoPPLj4/2b2b/j8xTwAQMEf3Z3dj18eAB5sVTqKdnY2DQEIG3e4QcBCaMpUZSEMzF6SdERjN+SYNe3DCqNiv7mkU2fKDLAVgPARixw8NGh8NA84obf3pgSOpjw0PwjOdG5JT88+Net4rceMa9c4fsejJeu8G98EPDxXqnFHTlULg4fGjI++IvnPj40Hj6cxNoPG5sGImS9xGkAkJBREsTJlQO9efABNCXMxoSPFk2lTvhw8DPlZzJH/mPvbn6jrKIwgM9aEQc2ElxYQ0BQUXRhImDpwkjARKvGYKJA0RgVwVRJDPJlQTaopcTAooRQE1koGiogX1IY+baIAkKhFGGAfrFi/oTXk+nkZDK33LzzZJ7eDnNO8my6mPTd3V/OOfemBSCKDHJXQ7FBAAeny4GjIz9X128moKNs4aHp6boWHZxUg8ODOW5VrrsepcGHAw/8ZXN82ZyPj5Gx8PHthCmGD3fxXPEhiYOPhoSVldWQAiQpyQAHqAAocXHSu98DEDAZsFuiMLEA8QKE1dXwdzdI4AiPDje39h5SSPC7HfwxK42iozh4aPpvR1079xP2PMjjViXreuD44F+xS142B266gh8YxPGRzda36gwfBaNXn4x5uBh8ZCTJhJWV1dBWu3RBJJFED0sgSECU4DBJNzlvFigk6DAxoAxJrgtACNAAsMEFBx8dbo6NHkhXY/NwQ0dweOSnffFyAjxKMG5VQV0P/H0PfNkcv+mKgY8HCvGh2fl1k+EjL03zF8TBhwJkrnU/rKzClRyG0oMdmE4Pc5RcW71B4eGJIoILEwcnKFIMKvkAWbMhNDZwcCBdDj46NEdHP5nN5YbG0qKj/OGh6eu7HXVf+S86MGmGAw9ozwMftyr/rgf/it3Qy+b4Gx8gPlYm7o+Oth02fOSyffOWYvGRTlhZWQUFSF3hQQkECY4SACZXl6z1wIOAEjZQcLTw4MLfVfF+W/fWHwFoANgoR3Dg6NAckbRPqyXsddDRoblNgkd+rvy6T7FB3/MgLJkTuh6hb7nC9z34y+YShQcVHxtnzKz4267yR6+WjJsQHx8DqUtYWVmFLTkcpSSRRA9PfJAoSiCYdLxcB+ADRQkfKIoUi6ZfLho4A0DDgw0yOMoBHW76/+0goIPb7fAvluPwcNOfzZ+LlpHgUYJxq3u764G/78FfNuc9MOjHRzY/r1xj+Mhl3RtvKj4kcfCRSlhZWYUvOQTVSJzDk4IEQAkbJhcBgJBhwseKgqX80ZIpTME33pHIRQMoNHBsBAQHHx1u/pBc+rIxJDr4Y1Y4PDS3OruifROriXse/HErvOsRHh8KD8a+B75sjt90heNDc/TgYcNH7tar+PjQ1CSsrKyGDUJa3MNSfJS0oyjBYUIABxsm4ZNhhfC/CkAAaNCwgYOD0+XA0VGQE5NfZKGDPGbFh0evpKe3L5vLrXsBeBDHrazrwd73wG+6wt/4kDjwcPCxsXqm4UOyR0avPhzxYCx8KEDs0cG7VhRFVZKaXBryUpv725SElRUBIFWSjCTSxAZJGJTIuwU+JBhQyjYKED424O4GDo7w6HBztXkbgI4A3Q5kzAqHh5OTi5Y58Ag7blX+XQ/+FbtBbrqi4WOFZPuKNRWPD0m0alq1/5VzFx+ZufboYCE46iUpSSaKX2clTZLahJVVKUoOSg2SSKKHKQAkAEowmPQdP+283lyAEgNKGaf/5BkAGgg2goEjKDpSo57QnJr6KgsdQLeDtN+Bw0NzU0ax9kysBuBBG7cK/Zp5+JErfN+DetMV/saHHx+rRzxUEnwIOMoaHxsXLi4OH3btbj486rKIKE1lchgx2FlpQSUHpfRgB6pTNJTgMOnZd3gwgMRFiUFlmEe+H4MGhg0KOPAuBx8dhwuS3tMGoKMU3Y5wY1YKD0WGP909fdGlHXsdeAB7HtRxq/hdDxu5CrBsjuEjly1z5lU8PuTKXQQfaUnS4BGlI161GESspGCA1EoijXPYglFScpjc/GnXIFeI3mGhxBBTHB5KEhwaMDZwcLC7HDg6fPDQ/PPeEhgd/G5HeHjk5/jHX3jgAe958Met+F0PPj4II1fAsjn7mt1B8bE8cV/UtmNXpeJD9z4Wjxmr+MjGiw9NbYWPWqVijlXVS2rcZPHSEON3MpL6hJUVUnJwSkkiSXRisAAgYcCka/V6ByASQ8m9E4VGUGwwwBEeHZpDeek5d5GHDt3toIxZ8eGh6Y1uXL4S7X7sBWDBHBm3ApbMK6zrgb/vgS+b4zdd4fj4rvolAB8nWPgIkqVPP1M0Pt5JJFIV3vXIeNBRj3QtcovpLR6IpCTJhJVVcQCZXKUHJueA5QEJFSUuTLoaFCBA7hhMyiAeZMDQUGxwuhs4OAjjVX50uLmw6hsCOgJ0O0jwyE/Hjj3ogrl/3Mq6HgA+6CNX+LI5jA+Fh2b3pmYUHw48yhEf6+cvAPCRTVWF4qPJA4+aUnVXPBBJ281ZVghCGiSRm6cAlPhgguOk4/3PPcCAUWI4GUZpf3QagAwAG3xw8LocODo0baMezyb1yHMgOtzc5nY78MVyHB6aW9092RxbuNSFR6hxK8Jr5gA8wt9yxV42p9105cdH47NTFR6ViI+WNWtRfDRUKD5ahnI8KhJo3GWxPWMIsSoWIElJOsaBywMSbrfk3Kx5+n5BASYYMDGgBMj52fMAaADYCAWO8OjQHMyls/kHBB34iBVhzIoMD831js5o54TpDHgQlszLuOvB3/fAl801Cg8QH+7IVX52bWquRHzo0vkHI0beFR+Su+EjLUkaPrTrUTUUXRdDiJUWWnKQqpFEEj1soSBBdko0foA4gVGC48SQQso5AQgADQI2WOAIjw5NciDHn38lNDr4Y1Y4PDQ3bw3kwi+/eeAB7Hmwx61K2fUIjw8HHux9D/ymKxwfjc9MLSk+UgR8MJfOF40Zi+AjersCF8+zi+JutUqSQ7t34iLEdkKsiio5SLU6By4AJd7xLRAmf09/feDRNBcfOEr4ODG0FMT3jQKQQNBQbIQHBw0dCg/N77ncOHKyhHsdfHj0BoBHfo58tBRYMEfGrazrwRu5wpfN/Tdd4fhYlsve77c58KgUfHw2bjyKj9YKxEdt5Bbw8jsNIWcTVlZFACQpyRQettgoUZj4ceK83qwgIaCEhBSLJ+fnLAShodggdDdgcPC7HDg6NAeSk6K/3v00DjrCdzskPeHgobkmo1it46cBC+bguBW+ZI53PcoUH+sIy+a8m65cfGya/VoMfJxk4iNYvpo5Kx4+NIqPjKSqwvCRHOS2q5RncbwGSFUJENKUsLKKW3KQqtdDlXMQQ1GCw0RxMjhAYqEEh4mBhRf3ezvlprPjFGgA2GCCIzw6nPzP3r38Rl1FcQCfpSaINZHEuDBNTBUVybAx1YXh6WtB2PAoIaaJCXRhkBjDIzysMQFCIV2gNGwsCBEIj1KgFSh0rK3EQPqiUGg7nWm1MVAW/ROuN0NzMp1bLr/59nd6Ov2dk3xXprG4IPfjOed3/kumcHTM4DErHB7+3D17GdjzYBu3Eu96yI9c8e970LI5Ez72zJlnEtdueEauAHwQPGYrPjLZEsHuR90kOx9F3jEtvBI2W2yKkJEw3QfRyhchCefBFRZKcJw4NwsIHKww0bCHAHIIRQaODV5w4F0OfnRQrtp07TogiQ6uMavQ4TE0/C/lj4ptHniAex7hjVtFo+vhxwfBg2PfA//SlYuPHbEXzYlvvoskPo5u3T4VfCQiiI/F/kc+DpAARwfLA/x+Caczo6WVB0DiNsYTHCU4TAgenqAoUZzMDIAA0ACwwQAOoS4Hjo6cNL+7hGmvA+h28I9Z4fCg/GOS93rN+ZKPQoCHwJI53PXQfQ9s2dyPj30l7z9n2Vzx4eDDZn0sFo3/u+5/4FcCXQm4fAihkS93PGxxTEsraNmHVWXuQwtACQATGCB+mOA4UaRMU4bO1APQYMAGKzjk0UF5mWJ+t+mtOQ6gQ7bbgY9Z4fDITvfZS8CC+Ywdtyr8rgd+34N/2ZxC8KDYxXMGfBA8MHzw3/qYKj4qtfth0uBYVK1n96Pcptom7UFI8fP+ndoF0ZoqQjptjC8t0wYTACAASgCcKFRCynDjTRQaODbkwSGEDoIHpXVFGTc68G6HPDycpIeepnnTVmDBPIxxK+16AJ/YFd73cPFR+1VFAHwQPBjwIXPrYyPd+oDw0akHBzNVDgIkEN4yux+TV3WQJXndBdGCyz604jZ5P9haUJj4Q5eaUXDgOOEHSuEjZuq/vwUIDA1+bODgwLsc/OhofHn+hKQSfwHoYOh2SO13BIcHZaCn19QtWsG/51EIXQ+5kSuGfQ9+fBxcVJrHZ3YpyIHBWYSPTCI50uO5tQEDBPz5ziBHCvWLWFpTRUil8ygjlAAwwUIAcUMokYUJDhXNeB6lhnBoYNgQAAfc5WBDR0NW/i7fAqNDvtvBDw83w5ncu3qTY88jnCXzyHQ98H0PfNkcx8fuOa+apnN1io/88ZF5yOrdD7r5wQ2QYhunAvxc3BkX09LKt+xjqzP74ZWgICjBYWLvEzjwAFAiA5Ro4QX9M6HQwLEhDA55dLgZ6UuGgw6bkdkLDydtPxwC4CE0bhVK12Mm4sOFh/y+h4uP7bEXzLl9VcCBwVmND5vn4iNdFotF58K2v6OwihkgVF6A+H8u7eyOaGnlCZC4jfElwQyTO59t8FxrfiIFExwqmknTWlxK0GDAhgg48C4HPzoocymmY+d+MXTgY1Zy8Eilh0wq9TTXyiqABXPGcSvmux7y8ODY9+DHx9E1G4DP7FJkDgzK48OUZY1eRf3rV/QPZjZAah00aWnlW/ahVRn04cbRLbntAQiAEgQmChc4wf98FpoANBiwwQEOzi4Hjg7KlfFcf2exBx3AXgd3t0MeHpS+7h5zPr4c2fOgAPAAlswLuOshv++BfOmK8FG1qBS/8RFtfNCjOaIAGXN2MORGsDrBJfbKmJYWiJDO3McYhBKgY3J/T5WDDCxPUJxopiHtayp8yMChgWODHxzy6KBcnvt2Jj0/HxNAR+HCYzCVptxtbDIn5y1g2PMA4CHf9ZAfuZLf9yB87C2xf6dda8oZuVJ8BMDHhAevLqCbumkESLVxqzroZ4N1EV0rLIDEgz7cmkPGSfK3C4QInjxRnMjHQvMggAwcG3h3gwEccuigXBpPYvnaWYYOfnhQBtOm43Qdw55HKEvm0et6+PHhwgO+bO7Hxy67dN5w7ISz7wHc+IgYPjKJRxwfcQ8gMIDgPztmUxz099Z7IFqhlX2QVdo4DzdOlLQtWEZXmimPLRpsCBD8MFGkTEP6j57EoIFhQwAcWJeDHx1uks2tDOgQ6Xbg8EhbeKSCwyM7tw7V+OHBP27F3/Uo+JEr/n0PPz4IHgz4EL1wjnztysWHjl5RJwEABHqIcJXnEOFYvvc8FCBaYSMkYWOcMMEkdek6wcMJgBJGoChYgmfSP3fqShMADQZssIMD6HLwo4NS/9Jbpu3LzYLdjoKEByU5mMqkce0mFx6y41b8dz3k4cGw74HjY5vNqZ3fM3xmd+biw8IjLHzog5UBIECNZdAy3vlQgGiJlX2kFduM5T7cPCiB87Dm18xlZjej+aAEh4k8UKSQI/Z73WSABmED6G5A4EC6HPLocDL8sD9sdMiPWfHDgzKQTJmGtRuBPQ/g61bIknlhdj34P7GL73v48eFfNld8ZOFjXSw2ZqOfbZUHSCIbHgoQLfGyj7RVNobyyuS5AcLkTzt2NZjpfDzOI6MhwkTBMr0ZpbQuWMYADai7IQAOcXRQLtrc3rFXZMSKf7+DHx7ZufjFeoY9D2DcSrjrIT9yxb/v4eKDls25b3yI5sdPPw8RH5mUx7QYdkDgqs2+vK47IFqiZR9ptTbug45Qkj9MEm98YO7uPmBGBgafXmR2w4MSggk6yhVFyIyy5M7qTYQMHBoebMiCg6PLER46ctI4/+PCQAe+WM4GD4r9u+xBR7c5s3CpAw/hcatIdD349z0oBA8UH4kCxEdD/WUOfNTFtHydhFocINTVqHxG6mj/w61OtHNDv7eWVkgAKbJJ25jcNOUJk9YPV5oHNcfNSD9dYSZwBMkjACYwTggoGo7crzoiAA0AGyzgkEdHXU66Dv8CoEOw24F/0QqAB2VSeGTnQXu3Ob1wCQAPYNwKXTLn7HrI48OBB8O+h4MPBx4Mn9mVxMe3b5aEjY+0TVFMCxllwr+C5f5cuc3Ys35W74BoiZd9oMVzHmz00PPBpLV0penYvNv0HrHo6CN0eAKgBIeJAkUwQy23AGgwYEMAHPLocNO0dLWDDuFuB77fkQa6HUDHIzf9/clMetu7zClCCMFDYNxK4K6HLDz49z3Gv3Z18XANgI/C/Mzu16+9HiI+KPGYFvsldKyDQQvpRXoJXWtGVGLh8i1tK9aZCfmkLJP2zbtM1879pmf/T2ag/qpJNbfRZWVPCBwASgCYIDjBkUJQUaxkZeJ/j5b3lgLQYMBGAYCDAx0X5pRMSN+NFgAdDPCQ2u/A4eHkf/bu/rfq+ooDeJftF9TNZskeGGTrRBacwSLigia6Ro1xbiZNDCUTUGROHQo0YSiVzeC0ojK5TsqIBXOHUGSl7BYGlEI7igKthfa29Jlm656M/tY/4eyz2+bk2k/5cu8733PP/V7OSd6/UVou/eWV8/AZ6ErSkSVPhQiPEJfM8a5HoY1cQfg4Ft8LLJtHDx/x373GZ3ZDxYed3M3mQcAyaYAwIvzKaD9nmlEuOypgFX65GfHTLpSeT/8ffsgsKJ8rogSHCQ4UHC2MFz/6ePDj/+yfZ5budS8D0BDABgAOaKwK73KIoeNQWs6sWKOHDnzMKq/gMXJ5ND2MEGDPQ2PJPMyuR8RHrvx9j2r3wvnfTpwSWDbPP3zUrH6envTgEQI+7ORuJiNR6RXLEUDKp/t6YAF9rMjKSgggxS7jLsTBQQKgBIYJjhMcKparZKztXD5gQxEc+uhomJKxwWEAHaLdjsjBgzMykeZ1v8nBnofYknmBjlxxgrsek6l5uJzxAbxsDuBDddk8EB8OHig+xm3vI7iIqHjqKFSOAFIMAiTmgcnKShAhZR48AJAIoASFCQ4UQ4uXbP/NH931SDAyNLGBgwPpciigw0/7xtcU0CEwZqUKDz9tb22n3V+fl7txK/muhzw+9E/spvLB2vU5WDbXx0dj3Yfkls0F8MEpK7LKBAMJbxRKDiBc2Xw9o8VfYLfdHitxhGz2sCEHEhwlOExwpFiyykjdIRga8tgAwCHZ5QDRwfAIzM2pJGYuEECH1piVPjyGRy5zLh4+TvHv3RH+uJV1PQLggePjlZkl3r6HzLK5Pj7qtr1Dz9zwtazxsTwIH7b34RU4DjWmBJBYlt8zWWRlpbMPgoOEUaIAExAohpYM8lmGaX/0lx4sPGgIYEMdHPro4By8nkNdf9gNoEOi2xF5eHCGhifSd6Gb6h9cyvBQHbcq+K4HfmI3ds8DwL5HNJfNtz3xJMMDxgfDYxIftvcRUNBid6UCQE5n2f2wRyWtclPuXGexy5gLTSQAGliXBEEJiJNQkGIB89/Lf6czix+hJgAaODYEwIF0OdTQ4cOjfjJH73hIAR3c7RAYs1KCB+Njakbo5KbXPXhAjwnKndYNr+uhgg/8ytXBLVu9kSsAH5HY99hYutDDB8MjBHwsdXsfS23vI4xl9HGXkjwCSMK6H1baCFngQl4AkACdEhgmOFAMLEAy+TxSj1O2OYQwKgBoCGADBwfe5cB3OnB0cP48mb6GowA6ItDtUIZHejobj9GeW+8JgIfwuBV+4aoAR6646wHse0D40D6xyyNXcvhwsfc+QngThCspDJDk1Ua/GEd+2X6PlQpCVrqznYwOFCRCOyU4TnCg6AeHgmZSj1V2rKxkaAhjA+9u4ODAuxyy6OAcuH5OKq3LngPQIdztiD48OINDw5xjazai41bAkrl41yMC+PB3Pbjrkcp56WVz1a7Hm48uScEjB/ioLLKCik/c+hW/wp8tcSmbkhLg+5Wl50o/k12+ssqbcgCJuxCHQaKHEoaJAk5QsBR+MvuMhvY20KkflgHQYGwodDdAcOijg+HBuW4iI+cvhIsO7nYojlnpw8PLwOAQdbWcpn2LH8rVuJV1PSbx8f6qZ7nrIbvvwVF91Xz9nB/kCh/xIqswEFIZgBAFEHl7H0kXG7GzUgVIsUvSQ4gCSKD9EhwpStGGg3z+47oh3S+9QSdmL8oOGjg29MGBo4PBgaPDz9kXXr0COoARK6DbIb/foQ+P9PQPDFHb9l1UO3uBBw+FcSvBroc+PmL3PkAnGxIMDx65KtBl85hbNF9V9OVQ8PHY1fGRtL2PDAt/pTyeB/gYt7O7VnlR7u2AEpdxFw8fCihBcRIMFBwqFi+fZRIHkVHqchBpchAJgIYANoTBgXc5JNHB+dDl4LdKAXQAI1ZAt0NizAqHBweBB+MjPU1Vr9KOG28G4CFxWjfUrocqPrbevpgO1+xkdAiMXHHyqOuRFT5WwPjgpfOSIquwAZAkvxIuxblaiDd8WOU7QspcKD0ASACYKAJFPhEAhFj4s/738ChdqolTy49+CkNDHhx4l0MfHQwPzv7rbqLOd2oBdADdDvUxK2V4cAY5PR2ddOS5F6nmxjky41YKF6604XH2XPuUroc4PtS7Hj4+viSFD6qwxwblXkifHiFjLmWC3zNh+LCKEkJWegjBQKKPEhwpDBXGiiUdFRz+rLL4jP/R2U0dz2+iE7f8WAAb2uDQR0d6GubeDex1CKNDfr9DAR6MD05f/0SS7Z3UXL2Nds4u1Ri3inTXY8fD5R485EeuOFqPCnLXw4XhgeBjWTb4sKVzuHAQcMVdSkL8Pptdxg0fVpErd74z7kIujA4FlAA40UaLjxdO3uHBh4SPCfmMtn5EF17aQqdcZ4QhIdbd0AcHxwdHaOioS8+Mm6i3/jCADgF46O93MDrk4ZGeAbrU159K67vvUfzOBz14XCtdDx8fPjxevuEbVFuxnE41JFLwcMFHriKEj+PuwtVb7sLVLybh4QI8MAjiw5bOcwmRmAsFQKQc/HtLXGIMD7+SLjZeZxUJhCRdiMMgEUEJwwTHiSXq+dfQZerfU09nH19LTfPulcCGADiQLoc8OtLT9LMVADrUux0FBQ/OpYl0nmihxtUbaMes2zx4qHY9FEeufn/7XXRg02ZGh8s1M3L1J/eux9pvz3L4YHiEjg+Gh48Pe4Qu9wgp86DgdyoSLpv5pO70J3crJ9EyRsEVs2tXVlECSLHLmIeQnKOEYWJAKZhk9n/2TweSPgeSzqrXqfX+CkqIggPvcuijw4fHvhnf/0KGPu4ARqxEux3RhkcwPhw2psPH1PSlcu5gI9Uvf5ZqZs334CFwWleg64HjY8vc+bR33a9dt6PRYaPDg4fsyJU+PhrrDlBV6cIUPBgf6KUrDB9jFXbxSnMkK0ayddpGrqyiipAFLuMeOgCUyMCEcWJIyWNY4PnUy0jLGerZ/j594lDS4lBy5DsLGRv5BQ59dOxNS+vTG9TQgY9ZFSw8vPT2XkrlbH2CDv1qPe2ctxgbt4rArsfbC++mfes2MDrS4AGMXGnve+DjVrEnVjl0fIXhkUt8VExkvMJeOlev4NEpHB72urlVISCkHAAIgBIAJhhQDC0wKASAgYd/R8YGh2ng0FHqfnc3dWysppP3LaGmRT/BwIHvcuDgCB0dfvZ/cz6N9PbJoUN+zCra8OD48EhPTw+HLrpxo+bYH+nAsmdo1533hzFupdL1eHPubbRr6eP0lzfeprbmVkYH5xobuap9oYrHraTw8fNAfHDKi6yAEj+ZG3cZB9FRaXseVoWGkJUAOFCY4DjBkWLRxkUwNJCkfrdG2y9Sv8NJl8NJ+4vV1LZ8DTU7oBx3QBEDhz46OB/MKOF8/MpWDB14t8PgcTV4+PjgJJO9X0h3sodad++hxIbf0v5lT9N7i+6jrV/9rgcPza5H9cw5tM11OPY8tZr+uqOW2k620rnzn3A8eOAjV4r4wK9bVZX+j727f626jgI4fsGnaAUjojTNio0MC5U0CHQ6f0khyIWbQgQOWjmfSoWmgk+oqGWU1pw67zYfQqd3sSed23xY0zn1bvPiTCvUTPsD/BNOp++Vw90+89vlcI9n37tz4A37A/bDffH5nM93Kp16YIxndlODj4JQqDBkE4STkVxss095dtJhk/bz94N/qjBIiAChABMOTgwsCqBgAIMDDYzfbzWnvHr2hKFzzTavsx8VQvPsfDiD8a5V6aODeibeiaz3NdEhcM1KAR6UNDxcfCTWc52Cq+0d0Fp+COo374TqxSvh50+KoGxqrtfO58em/NRjx5hs2P3udCidNQeOFC2DyIYtcAqx0X72AnReiXoROhx4DKkrV7TnsWn6zDg8XHwQPKS/8UH4sBevbGxsAoiQWgycHJSowISPFP00saCACy4y5Pu//+/bLW3QW9OINUCs8hh0lGyl2ovXQFPufOCDI6XooA4nFC0/ykDHoDztCAo8KBceTsnCg+ruiQ3Q9T51dVPQcqASWvb/V4VXc7/O7A/3qWlfGNrqGuHqtS7qytVoYoQOBj58Tj0krlxRT/FZ3QVQRPAgfKTmpSsePmpDNjY2NsEDyMNMLIY5P8wYKNEBCh8rlosKAWDoQ8PtYTLRB//00eHC49Azr3nV5sxTRIfYNau0h4c/PvzhQXX1OEW7uvt0Ldo3BEdy+JA/9eDiQwUeu3HBfMlzmYQPxrK5BD5iBfbilY2NTTogxImPEgWkqBRkOOgDg48NOXC4DTJ0uN043ZoCdEhdszJ4sODhjw8BeDDwIblorn/liuCxNA4PwofAsjkHH/cNHzY2NumAkCnYIwx8I5TwYaIPFYuLCn1oyGPD7YEPOFTQQVWNite0cLEPOpRPO/jXrEThQbnwEN/zcOFBCcKDYsNDf9Gc0oBHMsvm0t/4gIJ4jwrsuV0bG5t0GfyxNeX6gaOP8E484N/0Q42BklTixACjA4jgQ4MPDifGKYcMOggebr/HegXQwTjtENnvCDo81K9b6Z968D8sqAKPzz14eDGWzRnP7Bo+bGxshvLgtxPyMMCgadpcOIcvB3WWbINY5XH4szNKP+ZkYUI4sRTTBwZBQwgbBA7/7j+A6pcmyaCDcdoxUJWjxsP5VRsZ6OCfduhfswo+PIJ/3YpOPRSuXInBg/DBWDYXfGYXs+d2bWxs0hwhhRg8qZbZ+dD26XIPJjcjjWyYYAYUA4YANNjYIHD8dd/7wjjVOPNjAofaSYeLDqoCO/ziRMZehyw65Pc7BODB2/NQuG4ljw/9RXNK7DndXfiq1TKChxdv38N96Yr/zK7hw8bGxhDi5AuTxBMTvMpFPxSZODGoBAQWfGToY8MFh1sDAoQNDhl0EDyokePh0q69DHQw4KG+38H4gGCw4BGEU4/AXrmKlIdh+5wP4YvQiDg6KPfUQ/+lK2plyMbGxmZoICS7CoMnlDRMGibkAOLEg0n3noNws6YR7t687f7I5APF0CKLCXlgEDLY0GCcbviHXxinECCDFh2JVU+a7aAjUKcdwYcHf8+Df90qIKce+leuwiXrYP3kaYDwcPAhvGzOx4d9aNDGxmYoTiQjuwqDfiEski+J61x0aoI4cX+Y8qFiKcCCgQxVbLjgcKufmTdo0REe+Sp1ELuwYScDHaKnHcGEh/6exxA89aBSut9RtvRLWDV6nAMPxr5H6l66MnzY2NjY+M9JRAgGGESSjaDCq3bMlMc4WYY42RrHSWRAnBhYFEDBQIYgNFjYSK578RAgPuCQRQflooM62K+jb7wHF78tVUIHwUNisTzI8JC/biV/6kH5w0P/ytWx7/fADrxmtRjBgTn4EN734L90ZfiwsbGxcRGSbBFKBizxfZNFgDjxrnX1xpfhHz8fbCnAgoUMPjQEsEHgcKvPyWOfcsijw618xDivI69Pg9av1sOt7hj3ipXCaQdjsVwfHnLXrfRPPRQWzfmnHfvwtGNt1ltQjNjww0eR8L4HLZuzXrryqg3Z2NjY2IRCJzKyYxj4dZJZJIU1vDkDmnPz4WLxGriMQIlVHEegeHsn/X8EG1hcVMgDgw8NeWy4eV8Yr0OABAMdA3cA+2XOQujYV+Wgg3HakY7wEFwwV75ulf6nHnTageigHHgI7HvILJt7xfLtK+c2NjY28anOyMrEYhj0ywclDKwIQ+bU1LkDAuWPy9EU/OgOABY0ceEigwsNAWwQOJxqc+YFER3U/oTCL0yAuvzP4FJZpSo6/Pc7DB5+8NA/9dBfNK/HJ3S/wyd0V48e58ADe/r7HoYPGxsbG0GEPJuVicUwoDJ8YmBFGzF1eIJyBoHSile8OhAomAcUbPAAQB4VksjgQ0MeGz4AEQCHHDoIHtTwsdS+hCIfLIC2b36E2IV2hdMOxn6HLjwU9jykr1vJv3DFx4eLjsQrVlTy+HDhwfm4oMyyOeQbPmxsbGySRkjyZTgx8aJfI56iNOXO74OUG5EGL+eqlz4cFHChCA0+Nqg7d/t2fvWmgKPDhUdZQnuHv+J1+J2ZUF+4Ai7urYDeaHcK0CF7zSr48ODveaT/qQftdXjP527E53OXEDacHHho7HvQsrnhw8bGxkYeIeJlBLPI6MmASPH6tbgEOr7eAtHd5QlQucUEgAgoXFQQLBSA4UBDGhv+nV+1UQMdrCtWmA86XHhQwygoHTbG69DbOXB6xVpoLw3DjWtdCtestOBBMeARtOtWWqce/icd+/GkY+v0WR46fOERgH0P56Urw4eNjY0Nf44jQrAYBgNVbSVV5GUXKhhB5VbzeR80UA4iGJDQAQZBQxUbbnfuUQgQH3AMUnRQ/uhw4eH20+OqJs6A2kXL4dz2H6D7bJvAaQfjmlXw4CF/3Yq/ZK62aF5THvbQsQ6vVy1FSGApxQfBQ2vfw/Bh8y97d/dUZRXFcfzQhQmZkllZOY2mNZMXpRl2oSmVOjapYzlOb15go5DvICDlCwqCb4koKiCHV+GApHIAxRQtRUdtmvTY5I3aTH8Cf8Jq+Uh7znHDM8zyLNZ5Tus38/0HuHo+s/c+6HS66K056fVkLIRBeAgQ1xQtA9fiUtsbM6Br9udOlzNy4WpOgdOt6gDcae1wevDnXQ5UCCLDQIMTG65dytrGcMohgg5skOiwGmsqe+pR5aMmQfOcJdC5Ng+u1bdA6ObvpNMO+vsOhYeXTz2OFxbDAXxInjt2nEGHhQ8KPKL53kPxodPpdLGLkAAiBINmQgSoEGJAAn+kv2cgrPZ358EZxAoG3V+vgp6cAqfrBfsh1NpuEsWFjQwhbNjdv/+3EwIkltARrStWdu7oMB0K62BEL0HluHcggCjpWJMHV+sCcPvGbwLXrLjg4eF3HvKnHuaUYwe+51iDcMBc4MGGD/n3HooPnU6ni84CYQgZbM2k6KCRRwO9AKXEwdWUOCGi4NS50DnrM6dzC5bBlewdppsHKiF0ot10785fJGTQocGKjQG7lLnNAofX0IENFh0UeJhK++nwqIlQN30etK/eBBeKSqCnNsB9zcpL8GC/boUNKTwwA45jCI7iGamQNWI0rPUNcxpCfNjwGOr3HooPnU6n4x1+zCZjIQxcSyLGjxgBPFBRQQGGe41P2PHE8XB66hzomLXYdDE9Gy5nbzfdKKmA2yeCcCssAjQYsWF37/4DuJi5lQEckuign3a4w8PuQEJ4LzqV9FX+6ttQmzIXgqtz4XzRfrhS0yj0vkMeHvzXrfjx0VpaBlVrNjjg2IjgWIfYwATgIfLeA+uDh+JDp9Pphnb4IZuMhTB4LOvDmFySQNyIoKOCjgs6NAZu+MA12PX738VbJr7v/N+N8M59meH8FK5TVr5TT/4++KO5zepuz/UnwUa/dSNA/LGMDvoVKwI8KOgw8DDtD+vHhBciKh05AapT5kDrsgw4vSobfq1uhGutbdLwoL7z4LpuJfrI/EzLT9C0cxccWvIFFE5JgfUIDMygwwP4cIEH4b2H4kOn0+nkhx+qdRhg0ESJDhf56JCQg4UNDD5o2NH+y7j7z+Jaj8YbxkyGUzMXwakZj7cQgvO/AjzlMHU/VufSFS7g8Aw66Kcd/PAw7UsYY9rbTyUjx4M/5WNoXPQNnPxuI5wt3AuX/A1wveu8B+Ehed1q8PgIVtdCfd4WKE9bATsRGzl4urEBUYFR4CH1K1dC7z1MQcWHTqfTDSFCqDV5KzFM0IFBR4aBhjw2CD+NS3jHQTrloP96FT86RE87CPCIbE/C86bdvvBGw8FXJkPlex9BdepCaM3IwjKhu6re6dqZn8XhQX/nwX/d6tShI9BctBsqEBp7Zn4I2ye9ZaBhZeMj/q9c0fFR59PpdDrd0CNEE8AFDRh0ZNChQT/dEAAH9ZSDHx1YdNDhRXg47Qqr2PecqciUbDo6bbZTVeqn0JK+welk9ma4cKwWLlTWOLnAQ/idB+26VWdNPZxGZNSuy4Rjy1dC6fyFUIwnGnl4opHlG2bKdIoCPLx35Yr+3kPxodPpdLE1/Nitw2CA/vdoIIOCDgtTAwEZNGxwnm7IgEMeHfR3HfTTDu/DY6dvlFVhRCOdCsLage19+U04PO0DKOvLv2ApNK1cC41hncjKg64KP3SVP6zKdPZhR6vgl7ZOMjzO1TdCx5EKaD8cWbCsHKq/TTf5l6dD2SeLYM/U6U75Y1+DHERBdl8brSx4xMupB997D8WHTqfTeWP4sZuGQUSJLHkPDHRU0HFhI0MSGkKnGwYcDKccnkcH/2kHGR6jhw4epmdN2/vK942w2uZ7xmprWFt8SRFtDusHX2JE3/uGm/Jc2uR72inXNMwpx2Thw4ZHdE49vIoPd3jQ8ZHp0+l0Ol1sIKTBfCDTYkSMAB6IqKDhghsZ9FMNAjZEwMF1ykFHB/MVK3F4IDIE4WEy8HDHhzs8rGx4mKjwsPARjVOP9ZynHgJXrnjfe5jSfDqdTqeLneEH8WKsFwNqxwViBwQdFYzAEDzVoJ9u0MHBcMohig6p0w76NSsSPIrk4WHFDw/3U49sE/t1K71yFQmPXsWHTqfTxejwQ3cK1ovBILI+vsWTgYQ8MGxkEE81GE42JMERf+iI3mmHwsMFHgLXrQiPzMmnHh7Ahws8qPiY4tPpdDpdzCMkhIHGAAtpZBhoyGPDgIN6rYp0yiGIDv4rVvzwsNHhTXjQ33nQr1vpqYfElat/FB86nU7nkeFHbjIWwuBRCgkCJjiAYaphgIYANijg4D/lIKCD8K6DcMVK9LQj/uFBf+dBv26lpx7R/4ld/e/mOp1O53mE1GHAnzQQpHFhV0NABi80DDa4TjfYwCGPDv4rVvLwMOiQhYfcOw/6dSsP/F8P7/zKlSm4RPGh0+l03t1/CNFIoKDjwgCDjAyTXwAb/OCgn3IYdAhcryJcsSKddsi/78AsdHgKHvzXrfTUI3r40P/xodPpdPE3/GhOI3xoexUO/KgwuKACw87PCw06NrwPDn50eOC0I07hEXvXraRPPbx25Up/Zlen0+nie/jBnIr1YjBQtdLxA4KOCjowTH4BaBCxwQAORQcBHbLvO9z/gWC8wIP/upWeegwGH7145WqxT6fT6f5l7wxO24iiKKpdVgGVoBJcgksIuAFDGvAuEAJ2Csg+XrkEl6ASVIJKUAmThxfCK6Ec5nHnj86B28M/3HdnZJUSclcP5mNlOufLMOEiwaUCyEVQNLplIyMcaemY7cSKtx1t+47xxYPvPPLnVrz1WJt8HB/80pWIyLqpx/W2cqhMw4aLREAskGBw0SCyAdqNBuHgLUdAOsZpO7h4vATEY4aBOdh5tJ5bLbj1yJ9clXgcHJuLiNwQ9bh+q0wDJSoTXDB4XnmrwWWDtxsdwsFbjmGlIyMev1PiERiYx8+tbD0+8uDYXETkNqnH8uNsD++kHATkIiAZoNUAstEgHOisaizpGK3tQOJRkpEUD77zGOncqqH1WKh8PG1EROSmJeS+chpCAGJCwfPaJRm81eCykReOWaXjz7KkY1Hi8TyuePCdxwjnVuO3HqfK/UZERKQe4rt6LB8q06fckjhwuQCSgUWjQTYiwsG3HFw48tLB24528fh6m+KxxJE5bz1GkI9DZbcRERH5TD2q3yrTLecV5C8QDCAZQDQaZCMpHONLR77t4PuOgHg0fNkqf26Vbz1Cew/H5iIicklCHtcuEVwquFycBQNIBhANKhu83eDCAVqOmHT0D8oVjwviAQfmqXMrW4/pwb2HiIhcSz3A7yrHyhRLQCSAWADBwJLBRYPLBms3uHDwlmME6Ziz7QjsOyoXpCMqHv07j0Dr8X381uPk/z1EROS/qMf3tvJemQYIkAkgFlAwuGQ0iQZoN8LCwVuOfumozCId6baDi8cF6YiLxwDnVuv7wtVH9p5ciYgIph7fL5XpynAx4OFCQcUCCAaQDCAaYLMBZCMmHANIR8uJVUg8fikeV5xbNY7MeeuRlo+XjYiIyAwScl+P71NlAFmAQkHlggsGlwzeanDZAMIBzqpIy7FU6QAnVoG2YwDxgF+24udWth5+YldERJZBPda3lT145KfFgQsFlwsuGFw0crLBhSPXcnDp6D2xWrB4/FyOePCB+RjnVnzr4cmViIiskXqsP1WmRLhAcKngcsElg4tGg2zgdqNBOEaQjs62g4pH/7CciUfDJ3XjO4++kfl8rYcnVyIiMiL1UL+rHCtTIFwiuFTkJYOLBpeNgHCAlmMt0pFtO7h45BuPwM6j8dxqpNbj6FeuREQEwKlH+rbyVpkCCYgEkAsgGQ2iAWQjIhy85eCfzOXS0X1ipXj0i0f+3Kq/9eiTj3dPrkREJCki3+rhfapMKwoXCy4Y/aLBZSMvHLzlCEgHOLECbUdi35EXj8pSxKPhT+bR1uP6ofnjRkREJE090HeV/chCwcWCC8ZZMpho5GUjIRx56eg+sQq0HWHxAF+2CgzMMyPzZW099pXdRkREZGEi8hQXBS4UQC6AYHDJAKKBZQO0G1HhCEhH4MQqJB4/xhGP/M6Dj8wzrYdDcxER+cfeHdS2FURhFDaEQAgEQwiEQAiEbLp/DArBEALBEAzBEEyhd1FZ6iZVjvz3z7yeIw2H+XTnvreH5lJ/nHNpw4GDAuACAAMjI4kNPt3g4OhNOZLo4E+s+tMOBI8fa8GD73mw51Z8ybw/9bi4aG5mZss0l/oNQCAACIgKgAuAjAA0Qtjog2N9dPAnVgs8s4J/Ll8AHoHnVnzJ/N9OPX4ezMzMVmsu88c5FwSBPCA4LDguODA4NPLY6INjfXTwaYfwuMOjuufRXzJ/4Od1/aO5mZkt31zmNwCADCI4LDguODI4NPLYAODAz6r4lIP8p+NzdLC9jgWmHfjngRQe6U/q9vc8Akvm+amHn9c1M7M9IeQ4l/kLAkAeEhwWeWRwaABsgOlGCxx8ytFHR3/awRfL9w4PvufRWDJ/4K6HUw8zM9ttA4ENIYAfDoo8MDgyODT60407OPCzqv2ig087Us+s9g+PxM8EH71k7heuzMzM7qEGAMc55zQU8rAAwCDI4NDg2GiBg085ADrATkdgryM+7RAeAB7x51Z8ydwvXJmZmfHmIv8+57YAKDAu7sAAyAhAg2KjD47MlKOPjuS0I7tY/jk8ADogPPJftmo/t8r8zfz9YGZm9h8j5GnORwwPHBUcFxwYHBkcGhwbfXCsiY4Vpx19eGS/bJXf8wgsmaOpx4d/MzczM/vdXPxf5lwLgACwQLjgwODQyGODgyPzrIqhg+905J9YLQGP91Xgkd3zyD+34lOP65zXg5mZmf3ZXPqf5mxzcojgsODA4Mgg0Ohjg4OjNeVYGR39/Y714cH3PPhzK75k/vWpx+andc3MzP7SXPqf55wxGjgkOCw4MgA0atjg040AOJZHB3hiNSePDuGRf24VXTK/4+PscyszM7OvQ+R1Lv5XgIUEJvrA6GMjDw4+5eijIz/t6MOjvVzeXzAPPbea43MrMzOz79OAYZvL/A0AoAkLDgwOjQI2CuAgUw7+n4710ZHf7+jDI7lgzvc8+HMrNvW4+dzKzMzsgc2l/3nOqQAKgIsoMgA0AtgIgKM25eijY4FpB/iHxwLwAAvmbM8jv2R+8rmVmZlZDiIvc84ADwFUtJABoFHARgEcfXT0ph2dZ1arw4MvmOeeW31t6nEeeLwczMzMLN9A4W3OFQOij4wsNMLY4NMNDg4+5VgfHf1pB4fHgGN/8Og/t7oOPN4OZmZmRuPNZX6bc1sAFwAYd2RQaBBspKYbAXAUphw5dPSnHYUvWgXgkV0w7z+3us3ZDmZmZlZHyBOACIEFwgUHxh0ZHBoMG21wkClHHh3FvQ4+7dg/PPiXre6nAA/w3MoFczMzs28Jkec5J4AJigsODI4MDo08Nvrg6KMj/8SqP+1YHx58wZzvefDnVqdf7N3BbdtQEAZhA2nAJagEl6ASdLCOAVSCglxzUCcsgSWwFJagFvJfIsCX2Bp4vXr0DLBFfNi35KsH5mZmZo9dkLDLTAATABYIGBwZHBoAG2C7QcFRuuXg6AgsOtDRue3gh+Vjw4MfmNc9t5qFh5mZ2WAFCi+ZBYACwAIAAyADQINhg283ODj6txwcHfVPrPi2o/KZ1fbhwQ/M+XOr5dUvW5mZmY1doLDPLAAVGBccGDdk1ECDYqN+u8HBsT109G87tg8PfuchPMzMzOyjBQr7zAJQUQEMgIwiaHBsVICDbjlExw0W3fcd788NHQVftcoUw4PfedxGeJiZmX2vAoV9ZkGo4LjgwKiHBn9KJTjuRQd/YtW+7dg+PPiBeUZ4mJmZ2XsFC/vMDGBBgMGRAaCBtxp8u9EPjjHRwbcdozyzGhce/M5DeJiZmdk7ENkFDBOARQEy4EaDbzUANgrAUb3lGB8dfNshPPrg8RYfU+blyczMzOxfwcUuGJgy10ZgUGjwrUYFNjg46rcc46Kjf9sxLjz4l63onYf/8TAzM7OPFjA8Zy6ZK4AFAAZABoDGANgA4CjbcgB0gGPy0idW/fAIMu6Ax4/PhEf3gfk1c3n1z+VmZmZ2b4HDKbMCXABgAGTcAw2OjcHBUY+O3z3o4NuOhmdWFB6nDnjwA/M1cxIeZmZmdosWOBwyC8AFAAZEBocGx0YfOAZAB3hiNeK2A/zDY0h4/B8fS9BxeDIzMzP77IKHXWbKXDEu3iKjHhr92ODg6N9yjI+OvvuO7cPDw3IzMzP7qoKH58w5s1Jc3IABkAGg0YiNenCMjw7+xKp/28HhEXCMCI81cz76zMrMzMy6CiL2mbkBGAAaEBv12406cBSj4xdDx/jbDv5Fq3p41HzZaj76zMrMzMweqUBil7lkVgAMgAwAjQps9IMDbDmGRwfedvTfd3B4/Px6eKyZy9HP6JqZmdmjFywcMjNERgM0MDY4OAbYcrSjY7RtB/+Ubj883HaYmZnZRiDynDlnVgQMDo1ubPSD49HQ0fbEqh8epzHgsWbObjvMzMxsMwUNL5kpcwXIKIAGwAbdbtQ/q+Jbjn508CdWhduO+vuOzFt0dMDjmpmOfsnKzMzMvgFGDpn5D0BGATQANgYAR8GWoxgdo207+H1HMzwyc9BxejKzv+zdTXHcQBRFYUMwBEEwBEHQyh47rkS7bAWhGQyEgSAIDUEQBEEUchZjl5NFVPNq2u32nK/qgjj19CNJujUExj0biYVcMTTqx0YgOIJXjvrRUesRq8bC4/X64bGw8dHP50qSJAGERMcmtuxERsnQiMdG+eCIXzlajY72rh3Fw+P5svBY2PToex2SJEn/R1B0bGJLIDQCV40CsVEhOAJXjvjXq9qJjlsLj+XJ6JAkSYojHDo2sbnCVSNw3SgYHPWvHPHoKPeIVfzaUSI8dqNjPzxeLg+PzKYno0OSJOnqMXLPRjYTE1sgNOrFRo3gaDQ62r92lA8PNhMc45PvdEiSJH0eQmMgDo5sLRAagdjYuW5cOziMjtrXjvgXrS4Pj5WdDv4gUJIk6WsgHjo2sVwhNgLXjaaDo1Z0lL92lPhxYDw8MpsO/qdDkiSphSB5v44sREWF2KgSHO1HR4FHrCpcO6Kf0l3ZkQ0HH62SJElqF6HRsZGwOLG1WGy0GBztR0f82lEpPJ7ZeSs7ERvjwRfIJUmSvi/iomMjO7G1QmyUDY74lSPwR/LrRwe7QnR8yWvHyk5sfDY4JEmSbheh0bGBHYmLJRAbgetG0eCIXznqREf5R6zqhMfCjgaHJEmSdhESPUtsZluh60b54Gg1OuJfsQpcO64SHhubCY7E+hff4ZAkSRIQDpKODcRFYplt77HRbnDUj47yj1iVuHZsLBMciQ0/vG5IkiTpM0xECRtYIhpmthYOjvi7HPHgKB8dNR+x2g+PldiYWWLDq7EhSZKkr4ag6NnIEstsrRAc3zU6Sl07VpZZYiPr7yRJkqSWERk9G1hiJ2Iis62Bx6oqREeRR6w2ltl8Do3B0JAkSdJNIjT68xJLREZmeSc4qkcHYRGODhaIjt3wyL8YS+f1P40MSZIk6TJExwPriYqBpfNmls/bigVH/ejYWCYuMptZOm9gPXu4kyRJklQH4fFASPQflv7ZieWP+83YUiA6FpaJjb9GbJxYehvBkVj/NoLDqJAk/WEPDgQAAAAAgPxfG0FVVVVVVVVVVVVVVVVVVVVVVVVVVVVVVVVVVVVVVVVVVVVVVVVVVVVVVVVVVVVVVVVVVVVVVVVVVVVVVWEPDgQAAAAAgPxfG0FVVVVVVVVVVVVVVVVVVVVVVVVVVVVVVVVVVVVVVVVVVVVVVVVVVVVVVVVVVVVVVVVVVVVVVVVVVVVVVWEPDgQAAAAAgPxfG0FVVVVVVVVVVVVVVVVVVVVVVVVVVVVVVVVVVVVVVVVVVVVVVVVVVVVVVVVVVVVVVVVVVVVVVVVVVVVVVWkPDkgAAAAABP1/3Y5ABQAAAAAAAAAAAAAAAAAAAAAAAAAAAAAAAAAAAAAAAAAAAAAAAAAAAACAqwBTZSUKz14aDgAAAABJRU5ErkJggg==;whiteSpace=wrap;html=1;rounded=0;glass=0;treeMoving=1;treeFolding=1;" parent="dNxyNK7c78bLwvsdeMH5-11" vertex="1">
            <mxGeometry x="310" y="50" width="150" height="70" as="geometry" />
          </mxCell>
        </UserObject>
        <mxCell id="dNxyNK7c78bLwvsdeMH5-13" value="" style="endArrow=blockThin;endFill=1;fontSize=11;edgeStyle=elbowEdgeStyle;elbow=vertical;rounded=0;" parent="dNxyNK7c78bLwvsdeMH5-11" source="dNxyNK7c78bLwvsdeMH5-12" target="dNxyNK7c78bLwvsdeMH5-14" edge="1">
          <mxGeometry relative="1" as="geometry" />
        </mxCell>
        <mxCell id="iSCaMQLey8ANm4qpEyg0-24" style="edgeStyle=orthogonalEdgeStyle;rounded=0;orthogonalLoop=1;jettySize=auto;html=1;entryX=0.489;entryY=0.009;entryDx=0;entryDy=0;entryPerimeter=0;" edge="1" parent="dNxyNK7c78bLwvsdeMH5-11" source="dNxyNK7c78bLwvsdeMH5-14" target="iSCaMQLey8ANm4qpEyg0-19">
          <mxGeometry relative="1" as="geometry" />
        </mxCell>
        <UserObject label="PRODUCTION" name="Edward Morrison" position="Brand Manager" location="Office 2" email="me@example.com" placeholders="1" id="dNxyNK7c78bLwvsdeMH5-14">
          <mxCell style="label;whiteSpace=wrap;html=1;rounded=0;glass=0;treeFolding=1;treeMoving=1;" parent="dNxyNK7c78bLwvsdeMH5-11" vertex="1">
            <mxGeometry x="10" y="180" width="170" height="50" as="geometry" />
          </mxCell>
        </UserObject>
        <mxCell id="dNxyNK7c78bLwvsdeMH5-15" value="" style="endArrow=blockThin;endFill=1;fontSize=11;edgeStyle=elbowEdgeStyle;elbow=vertical;rounded=0;" parent="dNxyNK7c78bLwvsdeMH5-11" source="dNxyNK7c78bLwvsdeMH5-12" target="dNxyNK7c78bLwvsdeMH5-16" edge="1">
          <mxGeometry relative="1" as="geometry" />
        </mxCell>
        <mxCell id="iSCaMQLey8ANm4qpEyg0-29" style="edgeStyle=orthogonalEdgeStyle;rounded=0;orthogonalLoop=1;jettySize=auto;html=1;" edge="1" parent="dNxyNK7c78bLwvsdeMH5-11" source="dNxyNK7c78bLwvsdeMH5-16" target="iSCaMQLey8ANm4qpEyg0-25">
          <mxGeometry relative="1" as="geometry" />
        </mxCell>
        <UserObject label="SANDBOX" name="" position="" location="" email="" link="" placeholders="1" id="dNxyNK7c78bLwvsdeMH5-16">
          <mxCell style="label;whiteSpace=wrap;html=1;rounded=0;glass=0;treeFolding=1;treeMoving=1;" parent="dNxyNK7c78bLwvsdeMH5-11" vertex="1">
            <mxGeometry x="210" y="180" width="170" height="50" as="geometry" />
          </mxCell>
        </UserObject>
        <mxCell id="dNxyNK7c78bLwvsdeMH5-17" value="" style="endArrow=blockThin;endFill=1;fontSize=11;edgeStyle=elbowEdgeStyle;elbow=vertical;rounded=0;" parent="dNxyNK7c78bLwvsdeMH5-11" source="dNxyNK7c78bLwvsdeMH5-12" target="dNxyNK7c78bLwvsdeMH5-18" edge="1">
          <mxGeometry relative="1" as="geometry">
            <Array as="points">
              <mxPoint x="480" y="150" />
              <mxPoint x="370" y="150" />
            </Array>
          </mxGeometry>
        </mxCell>
        <UserObject label="STAGING" name="" position="" location="" email="" link="" id="dNxyNK7c78bLwvsdeMH5-18">
          <mxCell style="label;whiteSpace=wrap;html=1;rounded=0;glass=0;" parent="dNxyNK7c78bLwvsdeMH5-11" vertex="1">
            <mxGeometry x="410" y="180" width="170" height="50" as="geometry" />
          </mxCell>
        </UserObject>
        <mxCell id="iSCaMQLey8ANm4qpEyg0-31" style="edgeStyle=orthogonalEdgeStyle;rounded=0;orthogonalLoop=1;jettySize=auto;html=1;" edge="1" parent="dNxyNK7c78bLwvsdeMH5-11" source="iSCaMQLey8ANm4qpEyg0-1" target="iSCaMQLey8ANm4qpEyg0-26">
          <mxGeometry relative="1" as="geometry">
            <Array as="points">
              <mxPoint x="690" y="250" />
              <mxPoint x="690" y="250" />
            </Array>
          </mxGeometry>
        </mxCell>
        <UserObject label="&lt;div&gt;&lt;span&gt;&amp;nbsp; &amp;nbsp; &amp;nbsp; DEV&lt;/span&gt;&lt;/div&gt;" name="" position="" location="" email="" placeholders="1" link="" id="iSCaMQLey8ANm4qpEyg0-1">
          <mxCell style="label;whiteSpace=wrap;html=1;rounded=0;glass=0;align=left;" vertex="1" parent="dNxyNK7c78bLwvsdeMH5-11">
            <mxGeometry x="610" y="180" width="170" height="50" as="geometry" />
          </mxCell>
        </UserObject>
        <mxCell id="iSCaMQLey8ANm4qpEyg0-19" value="" style="verticalLabelPosition=bottom;sketch=0;aspect=fixed;html=1;verticalAlign=top;strokeColor=#82b366;align=center;outlineConnect=0;shape=mxgraph.citrix.cloud;fillColor=#d5e8d4;gradientColor=#97d077;" vertex="1" parent="dNxyNK7c78bLwvsdeMH5-11">
          <mxGeometry x="12.5" y="280" width="168.55" height="110" as="geometry" />
        </mxCell>
        <mxCell id="iSCaMQLey8ANm4qpEyg0-20" value="&lt;b&gt;VIP:&amp;nbsp;&lt;/b&gt;&lt;span style=&quot;font-family: &amp;#34;freesans&amp;#34; , &amp;#34;arial&amp;#34; , &amp;#34;helvetica&amp;#34; , sans-serif ; text-align: -webkit-left ; background-color: rgb(255 , 255 , 255)&quot;&gt;&lt;b&gt;159.140.4.247&lt;/b&gt;&lt;/span&gt;&lt;b&gt;&lt;br&gt;&amp;nbsp;&lt;/b&gt;" style="text;html=1;align=center;verticalAlign=middle;resizable=0;points=[];autosize=1;strokeColor=none;fillColor=none;" vertex="1" parent="dNxyNK7c78bLwvsdeMH5-11">
          <mxGeometry x="46" y="320" width="120" height="30" as="geometry" />
        </mxCell>
        <mxCell id="iSCaMQLey8ANm4qpEyg0-25" value="" style="verticalLabelPosition=bottom;sketch=0;aspect=fixed;html=1;verticalAlign=top;strokeColor=#82b366;align=center;outlineConnect=0;shape=mxgraph.citrix.cloud;fillColor=#d5e8d4;gradientColor=#97d077;" vertex="1" parent="dNxyNK7c78bLwvsdeMH5-11">
          <mxGeometry x="310.72" y="280" width="168.55" height="110" as="geometry" />
        </mxCell>
        <mxCell id="iSCaMQLey8ANm4qpEyg0-26" value="" style="verticalLabelPosition=bottom;sketch=0;aspect=fixed;html=1;verticalAlign=top;strokeColor=#82b366;align=center;outlineConnect=0;shape=mxgraph.citrix.cloud;fillColor=#d5e8d4;gradientColor=#97d077;" vertex="1" parent="dNxyNK7c78bLwvsdeMH5-11">
          <mxGeometry x="610.72" y="280" width="168.55" height="110" as="geometry" />
        </mxCell>
        <mxCell id="iSCaMQLey8ANm4qpEyg0-27" value="&lt;b&gt;VIP:&amp;nbsp;&lt;/b&gt;&lt;span style=&quot;font-family: &amp;#34;freesans&amp;#34; , &amp;#34;arial&amp;#34; , &amp;#34;helvetica&amp;#34; , sans-serif ; text-align: -webkit-left ; background-color: rgb(255 , 255 , 255)&quot;&gt;&lt;b&gt;159.140.4.245&lt;/b&gt;&lt;/span&gt;&lt;b&gt;&lt;br&gt;&amp;nbsp;&lt;/b&gt;" style="text;html=1;align=center;verticalAlign=middle;resizable=0;points=[];autosize=1;strokeColor=none;fillColor=none;" vertex="1" parent="dNxyNK7c78bLwvsdeMH5-11">
          <mxGeometry x="345" y="320" width="120" height="30" as="geometry" />
        </mxCell>
        <mxCell id="iSCaMQLey8ANm4qpEyg0-28" value="&lt;b&gt;VIP:&amp;nbsp;&lt;/b&gt;&lt;span style=&quot;font-family: &amp;#34;freesans&amp;#34; , &amp;#34;arial&amp;#34; , &amp;#34;helvetica&amp;#34; , sans-serif ; text-align: -webkit-left ; background-color: rgb(255 , 255 , 255)&quot;&gt;&lt;b&gt;10.190.100.20&lt;/b&gt;&lt;/span&gt;&lt;b&gt;&lt;br&gt;&amp;nbsp;&lt;/b&gt;" style="text;html=1;align=center;verticalAlign=middle;resizable=0;points=[];autosize=1;strokeColor=none;fillColor=none;" vertex="1" parent="dNxyNK7c78bLwvsdeMH5-11">
          <mxGeometry x="646" y="320" width="120" height="30" as="geometry" />
        </mxCell>
        <mxCell id="iSCaMQLey8ANm4qpEyg0-4" style="edgeStyle=orthogonalEdgeStyle;rounded=0;orthogonalLoop=1;jettySize=auto;html=1;" edge="1" parent="dNxyNK7c78bLwvsdeMH5-11">
          <mxGeometry relative="1" as="geometry">
            <mxPoint x="684.27" y="180" as="targetPoint" />
            <mxPoint x="479.27" y="150" as="sourcePoint" />
            <Array as="points">
              <mxPoint x="684.27" y="150" />
            </Array>
          </mxGeometry>
        </mxCell>
        <mxCell id="iSCaMQLey8ANm4qpEyg0-34" value="" style="html=1;shadow=0;dashed=0;shape=mxgraph.bootstrap.rrect;rSize=5;strokeColor=#DFDFDF;html=1;whiteSpace=wrap;fillColor=#FFFFFF;fontColor=#000000;" vertex="1" parent="dNxyNK7c78bLwvsdeMH5-11">
          <mxGeometry x="10" y="415" width="210" height="215" as="geometry" />
        </mxCell>
        <mxCell id="iSCaMQLey8ANm4qpEyg0-35" value="&lt;b&gt;Pool&lt;/b&gt;:&amp;nbsp;clientlearn_prod_80_pool" style="html=1;shadow=0;dashed=0;shape=mxgraph.bootstrap.topButton;strokeColor=inherit;fillColor=#F7F7F7;rSize=5;perimeter=none;whiteSpace=wrap;resizeWidth=1;align=left;spacing=10;" vertex="1" parent="iSCaMQLey8ANm4qpEyg0-34">
          <mxGeometry width="200" height="30" relative="1" as="geometry" />
        </mxCell>
        <mxCell id="iSCaMQLey8ANm4qpEyg0-36" value="&lt;span style=&quot;color: rgba(0 , 0 , 0 , 0.87) ; font-family: &amp;#34;roboto&amp;#34; , , &amp;#34;system-ui&amp;#34; , &amp;#34;helvetica&amp;#34; , &amp;#34;arial&amp;#34; , sans-serif ; font-size: 14.08px ; text-align: left ; background-color: rgba(0 , 0 , 0 , 0.035)&quot;&gt;ljc3poprod01&lt;/span&gt;" style="strokeColor=inherit;fillColor=inherit;gradientColor=inherit;fontColor=inherit;html=1;shadow=0;dashed=0;perimeter=none;whiteSpace=wrap;resizeWidth=1;align=center;spacing=10;" vertex="1" parent="iSCaMQLey8ANm4qpEyg0-34">
          <mxGeometry width="166.25" height="30" relative="1" as="geometry">
            <mxPoint x="18" y="30" as="offset" />
          </mxGeometry>
        </mxCell>
        <mxCell id="iSCaMQLey8ANm4qpEyg0-37" value="&lt;span style=&quot;color: rgba(0 , 0 , 0 , 0.87) ; font-family: &amp;#34;roboto&amp;#34; , , &amp;#34;system-ui&amp;#34; , &amp;#34;helvetica&amp;#34; , &amp;#34;arial&amp;#34; , sans-serif ; font-size: 14.08px ; text-align: left ; background-color: rgba(0 , 0 , 0 , 0.035)&quot;&gt;ljc3poprod02&lt;/span&gt;" style="strokeColor=inherit;fillColor=inherit;gradientColor=inherit;fontColor=inherit;html=1;shadow=0;dashed=0;perimeter=none;whiteSpace=wrap;resizeWidth=1;align=center;spacing=10;" vertex="1" parent="iSCaMQLey8ANm4qpEyg0-34">
          <mxGeometry width="166.25" height="30" relative="1" as="geometry">
            <mxPoint x="18" y="55" as="offset" />
          </mxGeometry>
        </mxCell>
        <mxCell id="iSCaMQLey8ANm4qpEyg0-38" value="&lt;span style=&quot;color: rgba(0 , 0 , 0 , 0.87) ; font-family: &amp;#34;roboto&amp;#34; , , &amp;#34;system-ui&amp;#34; , &amp;#34;helvetica&amp;#34; , &amp;#34;arial&amp;#34; , sans-serif ; font-size: 14.08px ; text-align: left ; background-color: rgba(0 , 0 , 0 , 0.035)&quot;&gt;ljc3poprod03&lt;/span&gt;" style="strokeColor=inherit;fillColor=inherit;gradientColor=inherit;fontColor=inherit;html=1;shadow=0;dashed=0;shape=mxgraph.bootstrap.bottomButton;rSize=5;perimeter=none;whiteSpace=wrap;resizeWidth=1;resizeHeight=0;align=center;spacing=10;" vertex="1" parent="iSCaMQLey8ANm4qpEyg0-34">
          <mxGeometry y="1" width="166.25" height="30" relative="1" as="geometry">
            <mxPoint x="18" y="-130" as="offset" />
          </mxGeometry>
        </mxCell>
        <mxCell id="iSCaMQLey8ANm4qpEyg0-39" value="&lt;span style=&quot;color: rgba(0 , 0 , 0 , 0.87) ; font-family: &amp;#34;roboto&amp;#34; , , &amp;#34;system-ui&amp;#34; , &amp;#34;helvetica&amp;#34; , &amp;#34;arial&amp;#34; , sans-serif ; font-size: 14.08px ; text-align: left ; background-color: rgba(0 , 0 , 0 , 0.035)&quot;&gt;ljc3poprod04&lt;/span&gt;" style="strokeColor=inherit;fillColor=inherit;gradientColor=inherit;fontColor=inherit;html=1;shadow=0;dashed=0;shape=mxgraph.bootstrap.bottomButton;rSize=5;perimeter=none;whiteSpace=wrap;resizeWidth=1;resizeHeight=0;align=center;spacing=10;" vertex="1" parent="iSCaMQLey8ANm4qpEyg0-34">
          <mxGeometry x="17.880000000000003" y="115.005" width="166.25" height="30" as="geometry" />
        </mxCell>
        <mxCell id="iSCaMQLey8ANm4qpEyg0-40" value="&lt;span style=&quot;color: rgba(0 , 0 , 0 , 0.87) ; font-family: &amp;#34;roboto&amp;#34; , , &amp;#34;system-ui&amp;#34; , &amp;#34;helvetica&amp;#34; , &amp;#34;arial&amp;#34; , sans-serif ; font-size: 14.08px ; text-align: left ; background-color: rgba(0 , 0 , 0 , 0.035)&quot;&gt;ljc3poprod05&lt;/span&gt;" style="strokeColor=inherit;fillColor=inherit;gradientColor=inherit;fontColor=inherit;html=1;shadow=0;dashed=0;shape=mxgraph.bootstrap.bottomButton;rSize=5;perimeter=none;whiteSpace=wrap;resizeWidth=1;resizeHeight=0;align=center;spacing=10;" vertex="1" parent="iSCaMQLey8ANm4qpEyg0-34">
          <mxGeometry x="17.88" y="145.01" width="166.25" height="30" as="geometry" />
        </mxCell>
        <mxCell id="iSCaMQLey8ANm4qpEyg0-55" value="&lt;span style=&quot;color: rgba(0 , 0 , 0 , 0.87) ; font-family: &amp;#34;roboto&amp;#34; , , &amp;#34;system-ui&amp;#34; , &amp;#34;helvetica&amp;#34; , &amp;#34;arial&amp;#34; , sans-serif ; font-size: 14.08px ; text-align: left ; background-color: rgba(0 , 0 , 0 , 0.035)&quot;&gt;ljc3poprod06&lt;/span&gt;" style="strokeColor=inherit;fillColor=inherit;gradientColor=inherit;fontColor=inherit;html=1;shadow=0;dashed=0;shape=mxgraph.bootstrap.bottomButton;rSize=5;perimeter=none;whiteSpace=wrap;resizeWidth=1;resizeHeight=0;align=center;spacing=10;" vertex="1" parent="iSCaMQLey8ANm4qpEyg0-34">
          <mxGeometry x="17.879999999999995" y="175" width="166.25" height="30" as="geometry" />
        </mxCell>
        <mxCell id="iSCaMQLey8ANm4qpEyg0-41" value="" style="html=1;shadow=0;dashed=0;shape=mxgraph.bootstrap.rrect;rSize=5;strokeColor=#DFDFDF;html=1;whiteSpace=wrap;fillColor=#FFFFFF;fontColor=#000000;" vertex="1" parent="dNxyNK7c78bLwvsdeMH5-11">
          <mxGeometry x="299" y="410" width="210" height="150" as="geometry" />
        </mxCell>
        <mxCell id="iSCaMQLey8ANm4qpEyg0-42" value="&lt;b style=&quot;text-align: left&quot;&gt;Pool&lt;/b&gt;&lt;span style=&quot;text-align: left&quot;&gt;:&amp;nbsp;clientlearn_sandbox_80_pool&lt;/span&gt;" style="html=1;shadow=0;dashed=0;shape=mxgraph.bootstrap.topButton;strokeColor=inherit;fillColor=#F7F7F7;rSize=5;perimeter=none;whiteSpace=wrap;resizeWidth=1;align=center;spacing=10;" vertex="1" parent="iSCaMQLey8ANm4qpEyg0-41">
          <mxGeometry width="200" height="30" relative="1" as="geometry" />
        </mxCell>
        <mxCell id="iSCaMQLey8ANm4qpEyg0-43" value="&lt;span style=&quot;color: rgba(0 , 0 , 0 , 0.87) ; font-family: &amp;#34;roboto&amp;#34; , , &amp;#34;system-ui&amp;#34; , &amp;#34;helvetica&amp;#34; , &amp;#34;arial&amp;#34; , sans-serif ; font-size: 14.08px ; text-align: left ; background-color: rgba(0 , 0 , 0 , 0.035)&quot;&gt;ljc3pocert01&lt;/span&gt;" style="strokeColor=inherit;fillColor=inherit;gradientColor=inherit;fontColor=inherit;html=1;shadow=0;dashed=0;perimeter=none;whiteSpace=wrap;resizeWidth=1;align=center;spacing=10;" vertex="1" parent="iSCaMQLey8ANm4qpEyg0-41">
          <mxGeometry width="166.25" height="30" relative="1" as="geometry">
            <mxPoint x="18" y="30" as="offset" />
          </mxGeometry>
        </mxCell>
        <mxCell id="iSCaMQLey8ANm4qpEyg0-44" value="&lt;span style=&quot;color: rgba(0 , 0 , 0 , 0.87) ; font-family: &amp;#34;roboto&amp;#34; , , &amp;#34;system-ui&amp;#34; , &amp;#34;helvetica&amp;#34; , &amp;#34;arial&amp;#34; , sans-serif ; font-size: 14.08px ; text-align: left ; background-color: rgba(0 , 0 , 0 , 0.035)&quot;&gt;ljc3pocert02&lt;/span&gt;" style="strokeColor=inherit;fillColor=inherit;gradientColor=inherit;fontColor=inherit;html=1;shadow=0;dashed=0;perimeter=none;whiteSpace=wrap;resizeWidth=1;align=center;spacing=10;" vertex="1" parent="iSCaMQLey8ANm4qpEyg0-41">
          <mxGeometry width="166.25" height="30" relative="1" as="geometry">
            <mxPoint x="18" y="60" as="offset" />
          </mxGeometry>
        </mxCell>
        <mxCell id="iSCaMQLey8ANm4qpEyg0-56" value="&lt;span style=&quot;color: rgba(0 , 0 , 0 , 0.87) ; font-family: &amp;#34;roboto&amp;#34; , , &amp;#34;system-ui&amp;#34; , &amp;#34;helvetica&amp;#34; , &amp;#34;arial&amp;#34; , sans-serif ; font-size: 14.08px ; text-align: left ; background-color: rgba(0 , 0 , 0 , 0.035)&quot;&gt;ljc3pocert03&lt;/span&gt;" style="strokeColor=inherit;fillColor=inherit;gradientColor=inherit;fontColor=inherit;html=1;shadow=0;dashed=0;perimeter=none;whiteSpace=wrap;resizeWidth=1;align=center;spacing=10;" vertex="1" parent="iSCaMQLey8ANm4qpEyg0-41">
          <mxGeometry x="18" y="89" width="166.25" height="30" as="geometry" />
        </mxCell>
        <mxCell id="iSCaMQLey8ANm4qpEyg0-57" value="&lt;span style=&quot;color: rgba(0 , 0 , 0 , 0.87) ; font-family: &amp;#34;roboto&amp;#34; , , &amp;#34;system-ui&amp;#34; , &amp;#34;helvetica&amp;#34; , &amp;#34;arial&amp;#34; , sans-serif ; font-size: 14.08px ; text-align: left ; background-color: rgba(0 , 0 , 0 , 0.035)&quot;&gt;ljc3pocert04&lt;/span&gt;" style="strokeColor=inherit;fillColor=inherit;gradientColor=inherit;fontColor=inherit;html=1;shadow=0;dashed=0;perimeter=none;whiteSpace=wrap;resizeWidth=1;align=center;spacing=10;" vertex="1" parent="iSCaMQLey8ANm4qpEyg0-41">
          <mxGeometry x="18" y="119" width="166.25" height="30" as="geometry" />
        </mxCell>
        <mxCell id="iSCaMQLey8ANm4qpEyg0-48" value="" style="html=1;shadow=0;dashed=0;shape=mxgraph.bootstrap.rrect;rSize=5;strokeColor=#DFDFDF;html=1;whiteSpace=wrap;fillColor=#FFFFFF;fontColor=#000000;" vertex="1" parent="dNxyNK7c78bLwvsdeMH5-11">
          <mxGeometry x="570" y="410" width="210" height="110" as="geometry" />
        </mxCell>
        <mxCell id="iSCaMQLey8ANm4qpEyg0-49" value="&lt;div style=&quot;text-align: center&quot;&gt;&lt;b&gt;&amp;nbsp; &amp;nbsp; &amp;nbsp; &amp;nbsp; Pool&lt;/b&gt;&lt;span&gt;: pool_c3podev_80&lt;/span&gt;&lt;/div&gt;" style="html=1;shadow=0;dashed=0;shape=mxgraph.bootstrap.topButton;strokeColor=inherit;fillColor=#F7F7F7;rSize=5;perimeter=none;whiteSpace=wrap;resizeWidth=1;align=left;spacing=10;" vertex="1" parent="iSCaMQLey8ANm4qpEyg0-48">
          <mxGeometry width="200" height="30" relative="1" as="geometry" />
        </mxCell>
        <mxCell id="iSCaMQLey8ANm4qpEyg0-50" value="&lt;span style=&quot;color: rgba(0 , 0 , 0 , 0.87) ; font-family: &amp;#34;roboto&amp;#34; , , &amp;#34;system-ui&amp;#34; , &amp;#34;helvetica&amp;#34; , &amp;#34;arial&amp;#34; , sans-serif ; font-size: 14.08px ; text-align: left ; background-color: rgba(0 , 0 , 0 , 0.035)&quot;&gt;c3podev01&lt;/span&gt;" style="strokeColor=inherit;fillColor=inherit;gradientColor=inherit;fontColor=inherit;html=1;shadow=0;dashed=0;perimeter=none;whiteSpace=wrap;resizeWidth=1;align=center;spacing=10;" vertex="1" parent="iSCaMQLey8ANm4qpEyg0-48">
          <mxGeometry width="166.25" height="30" relative="1" as="geometry">
            <mxPoint x="18" y="30" as="offset" />
          </mxGeometry>
        </mxCell>
        <mxCell id="iSCaMQLey8ANm4qpEyg0-51" value="&lt;span style=&quot;color: rgba(0 , 0 , 0 , 0.87) ; font-family: &amp;#34;roboto&amp;#34; , , &amp;#34;system-ui&amp;#34; , &amp;#34;helvetica&amp;#34; , &amp;#34;arial&amp;#34; , sans-serif ; font-size: 14.08px ; text-align: left ; background-color: rgba(0 , 0 , 0 , 0.035)&quot;&gt;c3podev02&lt;/span&gt;" style="strokeColor=inherit;fillColor=inherit;gradientColor=inherit;fontColor=inherit;html=1;shadow=0;dashed=0;perimeter=none;whiteSpace=wrap;resizeWidth=1;align=center;spacing=10;" vertex="1" parent="iSCaMQLey8ANm4qpEyg0-48">
          <mxGeometry width="166.25" height="30" relative="1" as="geometry">
            <mxPoint x="18" y="55" as="offset" />
          </mxGeometry>
        </mxCell>
        <mxCell id="iSCaMQLey8ANm4qpEyg0-30" style="edgeStyle=orthogonalEdgeStyle;rounded=0;orthogonalLoop=1;jettySize=auto;html=1;" edge="1" parent="1" source="dNxyNK7c78bLwvsdeMH5-18">
          <mxGeometry relative="1" as="geometry">
            <mxPoint x="420" y="360" as="targetPoint" />
            <Array as="points">
              <mxPoint x="500" y="335" />
              <mxPoint x="420" y="335" />
            </Array>
          </mxGeometry>
        </mxCell>
        <mxCell id="iSCaMQLey8ANm4qpEyg0-58" value="" style="html=1;shadow=0;dashed=0;shape=mxgraph.bootstrap.rrect;rSize=5;strokeColor=#DFDFDF;html=1;whiteSpace=wrap;fillColor=#FFFFFF;fontColor=#000000;" vertex="1" parent="1">
          <mxGeometry x="313" y="669" width="207" height="111" as="geometry" />
        </mxCell>
        <mxCell id="iSCaMQLey8ANm4qpEyg0-59" value="&lt;b style=&quot;text-align: left&quot;&gt;Pool&lt;/b&gt;&lt;span style=&quot;text-align: left&quot;&gt;:&amp;nbsp;clientlearn_staging_80_pool&lt;/span&gt;" style="html=1;shadow=0;dashed=0;shape=mxgraph.bootstrap.topButton;strokeColor=inherit;fillColor=#F7F7F7;rSize=5;perimeter=none;whiteSpace=wrap;resizeWidth=1;align=center;spacing=10;" vertex="1" parent="iSCaMQLey8ANm4qpEyg0-58">
          <mxGeometry width="197.14285714285717" height="30" relative="1" as="geometry" />
        </mxCell>
        <mxCell id="iSCaMQLey8ANm4qpEyg0-60" value="&lt;span style=&quot;color: rgba(0 , 0 , 0 , 0.87) ; font-family: &amp;#34;roboto&amp;#34; , , &amp;#34;system-ui&amp;#34; , &amp;#34;helvetica&amp;#34; , &amp;#34;arial&amp;#34; , sans-serif ; font-size: 14.08px ; text-align: left ; background-color: rgba(0 , 0 , 0 , 0.035)&quot;&gt;ljc3podev01&lt;/span&gt;" style="strokeColor=inherit;fillColor=inherit;gradientColor=inherit;fontColor=inherit;html=1;shadow=0;dashed=0;perimeter=none;whiteSpace=wrap;resizeWidth=1;align=center;spacing=10;" vertex="1" parent="iSCaMQLey8ANm4qpEyg0-58">
          <mxGeometry width="163.875" height="30" relative="1" as="geometry">
            <mxPoint x="18" y="30" as="offset" />
          </mxGeometry>
        </mxCell>
        <mxCell id="iSCaMQLey8ANm4qpEyg0-61" value="&lt;span style=&quot;color: rgba(0 , 0 , 0 , 0.87) ; font-family: &amp;#34;roboto&amp;#34; , , &amp;#34;system-ui&amp;#34; , &amp;#34;helvetica&amp;#34; , &amp;#34;arial&amp;#34; , sans-serif ; font-size: 14.08px ; text-align: left ; background-color: rgba(0 , 0 , 0 , 0.035)&quot;&gt;ljc3podev02&lt;/span&gt;" style="strokeColor=inherit;fillColor=inherit;gradientColor=inherit;fontColor=inherit;html=1;shadow=0;dashed=0;perimeter=none;whiteSpace=wrap;resizeWidth=1;align=center;spacing=10;" vertex="1" parent="iSCaMQLey8ANm4qpEyg0-58">
          <mxGeometry width="163.875" height="30" relative="1" as="geometry">
            <mxPoint x="18" y="60" as="offset" />
          </mxGeometry>
        </mxCell>
      </root>
    </mxGraphModel>
  </diagram>
</mxfile>
